<?xml version="1.0" standalone="no"?>
<!DOCTYPE svg PUBLIC "-//W3C//DTD SVG 1.1//EN" "http://www.w3.org/Graphics/SVG/1.1/DTD/svg11.dtd">
<svg width="340mm" height="170mm" viewBox="-170 0 340 170" xmlns="http://www.w3.org/2000/svg" version="1.1">
<title>OpenSCAD Model</title>
<path d="
M 16.6629,169.181 L 33.1653,166.733 L 49.3484,162.68 L 65.0562,157.06 L 80.1374,149.927 L 94.4469,141.35
 L 107.847,131.412 L 120.208,120.208 L 131.412,107.847 L 141.35,94.4469 L 149.927,80.1374 L 157.06,65.0562
 L 162.68,49.3484 L 166.733,33.1653 L 169.181,16.6629 L 170,-0 L 165,-0 L 164.205,16.1728
 L 161.83,32.1899 L 157.895,47.897 L 152.44,63.1428 L 149.738,62.0234 L 149.661,62.0312 L 149.489,62.0482
 L 149.317,62.0648 L 149.146,62.0809 L 148.976,62.0966 L 148.806,62.1118 L 148.637,62.1266 L 148.469,62.1409
 L 148.302,62.1548 L 148.135,62.1683 L 147.969,62.1813 L 147.803,62.1939 L 147.801,62.193 L 147.658,62.5324
 L 147.66,62.5333 L 147.766,62.6606 L 147.873,62.7887 L 147.98,62.9176 L 148.086,63.0473 L 148.193,63.1778
 L 148.301,63.3091 L 148.408,63.4412 L 148.516,63.5742 L 148.623,63.7079 L 148.731,63.8425 L 148.839,63.9779
 L 148.947,64.1141 L 149.056,64.2511 L 149.164,64.3889 L 149.273,64.5276 L 149.381,64.6671 L 149.161,65.1745
 L 148.984,65.1901 L 148.809,65.2053 L 148.634,65.2199 L 148.46,65.2342 L 148.287,65.2479 L 148.114,65.2612
 L 147.942,65.2741 L 147.771,65.2865 L 147.6,65.2985 L 147.43,65.3101 L 147.261,65.3212 L 147.093,65.3319
 L 146.925,65.3422 L 146.758,65.352 L 146.592,65.3615 L 146.426,65.3705 L 146.424,65.3695 L 146.273,65.7058
 L 146.276,65.7067 L 146.379,65.8363 L 146.483,65.9666 L 146.587,66.0978 L 146.691,66.2298 L 146.795,66.3625
 L 146.899,66.4962 L 147.004,66.6306 L 147.108,66.7658 L 147.213,66.9018 L 147.318,67.0387 L 147.423,67.1764
 L 147.528,67.3149 L 147.634,67.4542 L 147.739,67.5944 L 147.845,67.7354 L 147.95,67.8772 L 147.719,68.3797
 L 147.542,68.3915 L 147.366,68.4029 L 147.191,68.4138 L 147.017,68.4242 L 146.843,68.4342 L 146.671,68.4438
 L 146.498,68.453 L 146.327,68.4617 L 146.156,68.47 L 145.986,68.4779 L 145.817,68.4854 L 145.648,68.4924
 L 145.48,68.4991 L 145.313,68.5053 L 145.146,68.5111 L 144.981,68.5166 L 144.979,68.5156 L 144.821,68.8485
 L 144.823,68.8495 L 144.924,68.9812 L 145.024,69.1138 L 145.125,69.2472 L 145.227,69.3814 L 145.328,69.5164
 L 145.429,69.6522 L 145.531,69.7888 L 145.633,69.9263 L 145.734,70.0646 L 145.836,70.2037 L 145.938,70.3436
 L 146.041,70.4843 L 146.143,70.6259 L 146.245,70.7683 L 146.348,70.9115 L 146.45,71.0556 L 146.208,71.553
 L 146.031,71.561 L 145.855,71.5686 L 145.68,71.5757 L 145.506,71.5824 L 145.332,71.5886 L 145.159,71.5945
 L 144.986,71.5999 L 144.815,71.6049 L 144.644,71.6096 L 144.474,71.6138 L 144.304,71.6176 L 144.135,71.621
 L 143.967,71.624 L 143.8,71.6266 L 143.633,71.6289 L 143.468,71.6307 L 143.466,71.6297 L 143.301,71.9592
 L 143.303,71.9602 L 143.4,72.0941 L 143.498,72.2288 L 143.597,72.3643 L 143.695,72.5007 L 143.793,72.6378
 L 143.892,72.7758 L 143.99,72.9146 L 144.089,73.0542 L 144.188,73.1947 L 144.287,73.3359 L 144.386,73.478
 L 144.485,73.6209 L 144.584,73.7647 L 144.683,73.9093 L 144.783,74.0547 L 144.882,74.2009 L 144.629,74.693
 L 144.452,74.6972 L 144.276,74.7009 L 144.101,74.7042 L 143.926,74.7072 L 143.752,74.7097 L 143.579,74.7118
 L 143.407,74.7135 L 143.235,74.7148 L 143.064,74.7157 L 142.894,74.7163 L 142.724,74.7164 L 142.555,74.7162
 L 142.387,74.7156 L 142.22,74.7146 L 142.053,74.7132 L 141.888,74.7115 L 141.886,74.7104 L 141.714,75.0363
 L 141.716,75.0373 L 141.811,75.1733 L 141.906,75.3101 L 142.001,75.4477 L 142.096,75.5861 L 142.191,75.7254
 L 142.287,75.8655 L 142.383,76.0063 L 142.478,76.1481 L 142.574,76.2906 L 142.67,76.434 L 142.766,76.5782
 L 142.862,76.7232 L 142.958,76.8691 L 143.054,77.0157 L 143.15,77.1633 L 143.246,77.3116 L 142.983,77.7981
 L 142.806,77.7985 L 142.63,77.7984 L 142.454,77.798 L 142.28,77.7971 L 142.106,77.7959 L 141.933,77.7943
 L 141.76,77.7922 L 141.588,77.7898 L 141.418,77.7871 L 141.247,77.7839 L 141.078,77.7804 L 140.909,77.7765
 L 140.741,77.7723 L 140.574,77.7677 L 140.407,77.7627 L 140.242,77.7574 L 140.24,77.7564 L 140.061,78.0784
 L 140.062,78.0794 L 140.154,78.2174 L 140.247,78.3563 L 140.339,78.4959 L 140.431,78.6364 L 140.523,78.7776
 L 140.616,78.9198 L 140.708,79.0627 L 140.801,79.2064 L 140.894,79.351 L 140.986,79.4964 L 141.079,79.6427
 L 141.172,79.7897 L 141.265,79.9376 L 141.358,80.0863 L 141.451,80.2359 L 141.544,80.3863 L 141.27,80.867
 L 141.093,80.8635 L 140.917,80.8596 L 140.742,80.8554 L 140.567,80.8508 L 140.393,80.8458 L 140.22,80.8404
 L 140.048,80.8347 L 139.876,80.8286 L 139.705,80.8222 L 139.535,80.8153 L 139.366,80.8082 L 139.197,80.8006
 L 139.029,80.7928 L 138.862,80.7846 L 138.696,80.776 L 138.53,80.7671 L 138.528,80.766 L 138.342,81.0841
 L 138.344,81.0852 L 138.433,81.2252 L 138.522,81.3659 L 138.611,81.5075 L 138.701,81.6499 L 138.79,81.7932
 L 138.879,81.9373 L 138.969,82.0821 L 139.058,82.2279 L 139.148,82.3744 L 139.237,82.5218 L 139.327,82.67
 L 139.416,82.819 L 139.506,82.9689 L 139.596,83.1196 L 139.685,83.2711 L 139.775,83.4235 L 139.491,83.8982
 L 139.314,83.8909 L 139.138,83.8832 L 138.963,83.8752 L 138.789,83.8668 L 138.615,83.858 L 138.442,83.849
 L 138.27,83.8395 L 138.098,83.8297 L 137.928,83.8195 L 137.758,83.8091 L 137.589,83.7982 L 137.42,83.7871
 L 137.252,83.7756 L 137.086,83.7638 L 136.919,83.7516 L 136.754,83.7392 L 136.752,83.738 L 136.559,84.052
 L 136.561,84.0531 L 136.647,84.195 L 136.733,84.3377 L 136.819,84.4812 L 136.905,84.6255 L 136.992,84.7706
 L 137.078,84.9166 L 137.164,85.0634 L 137.25,85.211 L 137.337,85.3594 L 137.423,85.5087 L 137.509,85.6588
 L 137.596,85.8097 L 137.682,85.9615 L 137.769,86.1141 L 137.855,86.2675 L 137.942,86.4218 L 137.647,86.8902
 L 137.47,86.8791 L 137.295,86.8676 L 137.12,86.8559 L 136.946,86.8437 L 136.772,86.8312 L 136.599,86.8184
 L 136.427,86.8052 L 136.256,86.7917 L 136.086,86.7779 L 135.916,86.7637 L 135.747,86.7493 L 135.579,86.7345
 L 135.412,86.7194 L 135.245,86.7039 L 135.079,86.6882 L 134.914,86.6722 L 134.912,86.671 L 134.713,86.9807
 L 134.715,86.9819 L 134.798,87.1256 L 134.88,87.2701 L 134.963,87.4154 L 135.046,87.5615 L 135.129,87.7085
 L 135.212,87.8563 L 135.296,88.0049 L 135.379,88.1543 L 135.462,88.3046 L 135.545,88.4557 L 135.628,88.6077
 L 135.711,88.7604 L 135.794,88.914 L 135.877,89.0684 L 135.96,89.2237 L 136.044,89.3798 L 135.739,89.8418
 L 135.563,89.8268 L 135.387,89.8116 L 135.213,89.796 L 135.039,89.7801 L 134.865,89.7639 L 134.693,89.7473
 L 134.521,89.7304 L 134.351,89.7132 L 134.181,89.6957 L 134.011,89.6779 L 133.843,89.6598 L 133.675,89.6414
 L 133.508,89.6227 L 133.342,89.6037 L 133.176,89.5844 L 133.011,89.5648 L 133.01,89.5635 L 132.803,89.8689
 L 132.805,89.8701 L 132.885,90.0156 L 132.965,90.1618 L 133.045,90.3089 L 133.124,90.4568 L 133.204,90.6055
 L 133.284,90.7551 L 133.364,90.9054 L 133.444,91.0566 L 133.524,91.2086 L 133.603,91.3615 L 133.683,91.5152
 L 133.763,91.6697 L 133.843,91.8251 L 133.923,91.9813 L 134.002,92.1383 L 134.082,92.2961 L 133.768,92.7514
 L 133.592,92.7327 L 133.417,92.7137 L 133.242,92.6943 L 133.069,92.6747 L 132.896,92.6547 L 132.724,92.6344
 L 132.553,92.6138 L 132.382,92.593 L 132.213,92.5718 L 132.044,92.5503 L 131.876,92.5286 L 131.708,92.5065
 L 131.542,92.4842 L 131.376,92.4616 L 131.211,92.4388 L 131.047,92.4156 L 131.045,92.4143 L 130.832,92.7152
 L 130.834,92.7165 L 130.911,92.8636 L 130.987,93.0115 L 131.064,93.1603 L 131.14,93.3098 L 131.217,93.4603
 L 131.294,93.6115 L 131.37,93.7636 L 131.447,93.9164 L 131.523,94.0702 L 131.6,94.2247 L 131.676,94.3801
 L 131.753,94.5363 L 131.829,94.6934 L 131.906,94.8512 L 131.982,95.0099 L 132.058,95.1695 L 131.734,95.6179
 L 131.559,95.5954 L 131.384,95.5725 L 131.21,95.5494 L 131.037,95.526 L 130.865,95.5023 L 130.693,95.4783
 L 130.522,95.4541 L 130.352,95.4295 L 130.183,95.4047 L 130.015,95.3796 L 129.847,95.3542 L 129.68,95.3286
 L 129.514,95.3027 L 129.349,95.2765 L 129.185,95.2501 L 129.021,95.2234 L 129.019,95.2221 L 128.8,95.5182
 L 128.802,95.5196 L 128.875,95.6683 L 128.949,95.8178 L 129.022,95.9682 L 129.095,96.1194 L 129.169,96.2715
 L 129.242,96.4243 L 129.315,96.578 L 129.388,96.7325 L 129.462,96.8878 L 129.535,97.044 L 129.608,97.201
 L 129.681,97.3588 L 129.754,97.5175 L 129.827,97.677 L 129.9,97.8373 L 129.973,97.9984 L 129.639,98.4397
 L 129.464,98.4134 L 129.29,98.3868 L 129.117,98.36 L 128.944,98.3329 L 128.772,98.3054 L 128.601,98.2778
 L 128.431,98.2498 L 128.262,98.2216 L 128.093,98.1931 L 127.925,98.1644 L 127.758,98.1354 L 127.592,98.1061
 L 127.427,98.0767 L 127.262,98.0469 L 127.098,98.017 L 126.935,97.9867 L 126.933,97.9854 L 126.708,98.2768
 L 126.71,98.2781 L 126.78,98.4284 L 126.85,98.5795 L 126.92,98.7314 L 126.99,98.8842 L 127.06,99.0378
 L 127.13,99.1922 L 127.2,99.3474 L 127.27,99.5034 L 127.34,99.6603 L 127.409,99.818 L 127.479,99.9766
 L 127.549,100.136 L 127.618,100.296 L 127.688,100.457 L 127.757,100.619 L 127.827,100.782 L 127.483,101.216
 L 127.309,101.186 L 127.136,101.155 L 126.963,101.125 L 126.791,101.094 L 126.62,101.063 L 126.45,101.031
 L 126.28,101 L 126.111,100.968 L 125.943,100.936 L 125.776,100.903 L 125.61,100.871 L 125.444,100.838
 L 125.279,100.805 L 125.115,100.772 L 124.952,100.738 L 124.79,100.704 L 124.788,100.703 L 124.556,100.989
 L 124.558,100.991 L 124.625,101.143 L 124.692,101.295 L 124.759,101.449 L 124.826,101.603 L 124.892,101.758
 L 124.959,101.914 L 125.025,102.07 L 125.092,102.228 L 125.158,102.386 L 125.225,102.546 L 125.291,102.706
 L 125.357,102.866 L 125.423,103.028 L 125.489,103.191 L 125.555,103.354 L 125.621,103.518 L 125.268,103.944
 L 125.095,103.911 L 124.922,103.877 L 124.75,103.842 L 124.579,103.808 L 124.408,103.773 L 124.239,103.738
 L 124.07,103.703 L 123.902,103.667 L 123.735,103.631 L 123.568,103.595 L 123.403,103.559 L 123.238,103.523
 L 123.074,103.486 L 122.911,103.449 L 122.748,103.412 L 122.587,103.375 L 122.585,103.374 L 122.347,103.655
 L 122.349,103.657 L 122.412,103.81 L 122.476,103.964 L 122.539,104.119 L 122.603,104.274 L 122.666,104.431
 L 122.729,104.588 L 122.793,104.746 L 122.856,104.905 L 122.919,105.065 L 122.982,105.225 L 123.044,105.387
 L 123.107,105.549 L 123.17,105.712 L 123.232,105.876 L 123.294,106.04 L 123.357,106.206 L 122.995,106.625
 L 122.822,106.587 L 122.65,106.549 L 122.479,106.511 L 122.309,106.473 L 122.139,106.435 L 121.97,106.396
 L 121.802,106.357 L 121.635,106.318 L 121.468,106.279 L 121.303,106.239 L 121.138,106.199 L 120.974,106.159
 L 120.811,106.119 L 120.649,106.079 L 120.487,106.038 L 120.326,105.998 L 120.324,105.996 L 120.081,106.272
 L 120.082,106.274 L 120.143,106.428 L 120.203,106.584 L 120.263,106.74 L 120.323,106.897 L 120.383,107.055
 L 120.443,107.213 L 120.502,107.373 L 120.562,107.533 L 120.622,107.694 L 120.681,107.856 L 120.74,108.019
 L 120.8,108.182 L 120.859,108.347 L 120.918,108.512 L 120.976,108.678 L 121.035,108.845 L 120.664,109.255
 L 120.492,109.214 L 120.321,109.173 L 120.151,109.131 L 119.981,109.089 L 119.813,109.047 L 119.645,109.005
 L 119.477,108.962 L 119.311,108.919 L 119.146,108.876 L 118.981,108.833 L 118.817,108.79 L 118.654,108.747
 L 118.492,108.703 L 118.33,108.659 L 118.169,108.615 L 118.01,108.571 L 118.008,108.569 L 117.758,108.84
 L 117.76,108.842 L 117.817,108.997 L 117.874,109.154 L 117.93,109.311 L 117.987,109.47 L 118.044,109.629
 L 118.1,109.789 L 118.156,109.949 L 118.212,110.111 L 118.268,110.273 L 118.324,110.436 L 118.38,110.6
 L 118.436,110.765 L 118.491,110.931 L 118.547,111.097 L 118.602,111.264 L 118.657,111.432 L 118.277,111.835
 L 118.106,111.79 L 117.936,111.745 L 117.767,111.7 L 117.598,111.654 L 117.43,111.608 L 117.263,111.562
 L 117.097,111.516 L 116.932,111.47 L 116.767,111.423 L 116.603,111.377 L 116.441,111.33 L 116.278,111.283
 L 116.117,111.236 L 115.957,111.188 L 115.797,111.141 L 115.638,111.093 L 115.636,111.092 L 115.381,111.357
 L 115.382,111.359 L 115.436,111.516 L 115.49,111.674 L 115.543,111.832 L 115.596,111.992 L 115.649,112.152
 L 115.702,112.313 L 115.755,112.475 L 115.808,112.637 L 115.86,112.801 L 115.912,112.965 L 115.965,113.13
 L 116.017,113.296 L 116.069,113.463 L 116.12,113.631 L 116.172,113.799 L 116.223,113.968 L 115.835,114.363
 L 115.665,114.314 L 115.496,114.265 L 115.328,114.216 L 115.16,114.167 L 114.993,114.118 L 114.827,114.068
 L 114.662,114.018 L 114.498,113.968 L 114.334,113.918 L 114.172,113.868 L 114.01,113.818 L 113.849,113.767
 L 113.688,113.717 L 113.529,113.666 L 113.37,113.615 L 113.213,113.564 L 113.211,113.563 L 112.95,113.822
 L 112.951,113.824 L 113.002,113.982 L 113.052,114.141 L 113.101,114.301 L 113.151,114.461 L 113.201,114.622
 L 113.25,114.785 L 113.3,114.948 L 113.349,115.111 L 113.398,115.276 L 113.446,115.441 L 113.495,115.608
 L 113.544,115.775 L 113.592,115.942 L 113.64,116.111 L 113.688,116.281 L 113.736,116.451 L 113.339,116.837
 L 113.17,116.785 L 113.002,116.732 L 112.835,116.679 L 112.668,116.627 L 112.503,116.574 L 112.338,116.521
 L 112.174,116.467 L 112.011,116.414 L 111.848,116.36 L 111.687,116.307 L 111.526,116.253 L 111.366,116.199
 L 111.207,116.145 L 111.049,116.091 L 110.891,116.036 L 110.734,115.982 L 110.733,115.98 L 110.466,116.234
 L 110.468,116.236 L 110.514,116.395 L 110.561,116.555 L 110.607,116.716 L 110.654,116.877 L 110.7,117.04
 L 110.746,117.203 L 110.791,117.367 L 110.837,117.532 L 110.882,117.697 L 110.928,117.864 L 110.973,118.031
 L 111.018,118.199 L 111.062,118.368 L 111.107,118.538 L 111.151,118.708 L 111.195,118.879 L 110.79,119.257
 L 110.622,119.201 L 110.455,119.145 L 110.289,119.088 L 110.124,119.032 L 109.96,118.975 L 109.796,118.919
 L 109.633,118.862 L 109.471,118.805 L 109.31,118.748 L 109.15,118.691 L 108.99,118.634 L 108.831,118.576
 L 108.673,118.519 L 108.516,118.461 L 108.36,118.403 L 108.204,118.346 L 108.203,118.344 L 107.931,118.592
 L 107.932,118.594 L 107.976,118.754 L 108.019,118.915 L 108.062,119.077 L 108.104,119.239 L 108.147,119.403
 L 108.189,119.567 L 108.232,119.732 L 108.274,119.897 L 108.315,120.064 L 108.357,120.231 L 108.399,120.399
 L 108.44,120.568 L 108.481,120.738 L 108.522,120.909 L 108.562,121.08 L 108.602,121.252 L 108.19,121.621
 L 108.023,121.561 L 107.857,121.501 L 107.693,121.442 L 107.529,121.382 L 107.365,121.322 L 107.203,121.262
 L 107.041,121.201 L 106.881,121.141 L 106.721,121.08 L 106.562,121.02 L 106.403,120.959 L 106.246,120.898
 L 106.089,120.837 L 105.933,120.776 L 105.778,120.715 L 105.624,120.654 L 105.623,120.653 L 105.345,120.895
 L 105.347,120.897 L 105.387,121.058 L 105.426,121.219 L 105.466,121.382 L 105.505,121.545 L 105.544,121.71
 L 105.583,121.875 L 105.621,122.04 L 105.66,122.207 L 105.698,122.374 L 105.736,122.543 L 105.774,122.712
 L 105.811,122.881 L 105.849,123.052 L 105.886,123.223 L 105.923,123.396 L 105.959,123.569 L 105.539,123.928
 L 105.373,123.865 L 105.209,123.802 L 105.046,123.738 L 104.883,123.675 L 104.721,123.611 L 104.56,123.548
 L 104.4,123.484 L 104.24,123.42 L 104.082,123.356 L 103.924,123.292 L 103.767,123.228 L 103.611,123.164
 L 103.456,123.1 L 103.301,123.035 L 103.147,122.971 L 102.995,122.906 L 102.993,122.905 L 102.711,123.141
 L 102.712,123.143 L 102.748,123.305 L 102.784,123.467 L 102.82,123.631 L 102.856,123.795 L 102.892,123.96
 L 102.927,124.126 L 102.962,124.292 L 102.997,124.46 L 103.031,124.628 L 103.066,124.797 L 103.1,124.967
 L 103.134,125.137 L 103.167,125.309 L 103.201,125.481 L 103.234,125.654 L 103.267,125.828 L 102.838,126.178
 L 102.675,126.111 L 102.512,126.044 L 102.35,125.978 L 102.188,125.911 L 102.028,125.844 L 101.868,125.776
 L 101.709,125.709 L 101.551,125.642 L 101.394,125.575 L 101.238,125.507 L 101.082,125.44 L 100.928,125.372
 L 100.774,125.305 L 100.621,125.237 L 100.468,125.169 L 100.317,125.102 L 100.316,125.1 L 100.028,125.33
 L 100.029,125.332 L 100.062,125.494 L 100.095,125.658 L 100.127,125.822 L 100.159,125.987 L 100.191,126.152
 L 100.223,126.319 L 100.254,126.486 L 100.286,126.654 L 100.317,126.823 L 100.347,126.993 L 100.378,127.164
 L 100.408,127.335 L 100.438,127.507 L 100.468,127.68 L 100.497,127.853 L 100.526,128.028 L 100.09,128.369
 L 99.9279,128.299 L 99.7664,128.228 L 99.6058,128.158 L 99.446,128.087 L 99.287,128.017 L 99.1288,127.946
 L 98.9715,127.876 L 98.815,127.805 L 98.6593,127.734 L 98.5045,127.664 L 98.3505,127.593 L 98.1973,127.522
 L 98.0449,127.451 L 97.8934,127.38 L 97.7426,127.309 L 97.5927,127.238 L 97.5914,127.236 L 97.2988,127.46
 L 97.3001,127.462 L 97.3295,127.625 L 97.3586,127.789 L 97.3874,127.954 L 97.416,128.12 L 97.4443,128.286
 L 97.4724,128.453 L 97.5003,128.621 L 97.5278,128.79 L 97.5551,128.96 L 97.5822,129.13 L 97.6089,129.301
 L 97.6354,129.473 L 97.6616,129.646 L 97.6875,129.819 L 97.7132,129.993 L 97.7385,130.168 L 97.2954,130.5
 L 97.1347,130.426 L 96.9747,130.352 L 96.8157,130.279 L 96.6574,130.205 L 96.5,130.131 L 96.3434,130.057
 L 96.1876,129.983 L 96.0327,129.909 L 95.8786,129.835 L 95.7253,129.761 L 95.5728,129.686 L 95.4212,129.612
 L 95.2704,129.538 L 95.1204,129.464 L 94.9712,129.39 L 94.8229,129.316 L 94.8216,129.314 L 94.5242,129.531
 L 94.5255,129.533 L 94.5513,129.697 L 94.5769,129.862 L 94.6022,130.027 L 94.6272,130.193 L 94.6519,130.36
 L 94.6764,130.528 L 94.7006,130.696 L 94.7245,130.866 L 94.7481,131.036 L 94.7715,131.207 L 94.7945,131.378
 L 94.8173,131.551 L 94.8398,131.724 L 94.862,131.898 L 94.8838,132.073 L 94.9054,132.248 L 94.4552,132.57
 L 94.2961,132.493 L 94.1378,132.416 L 93.9804,132.338 L 93.8237,132.261 L 93.668,132.184 L 93.513,132.107
 L 93.3589,132.029 L 93.2056,131.952 L 93.0531,131.874 L 92.9014,131.797 L 92.7506,131.72 L 92.6006,131.642
 L 92.4514,131.565 L 92.3031,131.487 L 92.1556,131.41 L 92.0089,131.333 L 92.0076,131.331 L 91.7056,131.542
 L 91.7069,131.544 L 91.7291,131.708 L 91.7511,131.873 L 91.7728,132.039 L 91.7942,132.206 L 91.8154,132.373
 L 91.8362,132.541 L 91.8568,132.71 L 91.877,132.88 L 91.897,133.051 L 91.9166,133.222 L 91.936,133.394
 L 91.955,133.567 L 91.9738,133.741 L 91.9922,133.915 L 92.0103,134.09 L 92.028,134.266 L 91.571,134.578
 L 91.4136,134.498 L 91.257,134.417 L 91.1013,134.337 L 90.9464,134.256 L 90.7923,134.175 L 90.639,134.095
 L 90.4866,134.014 L 90.335,133.933 L 90.1842,133.853 L 90.0343,133.772 L 89.8851,133.691 L 89.7369,133.611
 L 89.5894,133.53 L 89.4428,133.45 L 89.297,133.369 L 89.152,133.289 L 89.1507,133.287 L 88.8442,133.491
 L 88.8455,133.493 L 88.8642,133.658 L 88.8826,133.823 L 88.9007,133.99 L 88.9185,134.157 L 88.936,134.325
 L 88.9532,134.493 L 88.9702,134.663 L 88.9867,134.833 L 89.003,135.004 L 89.019,135.176 L 89.0346,135.348
 L 89.0499,135.521 L 89.0648,135.695 L 89.0795,135.87 L 89.0938,136.046 L 89.1078,136.222 L 88.6441,136.524
 L 88.4885,136.44 L 88.3337,136.356 L 88.1797,136.272 L 88.0266,136.188 L 87.8743,136.104 L 87.7228,136.02
 L 87.5721,135.936 L 87.4223,135.852 L 87.2733,135.769 L 87.1251,135.685 L 86.9778,135.601 L 86.8313,135.517
 L 86.6856,135.433 L 86.5407,135.35 L 86.3967,135.266 L 86.2535,135.182 L 86.2523,135.18 L 85.9415,135.378
 L 85.9427,135.38 L 85.9578,135.545 L 85.9726,135.711 L 85.9872,135.878 L 86.0013,136.045 L 86.0152,136.214
 L 86.0288,136.382 L 86.042,136.552 L 86.0549,136.723 L 86.0675,136.894 L 86.0798,137.066 L 86.0917,137.239
 L 86.1032,137.412 L 86.1144,137.587 L 86.1253,137.762 L 86.1358,137.937 L 86.146,138.114 L 85.6759,138.406
 L 85.5221,138.319 L 85.3692,138.231 L 85.217,138.144 L 85.0658,138.057 L 84.9153,137.97 L 84.7656,137.883
 L 84.6168,137.795 L 84.4689,137.708 L 84.3217,137.621 L 84.1754,137.534 L 84.0299,137.447 L 83.8852,137.36
 L 83.7414,137.273 L 83.5984,137.186 L 83.4562,137.1 L 83.3148,137.013 L 83.3136,137.011 L 82.9986,137.202
 L 82.9998,137.204 L 83.0113,137.369 L 83.0226,137.536 L 83.0335,137.703 L 83.0441,137.87 L 83.0543,138.039
 L 83.0642,138.208 L 83.0738,138.378 L 83.083,138.549 L 83.0919,138.72 L 83.1004,138.893 L 83.1086,139.066
 L 83.1164,139.239 L 83.1239,139.414 L 83.1309,139.589 L 83.1376,139.765 L 83.144,139.942 L 82.6678,140.224
 L 82.5159,140.133 L 82.3649,140.042 L 82.2146,139.952 L 82.0653,139.861 L 81.9167,139.771 L 81.769,139.681
 L 81.6221,139.59 L 81.476,139.5 L 81.3308,139.41 L 81.1864,139.319 L 81.0428,139.229 L 80.9001,139.139
 L 80.7581,139.049 L 80.617,138.959 L 80.4767,138.87 L 80.3372,138.78 L 80.3361,138.778 L 80.0171,138.962
 L 80.0182,138.964 L 80.0262,139.13 L 80.0338,139.296 L 80.0412,139.463 L 80.0481,139.631 L 80.0547,139.8
 L 80.061,139.969 L 80.0669,140.139 L 80.0724,140.31 L 80.0776,140.482 L 80.0824,140.654 L 80.0868,140.827
 L 80.0909,141.001 L 80.0945,141.176 L 80.0978,141.351 L 80.1007,141.527 L 80.1033,141.704 L 79.6211,141.976
 L 79.4712,141.882 L 79.3221,141.788 L 79.1739,141.694 L 79.0265,141.601 L 78.88,141.507 L 78.7342,141.413
 L 78.5893,141.32 L 78.4453,141.226 L 78.302,141.133 L 78.1596,141.04 L 78.018,140.947 L 77.8772,140.853
 L 77.7372,140.76 L 77.5981,140.667 L 77.4598,140.575 L 77.3223,140.482 L 77.3212,140.48 L 76.9982,140.657
 L 76.9993,140.659 L 77.0037,140.825 L 77.0078,140.992 L 77.0115,141.159 L 77.0148,141.327 L 77.0178,141.496
 L 77.0204,141.665 L 77.0226,141.835 L 77.0244,142.006 L 77.0259,142.178 L 77.027,142.35 L 77.0277,142.524
 L 77.028,142.698 L 77.0279,142.872 L 77.0274,143.048 L 77.0265,143.224 L 77.0252,143.401 L 76.5372,143.662
 L 76.3894,143.565 L 76.2424,143.467 L 76.0963,143.371 L 75.9509,143.274 L 75.8064,143.177 L 75.6628,143.08
 L 75.5199,142.984 L 75.3779,142.887 L 75.2367,142.791 L 75.0963,142.694 L 74.9567,142.598 L 74.818,142.502
 L 74.6801,142.406 L 74.543,142.31 L 74.4067,142.214 L 74.2712,142.119 L 74.2702,142.117 L 73.9435,142.287
 L 73.9445,142.289 L 73.9453,142.455 L 73.9458,142.621 L 73.9459,142.789 L 73.9456,142.957 L 73.9449,143.125
 L 73.9439,143.295 L 73.9424,143.465 L 73.9406,143.636 L 73.9383,143.808 L 73.9357,143.98 L 73.9326,144.153
 L 73.9292,144.327 L 73.9253,144.502 L 73.921,144.677 L 73.9163,144.853 L 73.9112,145.03 L 73.4178,145.281
 L 73.2721,145.18 L 73.1272,145.08 L 72.9832,144.98 L 72.84,144.88 L 72.6976,144.78 L 72.556,144.68
 L 72.4153,144.581 L 72.2754,144.481 L 72.1363,144.382 L 71.998,144.282 L 71.8606,144.183 L 71.7239,144.084
 L 71.5881,143.985 L 71.4531,143.886 L 71.319,143.788 L 71.1856,143.689 L 71.1846,143.687 L 70.8543,143.85
 L 70.8553,143.852 L 70.8525,144.018 L 70.8494,144.185 L 70.8459,144.352 L 70.8419,144.52 L 70.8376,144.689
 L 70.8329,144.858 L 70.8278,145.028 L 70.8222,145.199 L 70.8163,145.371 L 70.8099,145.543 L 70.8031,145.716
 L 70.7959,145.89 L 70.7883,146.064 L 70.7802,146.24 L 70.7717,146.415 L 70.7628,146.592 L 70.264,146.832
 L 70.1205,146.728 L 69.9779,146.625 L 69.836,146.522 L 69.695,146.419 L 69.5548,146.316 L 69.4155,146.213
 L 69.2769,146.111 L 69.1392,146.008 L 69.0023,145.906 L 68.8662,145.803 L 68.7309,145.701 L 68.5965,145.599
 L 68.4628,145.497 L 68.33,145.395 L 68.198,145.294 L 68.0667,145.192 L 68.0658,145.19 L 67.732,145.346
 L 67.733,145.348 L 67.7266,145.514 L 67.7199,145.681 L 67.7128,145.848 L 67.7052,146.016 L 67.6973,146.184
 L 67.6889,146.354 L 67.6801,146.524 L 67.6709,146.694 L 67.6612,146.866 L 67.6511,147.038 L 67.6406,147.211
 L 67.6296,147.384 L 67.6182,147.559 L 67.6064,147.734 L 67.5941,147.909 L 67.5814,148.086 L 67.0775,148.315
 L 66.9363,148.208 L 66.7959,148.102 L 66.6563,147.996 L 66.5176,147.89 L 66.3796,147.784 L 66.2425,147.678
 L 66.1062,147.572 L 65.9707,147.467 L 65.8361,147.361 L 65.7022,147.256 L 65.5692,147.151 L 65.437,147.046
 L 65.3056,146.941 L 65.175,146.837 L 65.0452,146.732 L 64.9162,146.628 L 64.9153,146.626 L 64.5782,146.775
 L 64.5791,146.777 L 64.5692,146.942 L 64.5589,147.109 L 64.5481,147.276 L 64.537,147.443 L 64.5254,147.612
 L 64.5133,147.781 L 64.5009,147.951 L 64.4879,148.121 L 64.4746,148.292 L 64.4608,148.464 L 64.4465,148.637
 L 64.4318,148.81 L 64.4167,148.984 L 64.4011,149.159 L 64.385,149.334 L 64.3684,149.51 L 63.8598,149.728
 L 63.7209,149.619 L 63.5828,149.509 L 63.4456,149.4 L 63.3091,149.291 L 63.1735,149.182 L 63.0387,149.074
 L 62.9047,148.965 L 62.7716,148.857 L 62.6392,148.748 L 62.5077,148.64 L 62.3769,148.532 L 62.247,148.425
 L 62.1179,148.317 L 61.9895,148.21 L 61.862,148.102 L 61.7353,147.995 L 61.7345,147.993 L 61.3943,148.135
 L 61.3951,148.137 L 61.3817,148.302 L 61.3678,148.468 L 61.3534,148.635 L 61.3386,148.802 L 61.3234,148.97
 L 61.3077,149.139 L 61.2916,149.309 L 61.275,149.479 L 61.2579,149.65 L 61.2404,149.821 L 61.2224,149.994
 L 61.204,150.166 L 61.1851,150.34 L 61.1657,150.514 L 61.1458,150.689 L 61.1255,150.865 L 60.6123,151.072
 L 60.4758,150.96 L 60.3401,150.847 L 60.2052,150.735 L 60.0712,150.623 L 59.9379,150.511 L 59.8055,150.4
 L 59.6739,150.288 L 59.5431,150.177 L 59.4131,150.066 L 59.2839,149.955 L 59.1555,149.844 L 59.028,149.734
 L 58.9012,149.624 L 58.7753,149.513 L 58.6501,149.404 L 58.5257,149.294 L 58.5249,149.292 L 58.1817,149.426
 L 58.1825,149.428 L 58.1655,149.593 L 58.148,149.759 L 58.1301,149.925 L 58.1117,150.092 L 58.0928,150.26
 L 58.0735,150.428 L 58.0537,150.597 L 58.0334,150.767 L 58.0127,150.937 L 57.9915,151.109 L 57.9698,151.28
 L 57.9476,151.453 L 57.925,151.626 L 57.9018,151.8 L 57.8782,151.974 L 57.8541,152.15 L 57.3365,152.345
 L 57.2025,152.23 L 57.0692,152.115 L 56.9368,152 L 56.8052,151.885 L 56.6744,151.77 L 56.5444,151.656
 L 56.4153,151.542 L 56.2869,151.428 L 56.1593,151.314 L 56.0326,151.2 L 55.9066,151.087 L 55.7815,150.973
 L 55.6571,150.86 L 55.5336,150.748 L 55.4108,150.635 L 55.2888,150.523 L 55.2881,150.52 L 54.9421,150.647
 L 54.9428,150.649 L 54.9222,150.814 L 54.9012,150.979 L 54.8797,151.145 L 54.8576,151.312 L 54.8352,151.479
 L 54.8122,151.647 L 54.7888,151.815 L 54.7648,151.985 L 54.7404,152.155 L 54.7155,152.325 L 54.6902,152.497
 L 54.6643,152.669 L 54.6379,152.841 L 54.611,153.015 L 54.5836,153.189 L 54.5557,153.363 L 54.034,153.548
 L 53.9025,153.43 L 53.7718,153.312 L 53.6419,153.194 L 53.5128,153.076 L 53.3845,152.959 L 53.257,152.841
 L 53.1303,152.724 L 53.0045,152.608 L 52.8794,152.491 L 52.7551,152.375 L 52.6316,152.259 L 52.5089,152.143
 L 52.3871,152.027 L 52.266,151.911 L 52.1457,151.796 L 52.0261,151.681 L 52.0254,151.679 L 51.6768,151.798
 L 51.6775,151.8 L 51.6534,151.964 L 51.6287,152.129 L 51.6036,152.295 L 51.578,152.461 L 51.552,152.627
 L 51.5254,152.795 L 51.4983,152.963 L 51.4707,153.132 L 51.4427,153.301 L 51.4141,153.471 L 51.385,153.642
 L 51.3554,153.813 L 51.3253,153.985 L 51.2947,154.158 L 51.2635,154.331 L 51.2318,154.505 L 50.7063,154.679
 L 50.5774,154.558 L 50.4492,154.437 L 50.3219,154.316 L 50.1954,154.196 L 50.0697,154.076 L 49.9447,153.956
 L 49.8206,153.836 L 49.6973,153.716 L 49.5748,153.597 L 49.453,153.478 L 49.3321,153.359 L 49.2119,153.241
 L 49.0926,153.122 L 48.974,153.004 L 48.8562,152.887 L 48.7392,152.769 L 48.7385,152.767 L 48.3874,152.879
 L 48.3881,152.881 L 48.3604,153.044 L 48.3322,153.208 L 48.3036,153.373 L 48.2744,153.539 L 48.2447,153.705
 L 48.2145,153.872 L 48.1838,154.039 L 48.1526,154.207 L 48.1209,154.376 L 48.0887,154.545 L 48.0559,154.715
 L 48.0226,154.886 L 47.9888,155.058 L 47.9544,155.23 L 47.9195,155.402 L 47.8841,155.575 L 47.355,155.737
 L 47.2287,155.614 L 47.1032,155.49 L 46.9785,155.367 L 46.8546,155.244 L 46.7315,155.121 L 46.6092,154.998
 L 46.4877,154.876 L 46.367,154.754 L 46.247,154.632 L 46.1279,154.51 L 46.0096,154.389 L 45.892,154.268
 L 45.7752,154.147 L 45.6592,154.026 L 45.544,153.906 L 45.4296,153.786 L 45.4289,153.784 L 45.0755,153.888
 L 45.0761,153.89 L 45.0449,154.053 L 45.0132,154.216 L 44.981,154.38 L 44.9482,154.545 L 44.915,154.711
 L 44.8812,154.877 L 44.8469,155.044 L 44.8121,155.211 L 44.7767,155.379 L 44.7408,155.548 L 44.7044,155.717
 L 44.6674,155.887 L 44.6299,156.057 L 44.5918,156.229 L 44.5532,156.401 L 44.5141,156.573 L 43.9816,156.723
 L 43.858,156.597 L 43.7352,156.471 L 43.6132,156.345 L 43.492,156.219 L 43.3715,156.093 L 43.2519,155.968
 L 43.1331,155.843 L 43.015,155.719 L 42.8978,155.594 L 42.7813,155.47 L 42.6656,155.346 L 42.5507,155.222
 L 42.4365,155.099 L 42.3232,154.976 L 42.2106,154.853 L 42.0987,154.731 L 42.0982,154.729 L 41.7425,154.825
 L 41.7431,154.827 L 41.7084,154.989 L 41.6732,155.152 L 41.6374,155.316 L 41.6011,155.48 L 41.5643,155.644
 L 41.5269,155.81 L 41.489,155.976 L 41.4506,156.142 L 41.4116,156.309 L 41.3721,156.477 L 41.332,156.646
 L 41.2914,156.815 L 41.2502,156.985 L 41.2085,157.155 L 41.1662,157.326 L 41.1233,157.498 L 40.5876,157.636
 L 40.4668,157.507 L 40.3468,157.378 L 40.2275,157.25 L 40.1091,157.122 L 39.9914,156.993 L 39.8745,156.866
 L 39.7584,156.738 L 39.643,156.611 L 39.5285,156.484 L 39.4147,156.357 L 39.3017,156.231 L 39.1895,156.105
 L 39.078,155.979 L 38.9673,155.854 L 38.8574,155.728 L 38.7483,155.604 L 38.7478,155.601 L 38.3901,155.69
 L 38.3907,155.692 L 38.3525,155.854 L 38.3137,156.016 L 38.2744,156.178 L 38.2346,156.342 L 38.1942,156.505
 L 38.1533,156.67 L 38.1118,156.835 L 38.0698,157.001 L 38.0272,157.167 L 37.9841,157.334 L 37.9404,157.502
 L 37.8961,157.67 L 37.8513,157.839 L 37.8059,158.008 L 37.7599,158.178 L 37.7133,158.349 L 37.1748,158.476
 L 37.0568,158.344 L 36.9396,158.213 L 36.8231,158.082 L 36.7074,157.951 L 36.5926,157.82 L 36.4784,157.69
 L 36.3651,157.56 L 36.2526,157.43 L 36.1408,157.301 L 36.0298,157.172 L 35.9195,157.043 L 35.81,156.915
 L 35.7013,156.786 L 35.5934,156.659 L 35.4862,156.531 L 35.3798,156.404 L 35.3793,156.402 L 35.0198,156.483
 L 35.0203,156.485 L 34.9786,156.645 L 34.9364,156.806 L 34.8936,156.968 L 34.8503,157.131 L 34.8064,157.294
 L 34.7619,157.457 L 34.7169,157.621 L 34.6713,157.786 L 34.6251,157.952 L 34.5784,158.118 L 34.5311,158.284
 L 34.4832,158.451 L 34.4347,158.619 L 34.3857,158.787 L 34.336,158.956 L 34.2858,159.126 L 33.7446,159.242
 L 33.6295,159.107 L 33.5151,158.973 L 33.4015,158.84 L 33.2887,158.707 L 33.1767,158.574 L 33.0654,158.441
 L 32.9549,158.308 L 32.8452,158.176 L 32.7362,158.045 L 32.628,157.913 L 32.5206,157.782 L 32.4139,157.651
 L 32.308,157.521 L 32.2028,157.391 L 32.0984,157.261 L 31.9948,157.131 L 31.9943,157.129 L 31.6332,157.202
 L 31.6337,157.204 L 31.5885,157.364 L 31.5428,157.524 L 31.4965,157.685 L 31.4497,157.846 L 31.4023,158.008
 L 31.3543,158.171 L 31.3058,158.334 L 31.2566,158.498 L 31.2069,158.662 L 31.1566,158.827 L 31.1057,158.993
 L 31.0542,159.159 L 31.0021,159.326 L 30.9494,159.493 L 30.8961,159.661 L 30.8423,159.829 L 30.2987,159.933
 L 30.1865,159.796 L 30.0751,159.66 L 29.9644,159.524 L 29.8545,159.388 L 29.7453,159.253 L 29.637,159.118
 L 29.5294,158.983 L 29.4225,158.849 L 29.3164,158.715 L 29.2111,158.581 L 29.1065,158.447 L 29.0027,158.314
 L 28.8996,158.182 L 28.7973,158.049 L 28.6957,157.917 L 28.5948,157.785 L 28.5944,157.783 L 28.2318,157.849
 L 28.2322,157.851 L 28.1837,158.009 L 28.1345,158.168 L 28.0848,158.328 L 28.0345,158.489 L 27.9836,158.649
 L 27.9321,158.811 L 27.88,158.973 L 27.8273,159.136 L 27.7741,159.299 L 27.7202,159.463 L 27.6658,159.627
 L 27.6107,159.792 L 27.555,159.958 L 27.4988,160.124 L 27.4419,160.291 L 27.3844,160.458 L 26.8387,160.55
 L 26.7295,160.411 L 26.621,160.272 L 26.5133,160.134 L 26.4063,159.996 L 26.3001,159.858 L 26.1947,159.721
 L 26.09,159.583 L 25.9861,159.447 L 25.8829,159.31 L 25.7805,159.174 L 25.6788,159.039 L 25.5779,158.904
 L 25.4777,158.769 L 25.3783,158.634 L 25.2795,158.5 L 25.1816,158.366 L 25.1812,158.364 L 24.8173,158.421
 L 24.8177,158.423 L 24.7657,158.581 L 24.7131,158.739 L 24.6599,158.898 L 24.6062,159.057 L 24.5518,159.217
 L 24.4968,159.377 L 24.4413,159.538 L 24.3851,159.699 L 24.3283,159.862 L 24.271,160.024 L 24.213,160.187
 L 24.1544,160.351 L 24.0951,160.515 L 24.0353,160.68 L 23.9748,160.846 L 23.9137,161.012 L 23.3662,161.092
 L 23.26,160.951 L 23.1545,160.81 L 23.0498,160.669 L 22.9459,160.528 L 22.8427,160.388 L 22.7402,160.249
 L 22.6385,160.11 L 22.5376,159.971 L 22.4374,159.832 L 22.3379,159.694 L 22.2392,159.556 L 22.1412,159.419
 L 22.0439,159.282 L 21.9474,159.145 L 21.8516,159.009 L 21.7566,158.873 L 21.7563,158.871 L 21.3912,158.92
 L 21.3915,158.922 L 21.3361,159.079 L 21.2801,159.236 L 21.2236,159.393 L 21.1664,159.551 L 21.1086,159.71
 L 21.0502,159.869 L 20.9912,160.028 L 20.9315,160.189 L 20.8713,160.35 L 20.8104,160.511 L 20.7489,160.673
 L 20.6867,160.835 L 20.624,160.998 L 20.5606,161.162 L 20.4965,161.326 L 20.4319,161.49 L 19.8828,161.559
 L 19.7796,161.415 L 19.6772,161.272 L 19.5756,161.129 L 19.4747,160.986 L 19.3746,160.844 L 19.2751,160.702
 L 19.1765,160.561 L 19.0786,160.42 L 18.9814,160.279 L 18.8849,160.139 L 18.7892,159.999 L 18.6942,159.86
 L 18.5999,159.72 L 18.5064,159.582 L 18.4135,159.443 L 18.3214,159.305 L 18.3212,159.303 L 17.9551,159.345
 L 17.9554,159.347 L 17.8966,159.502 L 17.8373,159.658 L 17.7773,159.814 L 17.7167,159.971 L 17.6555,160.128
 L 17.5937,160.286 L 17.5312,160.444 L 17.4682,160.603 L 17.4044,160.763 L 17.3401,160.923 L 17.2751,161.083
 L 17.2095,161.244 L 17.1432,161.406 L 17.0763,161.568 L 17.0087,161.731 L 16.9405,161.894 L 16.3901,161.951
 L 16.2901,161.805 L 16.1908,161.659 L 16.0923,161.514 L 15.9945,161.369 L 15.8974,161.225 L 15.8011,161.081
 L 15.7055,160.938 L 15.6106,160.794 L 15.5165,160.652 L 15.4231,160.509 L 15.3304,160.367 L 15.2384,160.226
 L 15.1472,160.085 L 15.0567,159.944 L 14.9669,159.804 L 14.8778,159.664 L 14.8776,159.662 L 14.5107,159.695
 L 14.5109,159.698 L 14.4488,159.851 L 14.3861,160.006 L 14.3228,160.161 L 14.2588,160.316 L 14.1942,160.472
 L 14.129,160.628 L 14.0632,160.785 L 13.9967,160.943 L 13.9295,161.101 L 13.8617,161.26 L 13.7933,161.419
 L 13.7242,161.578 L 13.6545,161.738 L 13.5841,161.899 L 13.513,162.06 L 13.4413,162.222 L 12.8897,162.267
 L 12.7929,162.119 L 12.6968,161.971 L 12.6014,161.824 L 12.5068,161.677 L 12.4128,161.531 L 12.3197,161.385
 L 12.2272,161.239 L 12.1354,161.094 L 12.0444,160.949 L 11.9541,160.805 L 11.8645,160.661 L 11.7756,160.518
 L 11.6874,160.375 L 11.6,160.232 L 11.5132,160.09 L 11.4272,159.948 L 11.427,159.946 L 11.0595,159.971
 L 11.0596,159.974 L 10.9942,160.126 L 10.9282,160.279 L 10.8616,160.433 L 10.7943,160.587 L 10.7263,160.741
 L 10.6577,160.896 L 10.5885,161.052 L 10.5186,161.208 L 10.4481,161.364 L 10.3769,161.521 L 10.305,161.679
 L 10.2325,161.837 L 10.1593,161.996 L 10.0855,162.155 L 10.011,162.314 L 9.93579,162.474 L 9.38339,162.507
 L 9.28976,162.357 L 9.19687,162.207 L 9.10469,162.058 L 9.01324,161.909 L 8.9225,161.761 L 8.83247,161.613
 L 8.74318,161.466 L 8.65459,161.318 L 8.5667,161.172 L 8.47954,161.026 L 8.39305,160.88 L 8.3073,160.734
 L 8.22223,160.589 L 8.13786,160.445 L 8.05418,160.301 L 7.97121,160.157 L 7.9711,160.155 L 7.6031,160.173
 L 7.60321,160.175 L 7.53456,160.326 L 7.46524,160.478 L 7.39531,160.63 L 7.32469,160.782 L 7.25343,160.935
 L 7.18152,161.089 L 7.10895,161.243 L 7.03571,161.397 L 6.96179,161.552 L 6.88724,161.708 L 6.81198,161.864
 L 6.73607,162.02 L 6.65948,162.177 L 6.58221,162.335 L 6.50427,162.492 L 6.42564,162.651 L 5.87267,162.672
 L 5.7823,162.52 L 5.69266,162.368 L 5.60373,162.217 L 5.5155,162.066 L 5.42799,161.916 L 5.34119,161.766
 L 5.2551,161.617 L 5.16969,161.468 L 5.08501,161.319 L 5.00101,161.171 L 4.91771,161.023 L 4.8351,160.876
 L 4.75317,160.73 L 4.67195,160.583 L 4.5914,160.437 L 4.51155,160.292 L 4.51149,160.29 L 4.14319,160.3
 L 4.14325,160.302 L 4.07135,160.451 L 3.99879,160.601 L 3.92558,160.752 L 3.85168,160.903 L 3.77715,161.054
 L 3.70193,161.206 L 3.62605,161.359 L 3.5495,161.511 L 3.47226,161.665 L 3.39435,161.819 L 3.31575,161.973
 L 3.23648,162.128 L 3.15652,162.283 L 3.07588,162.439 L 2.99454,162.595 L 2.91251,162.752 L 2.35921,162.761
 L 2.27216,162.607 L 2.18579,162.453 L 2.10014,162.3 L 2.01521,162.148 L 1.93095,161.995 L 1.84741,161.844
 L 1.76456,161.693 L 1.6824,161.542 L 1.60092,161.391 L 1.52016,161.242 L 1.44005,161.092 L 1.36066,160.943
 L 1.28192,160.795 L 1.20387,160.647 L 1.1265,160.499 L 1.04979,160.352 L 1.04977,160.35 L 0.681351,160.352
 L 0.681366,160.354 L 0.606247,160.502 L 0.530472,160.65 L 0.454025,160.799 L 0.376892,160.948 L 0.299103,161.098
 L 0.220627,161.249 L 0.141479,161.399 L 0.0616302,161.55 L -0.0188904,161.702 L -0.100098,161.854 L -0.182007,162.007
 L -0.264603,162.16 L -0.347885,162.313 L -0.431885,162.467 L -0.516586,162.622 L -0.601959,162.777 L -1.15533,162.774
 L -1.23904,162.618 L -1.32207,162.463 L -1.40439,162.308 L -1.48602,162.153 L -1.56696,161.999 L -1.64722,161.846
 L -1.72678,161.693 L -1.80566,161.54 L -1.88388,161.388 L -1.9614,161.237 L -2.03825,161.086 L -2.11441,160.935
 L -2.18993,160.785 L -2.26476,160.635 L -2.33894,160.486 L -2.41245,160.337 L -2.41241,160.335 L -2.78078,160.329
 L -2.78082,160.331 L -2.85912,160.478 L -2.93808,160.624 L -3.01772,160.771 L -3.09805,160.919 L -3.17906,161.067
 L -3.26077,161.216 L -3.34315,161.365 L -3.42625,161.514 L -3.51004,161.664 L -3.59451,161.814 L -3.67969,161.965
 L -3.76558,162.116 L -3.85216,162.268 L -3.93945,162.42 L -4.02747,162.573 L -4.11618,162.726 L -4.66936,162.711
 L -4.74968,162.553 L -4.82933,162.396 L -4.90829,162.24 L -4.98657,162.083 L -5.06416,161.928 L -5.1411,161.773
 L -5.21733,161.618 L -5.29291,161.464 L -5.36781,161.31 L -5.44205,161.157 L -5.51561,161.004 L -5.58852,160.852
 L -5.66077,160.7 L -5.73235,160.549 L -5.8033,160.398 L -5.87358,160.248 L -5.8735,160.246 L -6.24165,160.232
 L -6.24174,160.234 L -6.32317,160.379 L -6.40529,160.523 L -6.48808,160.669 L -6.57158,160.815 L -6.65576,160.961
 L -6.74066,161.108 L -6.82625,161.255 L -6.91254,161.403 L -6.99954,161.551 L -7.08725,161.699 L -7.17566,161.848
 L -7.2648,161.997 L -7.35463,162.147 L -7.44519,162.297 L -7.53648,162.448 L -7.62846,162.599 L -8.1812,162.572
 L -8.2581,162.413 L -8.33434,162.254 L -8.40991,162.096 L -8.48479,161.938 L -8.55901,161.781 L -8.63257,161.624
 L -8.70544,161.468 L -8.77768,161.312 L -8.84924,161.157 L -8.92015,161.002 L -8.99042,160.847 L -9.06001,160.694
 L -9.12897,160.54 L -9.19727,160.388 L -9.26494,160.235 L -9.33195,160.084 L -9.33183,160.082 L -9.6996,160.06
 L -9.69974,160.062 L -9.78427,160.205 L -9.86949,160.348 L -9.95541,160.491 L -10.042,160.635 L -10.1294,160.78
 L -10.2174,160.925 L -10.3062,161.07 L -10.3956,161.216 L -10.4858,161.362 L -10.5767,161.508 L -10.6683,161.655
 L -10.7606,161.803 L -10.8537,161.951 L -10.9475,162.099 L -11.042,162.247 L -11.1372,162.396 L -11.6892,162.358
 L -11.7627,162.197 L -11.8355,162.036 L -11.9076,161.876 L -11.9791,161.717 L -12.0499,161.558 L -12.12,161.4
 L -12.1895,161.242 L -12.2584,161.085 L -12.3266,160.928 L -12.3941,160.772 L -12.461,160.616 L -12.5273,160.461
 L -12.5929,160.306 L -12.6579,160.152 L -12.7223,159.998 L -12.786,159.845 L -12.7858,159.843 L -13.153,159.813
 L -13.1532,159.815 L -13.2408,159.956 L -13.3291,160.097 L -13.4181,160.239 L -13.5078,160.381 L -13.5983,160.524
 L -13.6894,160.667 L -13.7812,160.81 L -13.8738,160.954 L -13.9672,161.098 L -14.0612,161.242 L -14.1559,161.387
 L -14.2514,161.533 L -14.3477,161.678 L -14.4446,161.825 L -14.5423,161.971 L -14.6407,162.118 L -15.1918,162.067
 L -15.2618,161.905 L -15.3311,161.743 L -15.3997,161.582 L -15.4677,161.421 L -15.5351,161.26 L -15.6018,161.101
 L -15.6679,160.941 L -15.7333,160.783 L -15.7981,160.624 L -15.8623,160.467 L -15.9258,160.309 L -15.9887,160.153
 L -16.051,159.997 L -16.1126,159.841 L -16.1737,159.686 L -16.2341,159.532 L -16.2338,159.529 L -16.6003,159.492
 L -16.6006,159.494 L -16.6912,159.633 L -16.7825,159.772 L -16.8745,159.912 L -16.9673,160.052 L -17.0608,160.193
 L -17.155,160.334 L -17.2499,160.475 L -17.3456,160.617 L -17.442,160.759 L -17.5391,160.901 L -17.637,161.044
 L -17.7356,161.187 L -17.835,161.331 L -17.9351,161.475 L -18.0359,161.619 L -18.1375,161.764 L -18.6873,161.702
 L -18.7537,161.538 L -18.8195,161.374 L -18.8847,161.211 L -18.9492,161.049 L -19.0131,160.887 L -19.0764,160.726
 L -19.139,160.566 L -19.201,160.405 L -19.2623,160.246 L -19.3231,160.087 L -19.3832,159.928 L -19.4427,159.77
 L -19.5016,159.613 L -19.5598,159.456 L -19.6175,159.3 L -19.6746,159.144 L -19.6743,159.142 L -20.0399,159.096
 L -20.0402,159.098 L -20.1338,159.235 L -20.2281,159.373 L -20.3231,159.51 L -20.4189,159.648 L -20.5154,159.787
 L -20.6126,159.926 L -20.7106,160.065 L -20.8093,160.205 L -20.9087,160.345 L -21.0089,160.485 L -21.1098,160.626
 L -21.2115,160.767 L -21.3139,160.908 L -21.4171,161.05 L -21.5211,161.192 L -21.6257,161.335 L -22.1741,161.26
 L -22.237,161.095 L -22.2992,160.93 L -22.3609,160.766 L -22.4218,160.603 L -22.4822,160.439 L -22.542,160.277
 L -22.6011,160.115 L -22.6596,159.953 L -22.7175,159.793 L -22.7748,159.632 L -22.8315,159.472 L -22.8876,159.313
 L -22.9431,159.155 L -22.998,158.997 L -23.0522,158.839 L -23.1059,158.682 L -23.1056,158.68 L -23.4701,158.626
 L -23.4704,158.629 L -23.567,158.764 L -23.6642,158.899 L -23.7622,159.034 L -23.8609,159.17 L -23.9604,159.307
 L -24.0606,159.443 L -24.1615,159.581 L -24.2632,159.718 L -24.3657,159.856 L -24.4689,159.994 L -24.5728,160.133
 L -24.6775,160.271 L -24.783,160.411 L -24.8892,160.55 L -24.9962,160.69 L -25.1039,160.83 L -25.6505,160.744
 L -25.7098,160.577 L -25.7685,160.411 L -25.8266,160.246 L -25.884,160.081 L -25.9409,159.917 L -25.9971,159.753
 L -26.0527,159.59 L -26.1078,159.427 L -26.1622,159.265 L -26.216,159.103 L -26.2692,158.942 L -26.3218,158.782
 L -26.3739,158.622 L -26.4253,158.463 L -26.4762,158.304 L -26.5265,158.146 L -26.5261,158.144 L -26.8894,158.083
 L -26.8898,158.085 L -26.9892,158.218 L -27.0893,158.351 L -27.1902,158.484 L -27.2919,158.618 L -27.3942,158.752
 L -27.4974,158.887 L -27.6013,159.022 L -27.7059,159.157 L -27.8113,159.293 L -27.9174,159.428 L -28.0244,159.565
 L -28.132,159.701 L -28.2405,159.838 L -28.3497,159.975 L -28.4597,160.113 L -28.5704,160.251 L -29.115,160.153
 L -29.1707,159.985 L -29.2258,159.818 L -29.2803,159.651 L -29.3342,159.485 L -29.3874,159.319 L -29.4401,159.154
 L -29.4922,158.99 L -29.5437,158.826 L -29.5946,158.663 L -29.6449,158.5 L -29.6947,158.338 L -29.7438,158.177
 L -29.7924,158.016 L -29.8404,157.855 L -29.8878,157.696 L -29.9347,157.537 L -29.9343,157.535 L -30.2961,157.465
 L -30.2966,157.468 L -30.3988,157.598 L -30.5018,157.729 L -30.6056,157.86 L -30.7101,157.992 L -30.8153,158.124
 L -30.9213,158.256 L -31.0281,158.389 L -31.1357,158.522 L -31.244,158.655 L -31.353,158.789 L -31.4628,158.922
 L -31.5734,159.057 L -31.6848,159.191 L -31.797,159.326 L -31.9099,159.461 L -32.0236,159.597 L -32.5659,159.487
 L -32.618,159.318 L -32.6694,159.149 L -32.7203,158.982 L -32.7706,158.814 L -32.8203,158.648 L -32.8694,158.482
 L -32.9179,158.316 L -32.9659,158.151 L -33.0132,157.987 L -33.06,157.823 L -33.1063,157.66 L -33.1519,157.498
 L -33.197,157.336 L -33.2415,157.174 L -33.2855,157.014 L -33.3289,156.854 L -33.3285,156.852 L -33.6888,156.775
 L -33.6892,156.777 L -33.7943,156.905 L -33.9001,157.034 L -34.0066,157.163 L -34.114,157.292 L -34.222,157.422
 L -34.3309,157.552 L -34.4405,157.682 L -34.5509,157.813 L -34.662,157.943 L -34.774,158.075 L -34.8867,158.206
 L -35.0001,158.338 L -35.1144,158.47 L -35.2294,158.602 L -35.3452,158.735 L -35.4618,158.868 L -36.0017,158.747
 L -36.0501,158.577 L -36.0979,158.407 L -36.1451,158.238 L -36.1918,158.07 L -36.2379,157.902 L -36.2834,157.735
 L -36.3283,157.569 L -36.3727,157.403 L -36.4165,157.237 L -36.4597,157.073 L -36.5024,156.909 L -36.5446,156.745
 L -36.5862,156.582 L -36.6272,156.42 L -36.6677,156.259 L -36.7076,156.098 L -36.7071,156.095 L -37.0657,156.011
 L -37.0662,156.013 L -37.174,156.139 L -37.2825,156.265 L -37.3919,156.392 L -37.502,156.519 L -37.6128,156.646
 L -37.7244,156.774 L -37.8368,156.902 L -37.95,157.03 L -38.064,157.158 L -38.1787,157.287 L -38.2942,157.416
 L -38.4105,157.545 L -38.5276,157.675 L -38.6454,157.805 L -38.7641,157.935 L -38.8835,158.065 L -39.4206,157.932
 L -39.4653,157.761 L -39.5095,157.591 L -39.5531,157.421 L -39.5961,157.252 L -39.6385,157.083 L -39.6804,156.915
 L -39.7217,156.747 L -39.7625,156.581 L -39.8028,156.414 L -39.8425,156.249 L -39.8816,156.084 L -39.9202,155.92
 L -39.9583,155.756 L -39.9958,155.593 L -40.0328,155.43 L -40.0692,155.269 L -40.0687,155.267 L -40.4253,155.174
 L -40.4259,155.176 L -40.5364,155.3 L -40.6476,155.424 L -40.7596,155.548 L -40.8725,155.673 L -40.986,155.798
 L -41.1004,155.923 L -41.2155,156.048 L -41.3314,156.174 L -41.4481,156.3 L -41.5656,156.426 L -41.6839,156.553
 L -41.8029,156.679 L -41.9228,156.806 L -42.0434,156.934 L -42.1649,157.061 L -42.2871,157.189 L -42.8212,157.044
 L -42.8622,156.872 L -42.9026,156.701 L -42.9426,156.53 L -42.9819,156.36 L -43.0207,156.191 L -43.059,156.022
 L -43.0967,155.853 L -43.1338,155.686 L -43.1705,155.519 L -43.2066,155.352 L -43.2421,155.187 L -43.2772,155.021
 L -43.3117,154.857 L -43.3457,154.693 L -43.3792,154.53 L -43.4121,154.367 L -43.4115,154.365 L -43.7661,154.265
 L -43.7667,154.267 L -43.8798,154.389 L -43.9937,154.51 L -44.1084,154.632 L -44.2239,154.754 L -44.3401,154.876
 L -44.4572,154.999 L -44.575,155.122 L -44.6936,155.245 L -44.813,155.369 L -44.9332,155.492 L -45.0541,155.616
 L -45.1759,155.74 L -45.2985,155.865 L -45.4218,155.989 L -45.546,156.114 L -45.6709,156.239 L -46.2018,156.083
 L -46.2391,155.91 L -46.2758,155.738 L -46.312,155.567 L -46.3477,155.396 L -46.3828,155.225 L -46.4174,155.056
 L -46.4515,154.887 L -46.485,154.718 L -46.5181,154.55 L -46.5506,154.383 L -46.5826,154.217 L -46.614,154.051
 L -46.645,153.886 L -46.6754,153.721 L -46.7054,153.557 L -46.7348,153.394 L -46.7342,153.392 L -47.0865,153.284
 L -47.0871,153.286 L -47.2029,153.405 L -47.3194,153.524 L -47.4367,153.644 L -47.5547,153.763 L -47.6736,153.883
 L -47.7933,154.003 L -47.9137,154.123 L -48.0349,154.244 L -48.157,154.365 L -48.2798,154.486 L -48.4034,154.607
 L -48.5278,154.729 L -48.653,154.85 L -48.779,154.972 L -48.9059,155.095 L -49.0335,155.217 L -49.5609,155.049
 L -49.5944,154.876 L -49.6274,154.703 L -49.6599,154.53 L -49.6919,154.359 L -49.7233,154.188 L -49.7543,154.017
 L -49.7847,153.848 L -49.8146,153.678 L -49.844,153.51 L -49.8728,153.342 L -49.9012,153.175 L -49.9291,153.009
 L -49.9565,152.843 L -49.9834,152.678 L -50.0098,152.513 L -50.0357,152.349 L -50.035,152.347 L -50.3849,152.232
 L -50.3856,152.234 L -50.5039,152.35 L -50.6229,152.467 L -50.7428,152.584 L -50.8634,152.701 L -50.9848,152.818
 L -51.1071,152.935 L -51.2301,153.053 L -51.3539,153.171 L -51.4785,153.289 L -51.6039,153.407 L -51.7301,153.526
 L -51.8571,153.645 L -51.9849,153.764 L -52.1135,153.883 L -52.243,154.003 L -52.3732,154.122 L -52.8969,153.943
 L -52.9266,153.769 L -52.9559,153.595 L -52.9847,153.422 L -53.0129,153.25 L -53.0407,153.078 L -53.0679,152.907
 L -53.0946,152.737 L -53.1209,152.567 L -53.1466,152.398 L -53.1719,152.23 L -53.1967,152.062 L -53.2209,151.895
 L -53.2447,151.729 L -53.2681,151.563 L -53.2909,151.398 L -53.3133,151.234 L -53.3125,151.231 L -53.6599,151.109
 L -53.6606,151.111 L -53.7814,151.224 L -53.9029,151.338 L -54.0252,151.452 L -54.1484,151.567 L -54.2723,151.681
 L -54.397,151.796 L -54.5225,151.911 L -54.6489,152.027 L -54.776,152.142 L -54.9039,152.258 L -55.0327,152.373
 L -55.1622,152.489 L -55.2926,152.606 L -55.4237,152.722 L -55.5557,152.839 L -55.6885,152.956 L -56.2082,152.765
 L -56.2342,152.59 L -56.2597,152.416 L -56.2847,152.243 L -56.3092,152.07 L -56.3333,151.897 L -56.3568,151.726
 L -56.3799,151.555 L -56.4024,151.385 L -56.4245,151.215 L -56.4461,151.046 L -56.4673,150.878 L -56.4879,150.711
 L -56.5082,150.544 L -56.5279,150.378 L -56.5472,150.212 L -56.566,150.047 L -56.5652,150.045 L -56.9098,149.915
 L -56.9106,149.917 L -57.0338,150.028 L -57.1577,150.139 L -57.2825,150.251 L -57.4081,150.362 L -57.5344,150.474
 L -57.6616,150.586 L -57.7896,150.699 L -57.9184,150.811 L -58.048,150.924 L -58.1784,151.037 L -58.3096,151.15
 L -58.4416,151.263 L -58.5744,151.376 L -58.7081,151.49 L -58.8426,151.604 L -58.9778,151.718 L -59.4933,151.516
 L -59.5155,151.341 L -59.5372,151.166 L -59.5585,150.992 L -59.5793,150.818 L -59.5996,150.646 L -59.6194,150.474
 L -59.6388,150.302 L -59.6577,150.132 L -59.6761,149.962 L -59.6941,149.792 L -59.7116,149.624 L -59.7286,149.456
 L -59.7452,149.289 L -59.7614,149.122 L -59.7771,148.956 L -59.7923,148.791 L -59.7915,148.789 L -60.1332,148.651
 L -60.134,148.653 L -60.2596,148.762 L -60.3859,148.87 L -60.5131,148.979 L -60.641,149.088 L -60.7698,149.197
 L -60.8993,149.306 L -61.0297,149.416 L -61.1609,149.526 L -61.2929,149.635 L -61.4257,149.745 L -61.5593,149.856
 L -61.6938,149.966 L -61.829,150.076 L -61.9651,150.187 L -62.102,150.298 L -62.2397,150.409 L -62.7506,150.196
 L -62.7691,150.021 L -62.787,149.845 L -62.8046,149.671 L -62.8216,149.497 L -62.8382,149.324 L -62.8543,149.151
 L -62.8699,148.98 L -62.8851,148.809 L -62.8999,148.638 L -62.9142,148.469 L -62.928,148.3 L -62.9415,148.131
 L -62.9545,147.964 L -62.967,147.797 L -62.9791,147.631 L -62.9908,147.465 L -62.9899,147.463 L -63.3286,147.318
 L -63.3294,147.32 L -63.4573,147.426 L -63.586,147.532 L -63.7154,147.638 L -63.8457,147.744 L -63.9768,147.85
 L -64.1087,147.957 L -64.2414,148.063 L -64.3749,148.17 L -64.5092,148.277 L -64.6444,148.384 L -64.7803,148.492
 L -64.9171,148.599 L -65.0547,148.707 L -65.1932,148.814 L -65.3324,148.922 L -65.4725,149.03 L -65.9787,148.807
 L -65.9934,148.63 L -66.0076,148.455 L -66.0213,148.28 L -66.0346,148.106 L -66.0474,147.932 L -66.0598,147.76
 L -66.0717,147.588 L -66.0833,147.416 L -66.0943,147.246 L -66.105,147.076 L -66.1152,146.907 L -66.1249,146.738
 L -66.1343,146.57 L -66.1432,146.403 L -66.1518,146.237 L -66.1599,146.071 L -66.159,146.069 L -66.4944,145.917
 L -66.4953,145.919 L -66.6254,146.022 L -66.7563,146.125 L -66.8881,146.228 L -67.0206,146.331 L -67.154,146.435
 L -67.2881,146.538 L -67.4231,146.642 L -67.5589,146.746 L -67.6955,146.85 L -67.8329,146.954 L -67.9712,147.058
 L -68.1103,147.163 L -68.2502,147.267 L -68.3909,147.372 L -68.5324,147.477 L -68.6748,147.582 L -69.1761,147.347
 L -69.1869,147.171 L -69.1973,146.995 L -69.2073,146.82 L -69.2168,146.646 L -69.2259,146.472 L -69.2345,146.299
 L -69.2428,146.127 L -69.2506,145.955 L -69.2579,145.784 L -69.2649,145.614 L -69.2715,145.445 L -69.2776,145.276
 L -69.2834,145.108 L -69.2887,144.941 L -69.2936,144.774 L -69.2981,144.609 L -69.2972,144.607 L -69.6293,144.447
 L -69.6302,144.449 L -69.7625,144.549 L -69.8956,144.649 L -70.0295,144.75 L -70.1643,144.85 L -70.2998,144.951
 L -70.4362,145.051 L -70.5734,145.152 L -70.7114,145.253 L -70.8502,145.354 L -70.9899,145.455 L -71.1303,145.557
 L -71.2716,145.658 L -71.4138,145.76 L -71.5567,145.861 L -71.7005,145.963 L -71.8451,146.065 L -72.3412,145.82
 L -72.3482,145.643 L -72.3548,145.467 L -72.361,145.292 L -72.3667,145.117 L -72.3721,144.943 L -72.377,144.77
 L -72.3815,144.598 L -72.3856,144.426 L -72.3893,144.255 L -72.3926,144.085 L -72.3955,143.915 L -72.398,143.747
 L -72.4001,143.579 L -72.4018,143.411 L -72.4032,143.245 L -72.4041,143.079 L -72.4031,143.077 L -72.7316,142.91
 L -72.7326,142.912 L -72.8671,143.009 L -73.0023,143.106 L -73.1384,143.204 L -73.2753,143.301 L -73.4129,143.399
 L -73.5515,143.497 L -73.6908,143.595 L -73.8309,143.693 L -73.9719,143.791 L -74.1137,143.889 L -74.2563,143.987
 L -74.3998,144.085 L -74.5441,144.184 L -74.6892,144.282 L -74.8351,144.381 L -74.9819,144.479 L -75.4726,144.224
 L -75.4758,144.047 L -75.4786,143.871 L -75.481,143.695 L -75.483,143.521 L -75.4845,143.347 L -75.4857,143.174
 L -75.4865,143.001 L -75.4869,142.83 L -75.4869,142.659 L -75.4865,142.488 L -75.4857,142.319 L -75.4846,142.15
 L -75.4831,141.982 L -75.4812,141.815 L -75.4789,141.648 L -75.4763,141.482 L -75.4753,141.48 L -75.8001,141.307
 L -75.8012,141.308 L -75.9377,141.403 L -76.075,141.497 L -76.2131,141.591 L -76.3521,141.686 L -76.4918,141.781
 L -76.6324,141.875 L -76.7738,141.97 L -76.916,142.065 L -77.0591,142.16 L -77.203,142.255 L -77.3477,142.35
 L -77.4933,142.445 L -77.6396,142.541 L -77.7868,142.636 L -77.9349,142.731 L -78.0837,142.827 L -78.5688,142.561
 L -78.5682,142.384 L -78.5672,142.208 L -78.5658,142.032 L -78.564,141.858 L -78.5618,141.684 L -78.5592,141.511
 L -78.5563,141.338 L -78.553,141.167 L -78.5493,140.996 L -78.5452,140.825 L -78.5408,140.656 L -78.536,140.487
 L -78.5309,140.319 L -78.5254,140.152 L -78.5195,139.985 L -78.5133,139.82 L -78.5122,139.818 L -78.8333,139.637
 L -78.8344,139.639 L -78.9728,139.73 L -79.1122,139.822 L -79.2523,139.913 L -79.3932,140.005 L -79.535,140.096
 L -79.6776,140.188 L -79.8211,140.28 L -79.9653,140.371 L -80.1104,140.463 L -80.2563,140.555 L -80.403,140.647
 L -80.5506,140.739 L -80.699,140.831 L -80.8482,140.923 L -80.9983,141.016 L -81.1491,141.108 L -81.6284,140.831
 L -81.6239,140.654 L -81.6191,140.478 L -81.614,140.303 L -81.6084,140.128 L -81.6024,139.955 L -81.5962,139.782
 L -81.5895,139.609 L -81.5825,139.438 L -81.5751,139.267 L -81.5674,139.097 L -81.5593,138.927 L -81.5508,138.759
 L -81.5421,138.591 L -81.5329,138.424 L -81.5235,138.258 L -81.5137,138.092 L -81.5126,138.09 L -81.8297,137.902
 L -81.8308,137.904 L -81.9712,137.993 L -82.1125,138.081 L -82.2545,138.169 L -82.3974,138.258 L -82.5412,138.346
 L -82.6857,138.435 L -82.8311,138.523 L -82.9773,138.612 L -83.1243,138.701 L -83.2722,138.79 L -83.4209,138.878
 L -83.5704,138.967 L -83.7207,139.056 L -83.8719,139.145 L -84.0239,139.234 L -84.1768,139.323 L -84.6499,139.036
 L -84.6416,138.859 L -84.633,138.683 L -84.6241,138.508 L -84.6147,138.334 L -84.6051,138.16 L -84.595,137.987
 L -84.5846,137.815 L -84.5739,137.644 L -84.5629,137.473 L -84.5515,137.303 L -84.5397,137.134 L -84.5276,136.966
 L -84.5153,136.798 L -84.5025,136.631 L -84.4895,136.465 L -84.4761,136.3 L -84.475,136.298 L -84.7879,136.104
 L -84.7891,136.106 L -84.9314,136.191 L -85.0745,136.276 L -85.2185,136.361 L -85.3632,136.447 L -85.5088,136.532
 L -85.6553,136.617 L -85.8025,136.703 L -85.9506,136.788 L -86.0995,136.874 L -86.2492,136.959 L -86.3998,137.045
 L -86.5512,137.131 L -86.7034,137.216 L -86.8565,137.302 L -87.0104,137.387 L -87.1651,137.473 L -87.632,137.176
 L -87.6199,137 L -87.6075,136.824 L -87.5947,136.649 L -87.5816,136.475 L -87.5682,136.301 L -87.5545,136.129
 L -87.5404,135.957 L -87.5259,135.786 L -87.5112,135.615 L -87.4961,135.446 L -87.4807,135.277 L -87.465,135.109
 L -87.449,134.942 L -87.4327,134.775 L -87.4161,134.609 L -87.3992,134.444 L -87.3979,134.442 L -87.7066,134.241
 L -87.7078,134.243 L -87.8519,134.325 L -87.9969,134.407 L -88.1426,134.49 L -88.2892,134.572 L -88.4366,134.654
 L -88.5849,134.736 L -88.7339,134.819 L -88.8838,134.901 L -89.0345,134.983 L -89.1861,135.065 L -89.3385,135.148
 L -89.4917,135.23 L -89.6457,135.312 L -89.8006,135.395 L -89.9563,135.477 L -90.1128,135.559 L -90.5732,135.252
 L -90.5573,135.076 L -90.5411,134.9 L -90.5246,134.726 L -90.5077,134.552 L -90.4906,134.379 L -90.4731,134.207
 L -90.4553,134.035 L -90.4371,133.864 L -90.4187,133.694 L -90.4,133.525 L -90.381,133.357 L -90.3616,133.189
 L -90.342,133.022 L -90.3221,132.856 L -90.3019,132.691 L -90.2814,132.526 L -90.2802,132.524 L -90.5844,132.316
 L -90.5857,132.318 L -90.7316,132.397 L -90.8782,132.476 L -91.0257,132.555 L -91.174,132.634 L -91.3232,132.713
 L -91.4732,132.792 L -91.624,132.871 L -91.7756,132.95 L -91.9281,133.029 L -92.0814,133.108 L -92.2355,133.187
 L -92.3904,133.266 L -92.5462,133.345 L -92.7028,133.424 L -92.8603,133.503 L -93.0186,133.582 L -93.4722,133.265
 L -93.4525,133.089 L -93.4325,132.914 L -93.4122,132.74 L -93.3916,132.567 L -93.3707,132.394 L -93.3495,132.222
 L -93.328,132.051 L -93.3062,131.881 L -93.2841,131.711 L -93.2617,131.542 L -93.2391,131.374 L -93.2161,131.207
 L -93.1929,131.041 L -93.1694,130.875 L -93.1457,130.71 L -93.1216,130.546 L -93.1204,130.544 L -93.42,130.33
 L -93.4213,130.332 L -93.5689,130.408 L -93.7172,130.483 L -93.8664,130.559 L -94.0164,130.635 L -94.1672,130.711
 L -94.3188,130.786 L -94.4713,130.862 L -94.6246,130.938 L -94.7787,131.014 L -94.9337,131.089 L -95.0895,131.165
 L -95.2461,131.241 L -95.4036,131.316 L -95.5619,131.392 L -95.721,131.467 L -95.8809,131.543 L -96.3276,131.216
 L -96.3041,131.041 L -96.2803,130.866 L -96.2563,130.692 L -96.2319,130.519 L -96.2073,130.347 L -96.1824,130.176
 L -96.1572,130.005 L -96.1318,129.835 L -96.106,129.666 L -96.08,129.498 L -96.0537,129.331 L -96.0272,129.164
 L -96.0004,128.998 L -95.9733,128.833 L -95.946,128.669 L -95.9184,128.505 L -95.9171,128.503 L -96.2121,128.283
 L -96.2134,128.284 L -96.3625,128.357 L -96.5125,128.43 L -96.6633,128.502 L -96.8149,128.575 L -96.9673,128.647
 L -97.1205,128.72 L -97.2746,128.792 L -97.4295,128.864 L -97.5853,128.937 L -97.7418,129.009 L -97.8992,129.081
 L -98.0574,129.154 L -98.2165,129.226 L -98.3763,129.298 L -98.537,129.37 L -98.6986,129.442 L -99.1381,129.106
 L -99.1108,128.931 L -99.0833,128.757 L -99.0555,128.584 L -99.0274,128.411 L -98.9991,128.24 L -98.9705,128.069
 L -98.9416,127.899 L -98.9125,127.73 L -98.8831,127.561 L -98.8535,127.394 L -98.8236,127.227 L -98.7934,127.061
 L -98.7631,126.895 L -98.7324,126.731 L -98.7016,126.567 L -98.6705,126.404 L -98.6691,126.402 L -98.9593,126.175
 L -98.9607,126.177 L -99.1113,126.247 L -99.2628,126.316 L -99.4151,126.385 L -99.5682,126.454 L -99.7222,126.524
 L -99.877,126.593 L -100.033,126.662 L -100.189,126.731 L -100.346,126.8 L -100.504,126.869 L -100.663,126.938
 L -100.823,127.006 L -100.984,127.075 L -101.145,127.144 L -101.307,127.212 L -101.47,127.281 L -101.902,126.935
 L -101.871,126.761 L -101.84,126.588 L -101.809,126.415 L -101.777,126.243 L -101.745,126.072 L -101.712,125.902
 L -101.68,125.733 L -101.647,125.564 L -101.614,125.397 L -101.581,125.23 L -101.547,125.063 L -101.514,124.898
 L -101.48,124.733 L -101.446,124.57 L -101.411,124.407 L -101.377,124.244 L -101.375,124.243 L -101.66,124.01
 L -101.662,124.011 L -101.814,124.077 L -101.967,124.143 L -102.121,124.209 L -102.275,124.275 L -102.431,124.341
 L -102.587,124.407 L -102.744,124.473 L -102.902,124.538 L -103.06,124.604 L -103.22,124.669 L -103.38,124.735
 L -103.542,124.8 L -103.704,124.865 L -103.866,124.93 L -104.03,124.995 L -104.195,125.06 L -104.619,124.705
 L -104.584,124.532 L -104.549,124.359 L -104.514,124.188 L -104.479,124.017 L -104.443,123.846 L -104.407,123.677
 L -104.371,123.508 L -104.334,123.341 L -104.298,123.174 L -104.261,123.007 L -104.224,122.842 L -104.187,122.677
 L -104.149,122.513 L -104.111,122.35 L -104.073,122.188 L -104.035,122.027 L -104.034,122.025 L -104.314,121.786
 L -104.315,121.787 L -104.469,121.85 L -104.623,121.913 L -104.778,121.976 L -104.934,122.038 L -105.091,122.101
 L -105.249,122.163 L -105.407,122.225 L -105.567,122.288 L -105.727,122.35 L -105.888,122.412 L -106.049,122.474
 L -106.212,122.535 L -106.375,122.597 L -106.539,122.659 L -106.704,122.72 L -106.87,122.782 L -107.287,122.418
 L -107.249,122.245 L -107.21,122.073 L -107.171,121.902 L -107.132,121.732 L -107.092,121.563 L -107.053,121.394
 L -107.013,121.226 L -106.973,121.059 L -106.933,120.893 L -106.892,120.728 L -106.852,120.563 L -106.811,120.399
 L -106.77,120.236 L -106.729,120.074 L -106.687,119.913 L -106.646,119.752 L -106.644,119.751 L -106.919,119.505
 L -106.921,119.507 L -107.075,119.566 L -107.231,119.626 L -107.388,119.685 L -107.545,119.744 L -107.703,119.803
 L -107.862,119.862 L -108.022,119.921 L -108.182,119.98 L -108.344,120.039 L -108.506,120.097 L -108.669,120.156
 L -108.833,120.214 L -108.997,120.272 L -109.163,120.33 L -109.329,120.388 L -109.496,120.446 L -109.905,120.073
 L -109.863,119.901 L -109.82,119.73 L -109.778,119.56 L -109.735,119.391 L -109.692,119.222 L -109.649,119.054
 L -109.605,118.888 L -109.562,118.721 L -109.518,118.556 L -109.474,118.392 L -109.43,118.228 L -109.385,118.065
 L -109.341,117.903 L -109.296,117.742 L -109.251,117.581 L -109.206,117.422 L -109.205,117.42 L -109.474,117.169
 L -109.476,117.171 L -109.632,117.227 L -109.789,117.283 L -109.946,117.339 L -110.105,117.394 L -110.264,117.45
 L -110.425,117.506 L -110.585,117.561 L -110.747,117.616 L -110.91,117.671 L -111.073,117.726 L -111.238,117.781
 L -111.403,117.836 L -111.569,117.891 L -111.735,117.945 L -111.903,117.999 L -112.071,118.054 L -112.472,117.672
 L -112.426,117.501 L -112.38,117.331 L -112.334,117.162 L -112.287,116.994 L -112.24,116.826 L -112.194,116.659
 L -112.147,116.493 L -112.099,116.328 L -112.052,116.164 L -112.005,116.001 L -111.957,115.838 L -111.909,115.676
 L -111.861,115.515 L -111.813,115.355 L -111.764,115.195 L -111.716,115.037 L -111.714,115.035 L -111.978,114.778
 L -111.98,114.78 L -112.137,114.832 L -112.295,114.885 L -112.454,114.938 L -112.614,114.99 L -112.774,115.042
 L -112.936,115.094 L -113.098,115.146 L -113.261,115.198 L -113.425,115.249 L -113.589,115.301 L -113.755,115.352
 L -113.921,115.403 L -114.088,115.454 L -114.256,115.505 L -114.424,115.556 L -114.594,115.606 L -114.986,115.216
 L -114.937,115.046 L -114.887,114.878 L -114.837,114.709 L -114.787,114.542 L -114.737,114.376 L -114.686,114.21
 L -114.636,114.045 L -114.585,113.881 L -114.534,113.718 L -114.483,113.555 L -114.432,113.394 L -114.38,113.233
 L -114.329,113.073 L -114.277,112.914 L -114.225,112.755 L -114.174,112.598 L -114.172,112.596 L -114.43,112.334
 L -114.432,112.335 L -114.59,112.385 L -114.749,112.434 L -114.909,112.483 L -115.07,112.532 L -115.232,112.58
 L -115.394,112.629 L -115.558,112.677 L -115.722,112.726 L -115.886,112.774 L -116.052,112.822 L -116.219,112.869
 L -116.386,112.917 L -116.554,112.964 L -116.723,113.012 L -116.893,113.059 L -117.063,113.105 L -117.447,112.707
 L -117.394,112.538 L -117.34,112.37 L -117.287,112.203 L -117.233,112.037 L -117.179,111.872 L -117.125,111.707
 L -117.071,111.543 L -117.017,111.381 L -116.962,111.218 L -116.908,111.057 L -116.853,110.897 L -116.798,110.737
 L -116.743,110.578 L -116.688,110.42 L -116.633,110.263 L -116.578,110.107 L -116.576,110.105 L -116.829,109.837
 L -116.831,109.839 L -116.99,109.884 L -117.15,109.93 L -117.311,109.976 L -117.473,110.021 L -117.636,110.066
 L -117.799,110.111 L -117.963,110.156 L -118.128,110.201 L -118.294,110.245 L -118.461,110.29 L -118.628,110.334
 L -118.797,110.378 L -118.966,110.422 L -119.136,110.465 L -119.306,110.509 L -119.478,110.552 L -119.853,110.145
 L -119.796,109.977 L -119.739,109.811 L -119.682,109.645 L -119.625,109.48 L -119.567,109.316 L -119.51,109.152
 L -119.452,108.99 L -119.394,108.828 L -119.336,108.667 L -119.278,108.507 L -119.22,108.348 L -119.162,108.19
 L -119.104,108.032 L -119.045,107.875 L -118.987,107.719 L -118.928,107.564 L -118.926,107.563 L -119.173,107.289
 L -119.175,107.291 L -119.335,107.333 L -119.496,107.375 L -119.658,107.417 L -119.821,107.459 L -119.985,107.501
 L -120.149,107.542 L -120.314,107.584 L -120.48,107.625 L -120.647,107.666 L -120.814,107.707 L -120.983,107.747
 L -121.152,107.787 L -121.322,107.827 L -121.493,107.867 L -121.664,107.907 L -121.837,107.946 L -122.203,107.532
 L -122.143,107.365 L -122.082,107.2 L -122.021,107.035 L -121.96,106.872 L -121.899,106.709 L -121.838,106.547
 L -121.777,106.386 L -121.716,106.225 L -121.655,106.066 L -121.593,105.907 L -121.532,105.749 L -121.47,105.592
 L -121.408,105.435 L -121.346,105.28 L -121.285,105.125 L -121.223,104.971 L -121.221,104.97 L -121.462,104.691
 L -121.463,104.693 L -121.625,104.732 L -121.787,104.77 L -121.949,104.809 L -122.113,104.847 L -122.278,104.885
 L -122.443,104.923 L -122.609,104.961 L -122.776,104.999 L -122.943,105.036 L -123.112,105.073 L -123.281,105.11
 L -123.451,105.147 L -123.622,105.183 L -123.793,105.219 L -123.966,105.255 L -124.139,105.291 L -124.496,104.868
 L -124.432,104.703 L -124.368,104.539 L -124.304,104.376 L -124.239,104.214 L -124.175,104.052 L -124.11,103.891
 L -124.046,103.732 L -123.981,103.573 L -123.916,103.414 L -123.851,103.257 L -123.786,103.1 L -123.721,102.945
 L -123.656,102.79 L -123.591,102.635 L -123.526,102.482 L -123.461,102.33 L -123.459,102.328 L -123.694,102.044
 L -123.695,102.046 L -123.857,102.081 L -124.02,102.116 L -124.184,102.152 L -124.348,102.186 L -124.514,102.221
 L -124.68,102.255 L -124.846,102.29 L -125.014,102.323 L -125.182,102.357 L -125.351,102.391 L -125.521,102.424
 L -125.692,102.457 L -125.864,102.489 L -126.036,102.522 L -126.209,102.554 L -126.383,102.586 L -126.731,102.156
 L -126.664,101.992 L -126.596,101.83 L -126.528,101.668 L -126.46,101.507 L -126.392,101.347 L -126.324,101.188
 L -126.256,101.029 L -126.188,100.872 L -126.12,100.715 L -126.052,100.559 L -125.983,100.404 L -125.915,100.249
 L -125.847,100.096 L -125.778,99.9432 L -125.71,99.7913 L -125.641,99.6403 L -125.639,99.6389 L -125.868,99.35
 L -125.87,99.3514 L -126.033,99.3833 L -126.196,99.4151 L -126.36,99.4466 L -126.526,99.4779 L -126.691,99.5089
 L -126.858,99.5397 L -127.026,99.5703 L -127.194,99.6005 L -127.363,99.6306 L -127.533,99.6604 L -127.703,99.6899
 L -127.875,99.7191 L -128.047,99.7482 L -128.22,99.7769 L -128.394,99.8053 L -128.569,99.8335 L -128.907,99.3959
 L -128.836,99.2339 L -128.765,99.0728 L -128.694,98.9126 L -128.622,98.7531 L -128.551,98.5945 L -128.48,98.4368
 L -128.408,98.2798 L -128.337,98.1237 L -128.265,97.9684 L -128.193,97.8139 L -128.122,97.6603 L -128.05,97.5075
 L -127.978,97.3555 L -127.907,97.2043 L -127.835,97.054 L -127.763,96.9045 L -127.761,96.9032 L -127.984,96.6093
 L -127.985,96.6107 L -128.149,96.6391 L -128.313,96.6673 L -128.478,96.6953 L -128.644,96.723 L -128.81,96.7504
 L -128.978,96.7776 L -129.146,96.8046 L -129.315,96.8312 L -129.484,96.8576 L -129.655,96.8837 L -129.826,96.9095
 L -129.998,96.9351 L -130.171,96.9604 L -130.344,96.9853 L -130.519,97.01 L -130.694,97.0344 L -131.023,96.5896
 L -130.949,96.4292 L -130.874,96.2697 L -130.799,96.111 L -130.725,95.9532 L -130.65,95.7961 L -130.575,95.6399
 L -130.5,95.4846 L -130.425,95.33 L -130.35,95.1763 L -130.275,95.0234 L -130.2,94.8714 L -130.126,94.7202
 L -130.051,94.5697 L -129.976,94.4202 L -129.901,94.2714 L -129.826,94.1235 L -129.824,94.1222 L -130.04,93.8237
 L -130.041,93.825 L -130.205,93.8499 L -130.37,93.8745 L -130.536,93.8989 L -130.702,93.923 L -130.869,93.9469
 L -131.037,93.9704 L -131.206,93.9937 L -131.375,94.0167 L -131.545,94.0394 L -131.716,94.0619 L -131.888,94.084
 L -132.061,94.1058 L -132.234,94.1274 L -132.408,94.1486 L -132.583,94.1695 L -132.758,94.1901 L -133.078,93.7383
 L -133,93.5796 L -132.922,93.4217 L -132.844,93.2646 L -132.766,93.1084 L -132.688,92.9531 L -132.609,92.7985
 L -132.531,92.6448 L -132.453,92.4919 L -132.375,92.3399 L -132.297,92.1886 L -132.218,92.0382 L -132.14,91.8887
 L -132.062,91.7399 L -131.984,91.592 L -131.906,91.4449 L -131.827,91.2986 L -131.826,91.2973 L -132.035,90.9942
 L -132.037,90.9955 L -132.201,91.0169 L -132.367,91.0379 L -132.533,91.0588 L -132.699,91.0793 L -132.867,91.0995
 L -133.035,91.1194 L -133.204,91.1391 L -133.374,91.1584 L -133.545,91.1774 L -133.716,91.1962 L -133.889,91.2146
 L -134.062,91.2327 L -134.235,91.2505 L -134.41,91.268 L -134.585,91.2851 L -134.761,91.3019 L -135.071,90.8433
 L -134.989,90.6863 L -134.908,90.5301 L -134.826,90.3748 L -134.745,90.2203 L -134.663,90.0667 L -134.582,89.9138
 L -134.501,89.7619 L -134.419,89.6107 L -134.338,89.4604 L -134.256,89.3109 L -134.175,89.1622 L -134.093,89.0143
 L -134.012,88.8673 L -133.93,88.7211 L -133.849,88.5757 L -133.768,88.4312 L -133.766,88.4299 L -133.969,88.1224
 L -133.971,88.1236 L -134.136,88.1414 L -134.301,88.1589 L -134.468,88.1762 L -134.635,88.1931 L -134.803,88.2097
 L -134.972,88.226 L -135.141,88.242 L -135.311,88.2576 L -135.482,88.273 L -135.654,88.288 L -135.827,88.3027
 L -136,88.317 L -136.174,88.3311 L -136.349,88.3448 L -136.525,88.3581 L -136.701,88.3711 L -137.001,87.9059
 L -136.916,87.7507 L -136.831,87.5964 L -136.746,87.4428 L -136.661,87.2902 L -136.577,87.1383 L -136.492,86.9873
 L -136.407,86.8371 L -136.322,86.6877 L -136.238,86.5392 L -136.153,86.3915 L -136.068,86.2446 L -135.984,86.0985
 L -135.899,85.9533 L -135.815,85.8089 L -135.73,85.6653 L -135.646,85.5225 L -135.644,85.5213 L -135.84,85.2095
 L -135.842,85.2106 L -136.007,85.2249 L -136.173,85.2388 L -136.34,85.2524 L -136.508,85.2657 L -136.676,85.2787
 L -136.845,85.2914 L -137.015,85.3037 L -137.185,85.3157 L -137.357,85.3273 L -137.529,85.3386 L -137.701,85.3496
 L -137.875,85.3602 L -138.049,85.3705 L -138.225,85.3804 L -138.4,85.39 L -138.577,85.3992 L -138.867,84.9276
 L -138.778,84.7743 L -138.69,84.6218 L -138.602,84.4701 L -138.514,84.3193 L -138.426,84.1693 L -138.338,84.0201
 L -138.25,83.8718 L -138.162,83.7243 L -138.074,83.5776 L -137.987,83.4318 L -137.899,83.2867 L -137.811,83.1425
 L -137.723,82.9992 L -137.636,82.8566 L -137.548,82.7149 L -137.461,82.574 L -137.459,82.5728 L -137.648,82.2568
 L -137.65,82.2579 L -137.816,82.2686 L -137.982,82.279 L -138.149,82.289 L -138.317,82.2987 L -138.485,82.308
 L -138.654,82.317 L -138.824,82.3257 L -138.995,82.334 L -139.167,82.3419 L -139.339,82.3495 L -139.512,82.3567
 L -139.686,82.3636 L -139.86,82.3701 L -140.036,82.3762 L -140.212,82.382 L -140.388,82.3874 L -140.668,81.9097
 L -140.576,81.7583 L -140.485,81.6077 L -140.394,81.458 L -140.302,81.3091 L -140.211,81.1611 L -140.12,81.0138
 L -140.029,80.8674 L -139.938,80.7218 L -139.847,80.5771 L -139.756,80.4332 L -139.665,80.2901 L -139.574,80.1478
 L -139.483,80.0064 L -139.393,79.8658 L -139.302,79.726 L -139.211,79.587 L -139.209,79.5859 L -139.392,79.2658
 L -139.394,79.2669 L -139.56,79.274 L -139.726,79.2807 L -139.893,79.2872 L -140.061,79.2932 L -140.23,79.2989
 L -140.399,79.3043 L -140.57,79.3092 L -140.74,79.3138 L -140.912,79.3181 L -141.085,79.322 L -141.258,79.3255
 L -141.432,79.3286 L -141.606,79.3313 L -141.782,79.3336 L -141.958,79.3356 L -142.134,79.3372 L -142.403,78.8535
 L -142.309,78.7042 L -142.214,78.5556 L -142.12,78.4079 L -142.025,78.261 L -141.931,78.115 L -141.836,77.9697
 L -141.742,77.8253 L -141.648,77.6818 L -141.554,77.539 L -141.46,77.3971 L -141.366,77.256 L -141.272,77.1157
 L -141.178,76.9763 L -141.084,76.8376 L -140.991,76.6998 L -140.897,76.5628 L -140.895,76.5618 L -141.071,76.2379
 L -141.073,76.2389 L -141.239,76.2424 L -141.405,76.2456 L -141.572,76.2484 L -141.74,76.2508 L -141.909,76.2529
 L -142.079,76.2545 L -142.249,76.2559 L -142.42,76.2568 L -142.592,76.2573 L -142.764,76.2575 L -142.937,76.2572
 L -143.111,76.2566 L -143.286,76.2555 L -143.461,76.2541 L -143.637,76.2523 L -143.814,76.25 L -144.073,75.7607
 L -143.975,75.6134 L -143.877,75.4669 L -143.779,75.3213 L -143.682,75.1765 L -143.584,75.0325 L -143.487,74.8893
 L -143.389,74.747 L -143.292,74.6055 L -143.195,74.4648 L -143.098,74.325 L -143.001,74.1859 L -142.904,74.0477
 L -142.807,73.9103 L -142.71,73.7737 L -142.614,73.638 L -142.517,73.503 L -142.515,73.502 L -142.684,73.1744
 L -142.686,73.1754 L -142.852,73.1753 L -143.018,73.1749 L -143.186,73.1741 L -143.354,73.1729 L -143.522,73.1713
 L -143.692,73.1693 L -143.862,73.1669 L -144.033,73.1641 L -144.205,73.161 L -144.377,73.1574 L -144.55,73.1534
 L -144.724,73.149 L -144.899,73.1442 L -145.074,73.139 L -145.25,73.1333 L -145.427,73.1273 L -145.675,72.6325
 L -145.574,72.4873 L -145.473,72.343 L -145.372,72.1995 L -145.271,72.0568 L -145.171,71.915 L -145.07,71.774
 L -144.97,71.6338 L -144.869,71.4944 L -144.769,71.3559 L -144.669,71.2182 L -144.569,71.0812 L -144.469,70.9451
 L -144.369,70.8099 L -144.27,70.6754 L -144.17,70.5418 L -144.071,70.4089 L -144.069,70.4079 L -144.23,70.0768
 L -144.232,70.0777 L -144.398,70.0741 L -144.565,70.07 L -144.732,70.0656 L -144.9,70.0608 L -145.069,70.0556
 L -145.238,70.0499 L -145.408,70.0439 L -145.579,70.0374 L -145.751,70.0305 L -145.923,70.0232 L -146.096,70.0155
 L -146.27,70.0074 L -146.444,69.9988 L -146.619,69.9898 L -146.795,69.9803 L -146.972,69.9705 L -147.209,69.4704
 L -147.105,69.3275 L -147.001,69.1854 L -146.897,69.0441 L -146.793,68.9036 L -146.689,68.764 L -146.586,68.6252
 L -146.482,68.4872 L -146.379,68.35 L -146.276,68.2137 L -146.173,68.0781 L -146.07,67.9434 L -145.967,67.8095
 L -145.865,67.6764 L -145.762,67.5441 L -145.66,67.4127 L -145.558,67.282 L -145.556,67.2811 L -145.71,66.9465
 L -145.712,66.9474 L -145.878,66.9402 L -146.044,66.9326 L -146.211,66.9245 L -146.379,66.9161 L -146.548,66.9072
 L -146.717,66.8979 L -146.887,66.8882 L -147.057,66.878 L -147.229,66.8674 L -147.401,66.8564 L -147.574,66.845
 L -147.747,66.8331 L -147.921,66.8207 L -148.096,66.808 L -148.272,66.7947 L -148.448,66.781 L -148.674,66.276
 L -148.567,66.1353 L -148.46,65.9955 L -148.353,65.8565 L -148.246,65.7183 L -148.14,65.5809 L -148.033,65.4444
 L -147.927,65.3087 L -147.821,65.1738 L -147.715,65.0397 L -147.609,64.9064 L -147.503,64.7739 L -147.397,64.6423
 L -147.292,64.5114 L -147.186,64.3814 L -147.081,64.2522 L -146.976,64.1237 L -146.974,64.1228 L -147.121,63.785
 L -147.123,63.7859 L -147.289,63.7751 L -147.455,63.7639 L -147.622,63.7522 L -147.79,63.7401 L -147.958,63.7276
 L -148.127,63.7147 L -148.297,63.7013 L -148.467,63.6875 L -148.638,63.6732 L -148.81,63.6585 L -148.983,63.6433
 L -149.156,63.6276 L -149.33,63.6115 L -149.504,63.595 L -149.68,63.578 L -149.855,63.5605 L -150.071,63.0506
 L -149.96,62.9124 L -149.85,62.7749 L -149.741,62.6382 L -149.631,62.5023 L -149.521,62.3673 L -149.412,62.2331
 L -149.302,62.0997 L -149.193,61.9671 L -149.084,61.8354 L -148.98,61.7094 L -152.44,63.1428 L -157.895,47.897
 L -161.83,32.1899 L -164.205,16.1728 L -165,-0 L -170,-0 L -169.181,16.6629 L -166.733,33.1653
 L -162.68,49.3484 L -157.06,65.0562 L -149.927,80.1374 L -141.35,94.4469 L -131.412,107.847 L -120.208,120.208
 L -107.847,131.412 L -94.4469,141.35 L -80.1374,149.927 L -65.0562,157.06 L -49.3484,162.68 L -33.1653,166.733
 L -16.6629,169.181 L 0,170 z
M -167.461,6.84366 L -167.559,6.83266 L -167.655,6.81215 L -167.748,6.78233 L -167.838,6.7435 L -167.924,6.69601
 L -168.005,6.64034 L -168.08,6.57701 L -168.148,6.50664 L -168.21,6.4299 L -168.263,6.34755 L -168.308,6.26035
 L -168.344,6.16916 L -168.371,6.07486 L -168.389,5.97835 L -168.397,5.88055 L -168.396,5.78242 L -168.385,5.68492
 L -168.364,5.58894 L -168.335,5.49545 L -168.296,5.40533 L -168.248,5.31944 L -168.193,5.23863 L -168.129,5.16367
 L -168.059,5.09526 L -167.982,5.03409 L -167.9,4.98073 L -167.813,4.9357 L -167.721,4.89943 L -167.627,4.87228
 L -167.531,4.85451 L -167.433,4.84627 L -167.335,4.84766 L -167.237,4.85866 L -167.141,4.87917 L -167.048,4.90898
 L -166.958,4.94781 L -166.872,4.9953 L -166.791,5.05098 L -166.716,5.1143 L -166.648,5.18468 L -166.586,5.26141
 L -166.533,5.34377 L -166.488,5.43097 L -166.452,5.52216 L -166.425,5.61646 L -166.407,5.71297 L -166.399,5.81076
 L -166.4,5.90889 L -166.411,6.00639 L -166.431,6.10237 L -166.461,6.19586 L -166.5,6.286 L -166.548,6.37187
 L -166.603,6.45268 L -166.667,6.52765 L -166.737,6.59605 L -166.814,6.65723 L -166.896,6.71059 L -166.983,6.75562
 L -167.074,6.79189 L -167.169,6.81903 L -167.265,6.83682 L -167.363,6.84505 z
M 167.265,6.83682 L 167.169,6.81903 L 167.074,6.79189 L 166.983,6.75562 L 166.896,6.71059 L 166.814,6.65723
 L 166.737,6.59605 L 166.667,6.52765 L 166.603,6.45268 L 166.548,6.37187 L 166.5,6.286 L 166.461,6.19586
 L 166.431,6.10237 L 166.411,6.00639 L 166.4,5.90889 L 166.399,5.81076 L 166.407,5.71297 L 166.425,5.61646
 L 166.452,5.52216 L 166.488,5.43097 L 166.533,5.34377 L 166.586,5.26141 L 166.648,5.18468 L 166.716,5.1143
 L 166.791,5.05098 L 166.872,4.9953 L 166.958,4.94781 L 167.048,4.90898 L 167.141,4.87917 L 167.237,4.85866
 L 167.335,4.84766 L 167.433,4.84627 L 167.531,4.85451 L 167.627,4.87228 L 167.721,4.89943 L 167.813,4.9357
 L 167.9,4.98073 L 167.982,5.03409 L 168.059,5.09526 L 168.129,5.16367 L 168.193,5.23863 L 168.248,5.31944
 L 168.296,5.40533 L 168.335,5.49545 L 168.364,5.58894 L 168.385,5.68492 L 168.396,5.78242 L 168.397,5.88055
 L 168.389,5.97835 L 168.371,6.07486 L 168.344,6.16916 L 168.308,6.26035 L 168.263,6.34755 L 168.21,6.4299
 L 168.148,6.50664 L 168.08,6.57701 L 168.005,6.64034 L 167.924,6.69601 L 167.838,6.7435 L 167.748,6.78233
 L 167.655,6.81215 L 167.559,6.83266 L 167.461,6.84366 L 167.363,6.84505 z
M 166.13,21.4057 L 166.033,21.3889 L 165.938,21.3628 L 165.847,21.3275 L 165.759,21.2835 L 165.676,21.231
 L 165.599,21.1707 L 165.528,21.103 L 165.463,21.0288 L 165.407,20.9486 L 165.359,20.8632 L 165.319,20.7735
 L 165.288,20.6803 L 165.266,20.5846 L 165.254,20.4872 L 165.252,20.3891 L 165.259,20.2912 L 165.276,20.1945
 L 165.302,20.0999 L 165.337,20.0084 L 165.381,19.9207 L 165.434,19.8378 L 165.494,19.7603 L 165.562,19.6892
 L 165.636,19.6251 L 165.716,19.5685 L 165.801,19.5201 L 165.891,19.4803 L 165.984,19.4495 L 166.08,19.4279
 L 166.177,19.4159 L 166.275,19.4134 L 166.373,19.4206 L 166.47,19.4373 L 166.565,19.4634 L 166.656,19.4987
 L 166.744,19.5428 L 166.827,19.5952 L 166.904,19.6555 L 166.975,19.7232 L 167.039,19.7974 L 167.096,19.8777
 L 167.144,19.963 L 167.184,20.0527 L 167.215,20.1459 L 167.237,20.2416 L 167.249,20.339 L 167.251,20.4371
 L 167.244,20.535 L 167.227,20.6317 L 167.201,20.7263 L 167.166,20.8179 L 167.122,20.9055 L 167.069,20.9885
 L 167.009,21.0659 L 166.941,21.137 L 166.867,21.2011 L 166.787,21.2577 L 166.702,21.3061 L 166.612,21.3459
 L 166.519,21.3767 L 166.423,21.3983 L 166.326,21.4104 L 166.227,21.4128 z
M -166.326,21.4104 L -166.423,21.3983 L -166.519,21.3767 L -166.612,21.3459 L -166.702,21.3061 L -166.787,21.2577
 L -166.867,21.2011 L -166.941,21.137 L -167.009,21.0659 L -167.069,20.9885 L -167.122,20.9055 L -167.166,20.8179
 L -167.201,20.7263 L -167.227,20.6317 L -167.244,20.535 L -167.251,20.4371 L -167.249,20.339 L -167.237,20.2416
 L -167.215,20.1459 L -167.184,20.0527 L -167.144,19.963 L -167.096,19.8777 L -167.039,19.7974 L -166.975,19.7232
 L -166.904,19.6555 L -166.827,19.5952 L -166.744,19.5428 L -166.656,19.4987 L -166.565,19.4634 L -166.47,19.4373
 L -166.373,19.4206 L -166.275,19.4134 L -166.177,19.4159 L -166.08,19.4279 L -165.984,19.4495 L -165.891,19.4803
 L -165.801,19.5201 L -165.716,19.5685 L -165.636,19.6251 L -165.562,19.6892 L -165.494,19.7603 L -165.434,19.8378
 L -165.381,19.9207 L -165.337,20.0084 L -165.302,20.0999 L -165.276,20.1945 L -165.259,20.2912 L -165.252,20.3891
 L -165.254,20.4872 L -165.266,20.5846 L -165.288,20.6803 L -165.319,20.7735 L -165.359,20.8632 L -165.407,20.9486
 L -165.463,21.0288 L -165.528,21.103 L -165.599,21.1707 L -165.676,21.231 L -165.759,21.2835 L -165.847,21.3275
 L -165.938,21.3628 L -166.033,21.3889 L -166.13,21.4057 L -166.227,21.4128 z
" stroke="black" fill="lightgray" stroke-width="0.5"/>
</svg>
