  0
SECTION
  2
BLOCKS
  0
ENDSEC
  0
SECTION
  2
ENTITIES
  0
LINE
  8
0
 10
-155.987
 20
-41.7965
 11
-156.66
 21
-39.2413
  0
LINE
  8
0
 10
-156.66
 20
-39.2413
 11
-157.576
 21
-35.3848
  0
LINE
  8
0
 10
-157.576
 20
-35.3848
 11
-158.397
 21
-31.5071
  0
LINE
  8
0
 10
-158.397
 20
-31.5071
 11
-159.122
 21
-27.6103
  0
LINE
  8
0
 10
-159.122
 20
-27.6103
 11
-159.752
 21
-23.697
  0
LINE
  8
0
 10
-159.752
 20
-23.697
 11
-160.285
 21
-19.7693
  0
LINE
  8
0
 10
-160.285
 20
-19.7693
 11
-160.722
 21
-15.8298
  0
LINE
  8
0
 10
-160.722
 20
-15.8298
 11
-161.062
 21
-11.8807
  0
LINE
  8
0
 10
-161.062
 20
-11.8807
 11
-161.305
 21
-7.92442
  0
LINE
  8
0
 10
-161.305
 20
-7.92442
 11
-161.451
 21
-3.96339
  0
LINE
  8
0
 10
-161.451
 20
-3.96339
 11
-161.5
 21
0
  0
LINE
  8
0
 10
-161.5
 20
0
 11
-173
 21
0
  0
LINE
  8
0
 10
-173
 20
0
 11
-172.948
 21
-4.24562
  0
LINE
  8
0
 10
-172.948
 20
-4.24562
 11
-172.792
 21
-8.48869
  0
LINE
  8
0
 10
-172.792
 20
-8.48869
 11
-172.531
 21
-12.7267
  0
LINE
  8
0
 10
-172.531
 20
-12.7267
 11
-172.167
 21
-16.957
  0
LINE
  8
0
 10
-172.167
 20
-16.957
 11
-171.699
 21
-21.177
  0
LINE
  8
0
 10
-171.699
 20
-21.177
 11
-171.128
 21
-25.3844
  0
LINE
  8
0
 10
-171.128
 20
-25.3844
 11
-170.453
 21
-29.5764
  0
LINE
  8
0
 10
-170.453
 20
-29.5764
 11
-169.676
 21
-33.7506
  0
LINE
  8
0
 10
-169.676
 20
-33.7506
 11
-168.796
 21
-37.9045
  0
LINE
  8
0
 10
-168.796
 20
-37.9045
 11
-167.815
 21
-42.0356
  0
LINE
  8
0
 10
-167.815
 20
-42.0356
 11
-167.094
 21
-44.7727
  0
LINE
  8
0
 10
-167.094
 20
-44.7727
 11
-167.105
 21
-44.7757
  0
LINE
  8
0
 10
-167.105
 20
-44.7757
 11
-167.022
 21
-44.7545
  0
LINE
  8
0
 10
-167.022
 20
-44.7545
 11
-166.938
 21
-44.7353
  0
LINE
  8
0
 10
-166.938
 20
-44.7353
 11
-166.854
 21
-44.7182
  0
LINE
  8
0
 10
-166.854
 20
-44.7182
 11
-166.769
 21
-44.7032
  0
LINE
  8
0
 10
-166.769
 20
-44.7032
 11
-166.685
 21
-44.6902
  0
LINE
  8
0
 10
-166.685
 20
-44.6902
 11
-166.599
 21
-44.6794
  0
LINE
  8
0
 10
-166.599
 20
-44.6794
 11
-166.514
 21
-44.6706
  0
LINE
  8
0
 10
-166.514
 20
-44.6706
 11
-166.428
 21
-44.6639
  0
LINE
  8
0
 10
-166.428
 20
-44.6639
 11
-166.342
 21
-44.6594
  0
LINE
  8
0
 10
-166.342
 20
-44.6594
 11
-166.257
 21
-44.6569
  0
LINE
  8
0
 10
-166.257
 20
-44.6569
 11
-166.171
 21
-44.6565
  0
LINE
  8
0
 10
-166.171
 20
-44.6565
 11
-166.085
 21
-44.6583
  0
LINE
  8
0
 10
-166.085
 20
-44.6583
 11
-165.999
 21
-44.6622
  0
LINE
  8
0
 10
-165.999
 20
-44.6622
 11
-165.913
 21
-44.6681
  0
LINE
  8
0
 10
-165.913
 20
-44.6681
 11
-165.828
 21
-44.6762
  0
LINE
  8
0
 10
-165.828
 20
-44.6762
 11
-165.742
 21
-44.6864
  0
LINE
  8
0
 10
-165.742
 20
-44.6864
 11
-165.657
 21
-44.6986
  0
LINE
  8
0
 10
-165.657
 20
-44.6986
 11
-165.573
 21
-44.713
  0
LINE
  8
0
 10
-165.573
 20
-44.713
 11
-165.488
 21
-44.7294
  0
LINE
  8
0
 10
-165.488
 20
-44.7294
 11
-165.405
 21
-44.7479
  0
LINE
  8
0
 10
-165.405
 20
-44.7479
 11
-165.321
 21
-44.7684
  0
LINE
  8
0
 10
-165.321
 20
-44.7684
 11
-165.238
 21
-44.791
  0
LINE
  8
0
 10
-165.238
 20
-44.791
 11
-165.156
 21
-44.8156
  0
LINE
  8
0
 10
-165.156
 20
-44.8156
 11
-165.074
 21
-44.8422
  0
LINE
  8
0
 10
-165.074
 20
-44.8422
 11
-164.993
 21
-44.8708
  0
LINE
  8
0
 10
-164.993
 20
-44.8708
 11
-164.913
 21
-44.9014
  0
LINE
  8
0
 10
-164.913
 20
-44.9014
 11
-164.833
 21
-44.9339
  0
LINE
  8
0
 10
-164.833
 20
-44.9339
 11
-164.755
 21
-44.9684
  0
LINE
  8
0
 10
-164.755
 20
-44.9684
 11
-164.677
 21
-45.0048
  0
LINE
  8
0
 10
-164.677
 20
-45.0048
 11
-164.6
 21
-45.0431
  0
LINE
  8
0
 10
-164.6
 20
-45.0431
 11
-164.524
 21
-45.0833
  0
LINE
  8
0
 10
-164.524
 20
-45.0833
 11
-164.449
 21
-45.1253
  0
LINE
  8
0
 10
-164.449
 20
-45.1253
 11
-164.375
 21
-45.1692
  0
LINE
  8
0
 10
-164.375
 20
-45.1692
 11
-164.303
 21
-45.2149
  0
LINE
  8
0
 10
-164.303
 20
-45.2149
 11
-164.231
 21
-45.2623
  0
LINE
  8
0
 10
-164.231
 20
-45.2623
 11
-164.161
 21
-45.3115
  0
LINE
  8
0
 10
-164.161
 20
-45.3115
 11
-164.091
 21
-45.3624
  0
LINE
  8
0
 10
-164.091
 20
-45.3624
 11
-164.023
 21
-45.4149
  0
LINE
  8
0
 10
-164.023
 20
-45.4149
 11
-163.957
 21
-45.4691
  0
LINE
  8
0
 10
-163.957
 20
-45.4691
 11
-163.892
 21
-45.525
  0
LINE
  8
0
 10
-163.892
 20
-45.525
 11
-163.828
 21
-45.5824
  0
LINE
  8
0
 10
-163.828
 20
-45.5824
 11
-163.765
 21
-45.6414
  0
LINE
  8
0
 10
-163.765
 20
-45.6414
 11
-163.751
 21
-45.6559
  0
LINE
  8
0
 10
-163.751
 20
-45.6559
 11
-162.68
 21
-49.3484
  0
LINE
  8
0
 10
-162.68
 20
-49.3484
 11
-161.42
 21
-53.3259
  0
LINE
  8
0
 10
-161.42
 20
-53.3259
 11
-160.062
 21
-57.2713
  0
LINE
  8
0
 10
-160.062
 20
-57.2713
 11
-158.609
 21
-61.1821
  0
LINE
  8
0
 10
-158.609
 20
-61.1821
 11
-157.06
 21
-65.0562
  0
LINE
  8
0
 10
-157.06
 20
-65.0562
 11
-155.416
 21
-68.891
  0
LINE
  8
0
 10
-155.416
 20
-68.891
 11
-153.678
 21
-72.6844
  0
LINE
  8
0
 10
-153.678
 20
-72.6844
 11
-151.848
 21
-76.4339
  0
LINE
  8
0
 10
-151.848
 20
-76.4339
 11
-149.927
 21
-80.1374
  0
LINE
  8
0
 10
-149.927
 20
-80.1374
 11
-147.915
 21
-83.7927
  0
LINE
  8
0
 10
-147.915
 20
-83.7927
 11
-145.814
 21
-87.3975
  0
LINE
  8
0
 10
-145.814
 20
-87.3975
 11
-143.625
 21
-90.9496
  0
LINE
  8
0
 10
-143.625
 20
-90.9496
 11
-141.35
 21
-94.4469
  0
LINE
  8
0
 10
-141.35
 20
-94.4469
 11
-138.989
 21
-97.8874
  0
LINE
  8
0
 10
-138.989
 20
-97.8874
 11
-136.545
 21
-101.269
  0
LINE
  8
0
 10
-136.545
 20
-101.269
 11
-134.019
 21
-104.589
  0
LINE
  8
0
 10
-134.019
 20
-104.589
 11
-131.412
 21
-107.847
  0
LINE
  8
0
 10
-131.412
 20
-107.847
 11
-128.726
 21
-111.039
  0
LINE
  8
0
 10
-128.726
 20
-111.039
 11
-125.962
 21
-114.165
  0
LINE
  8
0
 10
-125.962
 20
-114.165
 11
-123.122
 21
-117.222
  0
LINE
  8
0
 10
-123.122
 20
-117.222
 11
-120.208
 21
-120.208
  0
LINE
  8
0
 10
-120.208
 20
-120.208
 11
-117.222
 21
-123.122
  0
LINE
  8
0
 10
-117.222
 20
-123.122
 11
-114.165
 21
-125.962
  0
LINE
  8
0
 10
-114.165
 20
-125.962
 11
-111.039
 21
-128.726
  0
LINE
  8
0
 10
-111.039
 20
-128.726
 11
-107.847
 21
-131.412
  0
LINE
  8
0
 10
-107.847
 20
-131.412
 11
-104.589
 21
-134.019
  0
LINE
  8
0
 10
-104.589
 20
-134.019
 11
-101.269
 21
-136.545
  0
LINE
  8
0
 10
-101.269
 20
-136.545
 11
-97.8874
 21
-138.989
  0
LINE
  8
0
 10
-97.8874
 20
-138.989
 11
-94.4469
 21
-141.35
  0
LINE
  8
0
 10
-94.4469
 20
-141.35
 11
-90.9496
 21
-143.625
  0
LINE
  8
0
 10
-90.9496
 20
-143.625
 11
-87.3975
 21
-145.814
  0
LINE
  8
0
 10
-87.3975
 20
-145.814
 11
-83.7927
 21
-147.915
  0
LINE
  8
0
 10
-83.7927
 20
-147.915
 11
-80.1374
 21
-149.927
  0
LINE
  8
0
 10
-80.1374
 20
-149.927
 11
-76.4339
 21
-151.848
  0
LINE
  8
0
 10
-76.4339
 20
-151.848
 11
-72.6844
 21
-153.678
  0
LINE
  8
0
 10
-72.6844
 20
-153.678
 11
-68.891
 21
-155.416
  0
LINE
  8
0
 10
-68.891
 20
-155.416
 11
-65.0562
 21
-157.06
  0
LINE
  8
0
 10
-65.0562
 20
-157.06
 11
-61.1821
 21
-158.609
  0
LINE
  8
0
 10
-61.1821
 20
-158.609
 11
-57.2713
 21
-160.062
  0
LINE
  8
0
 10
-57.2713
 20
-160.062
 11
-53.3259
 21
-161.42
  0
LINE
  8
0
 10
-53.3259
 20
-161.42
 11
-49.3484
 21
-162.68
  0
LINE
  8
0
 10
-49.3484
 20
-162.68
 11
-45.3412
 21
-163.842
  0
LINE
  8
0
 10
-45.3412
 20
-163.842
 11
-41.3066
 21
-164.905
  0
LINE
  8
0
 10
-41.3066
 20
-164.905
 11
-37.2472
 21
-165.869
  0
LINE
  8
0
 10
-37.2472
 20
-165.869
 11
-33.1653
 21
-166.733
  0
LINE
  8
0
 10
-33.1653
 20
-166.733
 11
-29.0635
 21
-167.497
  0
LINE
  8
0
 10
-29.0635
 20
-167.497
 11
-24.9442
 21
-168.16
  0
LINE
  8
0
 10
-24.9442
 20
-168.16
 11
-20.8098
 21
-168.722
  0
LINE
  8
0
 10
-20.8098
 20
-168.722
 11
-16.6629
 21
-169.181
  0
LINE
  8
0
 10
-16.6629
 20
-169.181
 11
-12.506
 21
-169.539
  0
LINE
  8
0
 10
-12.506
 20
-169.539
 11
-8.34149
 21
-169.795
  0
LINE
  8
0
 10
-8.34149
 20
-169.795
 11
-4.172
 21
-169.949
  0
LINE
  8
0
 10
-4.172
 20
-169.949
 11
0
 21
-170
  0
LINE
  8
0
 10
0
 20
-170
 11
4.172
 21
-169.949
  0
LINE
  8
0
 10
4.172
 20
-169.949
 11
8.34149
 21
-169.795
  0
LINE
  8
0
 10
8.34149
 20
-169.795
 11
12.506
 21
-169.539
  0
LINE
  8
0
 10
12.506
 20
-169.539
 11
16.6629
 21
-169.181
  0
LINE
  8
0
 10
16.6629
 20
-169.181
 11
20.8098
 21
-168.722
  0
LINE
  8
0
 10
20.8098
 20
-168.722
 11
24.9442
 21
-168.16
  0
LINE
  8
0
 10
24.9442
 20
-168.16
 11
29.0635
 21
-167.497
  0
LINE
  8
0
 10
29.0635
 20
-167.497
 11
33.1653
 21
-166.733
  0
LINE
  8
0
 10
33.1653
 20
-166.733
 11
37.2472
 21
-165.869
  0
LINE
  8
0
 10
37.2472
 20
-165.869
 11
41.3066
 21
-164.905
  0
LINE
  8
0
 10
41.3066
 20
-164.905
 11
45.3412
 21
-163.842
  0
LINE
  8
0
 10
45.3412
 20
-163.842
 11
49.3484
 21
-162.68
  0
LINE
  8
0
 10
49.3484
 20
-162.68
 11
53.3259
 21
-161.42
  0
LINE
  8
0
 10
53.3259
 20
-161.42
 11
57.2713
 21
-160.062
  0
LINE
  8
0
 10
57.2713
 20
-160.062
 11
61.1821
 21
-158.609
  0
LINE
  8
0
 10
61.1821
 20
-158.609
 11
65.0562
 21
-157.06
  0
LINE
  8
0
 10
65.0562
 20
-157.06
 11
68.891
 21
-155.416
  0
LINE
  8
0
 10
68.891
 20
-155.416
 11
72.6844
 21
-153.678
  0
LINE
  8
0
 10
72.6844
 20
-153.678
 11
76.4339
 21
-151.848
  0
LINE
  8
0
 10
76.4339
 20
-151.848
 11
80.1374
 21
-149.927
  0
LINE
  8
0
 10
80.1374
 20
-149.927
 11
83.7927
 21
-147.915
  0
LINE
  8
0
 10
83.7927
 20
-147.915
 11
87.3975
 21
-145.814
  0
LINE
  8
0
 10
87.3975
 20
-145.814
 11
90.9496
 21
-143.625
  0
LINE
  8
0
 10
90.9496
 20
-143.625
 11
94.4469
 21
-141.35
  0
LINE
  8
0
 10
94.4469
 20
-141.35
 11
97.8874
 21
-138.989
  0
LINE
  8
0
 10
97.8874
 20
-138.989
 11
101.269
 21
-136.545
  0
LINE
  8
0
 10
101.269
 20
-136.545
 11
104.589
 21
-134.019
  0
LINE
  8
0
 10
104.589
 20
-134.019
 11
107.847
 21
-131.412
  0
LINE
  8
0
 10
107.847
 20
-131.412
 11
111.039
 21
-128.726
  0
LINE
  8
0
 10
111.039
 20
-128.726
 11
114.165
 21
-125.962
  0
LINE
  8
0
 10
114.165
 20
-125.962
 11
117.222
 21
-123.122
  0
LINE
  8
0
 10
117.222
 20
-123.122
 11
120.208
 21
-120.208
  0
LINE
  8
0
 10
120.208
 20
-120.208
 11
123.122
 21
-117.222
  0
LINE
  8
0
 10
123.122
 20
-117.222
 11
125.962
 21
-114.165
  0
LINE
  8
0
 10
125.962
 20
-114.165
 11
128.726
 21
-111.039
  0
LINE
  8
0
 10
128.726
 20
-111.039
 11
131.412
 21
-107.847
  0
LINE
  8
0
 10
131.412
 20
-107.847
 11
134.019
 21
-104.589
  0
LINE
  8
0
 10
134.019
 20
-104.589
 11
136.545
 21
-101.269
  0
LINE
  8
0
 10
136.545
 20
-101.269
 11
138.989
 21
-97.8874
  0
LINE
  8
0
 10
138.989
 20
-97.8874
 11
141.35
 21
-94.4469
  0
LINE
  8
0
 10
141.35
 20
-94.4469
 11
143.625
 21
-90.9496
  0
LINE
  8
0
 10
143.625
 20
-90.9496
 11
145.814
 21
-87.3975
  0
LINE
  8
0
 10
145.814
 20
-87.3975
 11
147.915
 21
-83.7927
  0
LINE
  8
0
 10
147.915
 20
-83.7927
 11
149.927
 21
-80.1374
  0
LINE
  8
0
 10
149.927
 20
-80.1374
 11
151.848
 21
-76.4339
  0
LINE
  8
0
 10
151.848
 20
-76.4339
 11
153.678
 21
-72.6844
  0
LINE
  8
0
 10
153.678
 20
-72.6844
 11
155.416
 21
-68.891
  0
LINE
  8
0
 10
155.416
 20
-68.891
 11
157.06
 21
-65.0562
  0
LINE
  8
0
 10
157.06
 20
-65.0562
 11
158.609
 21
-61.1821
  0
LINE
  8
0
 10
158.609
 20
-61.1821
 11
160.062
 21
-57.2713
  0
LINE
  8
0
 10
160.062
 20
-57.2713
 11
161.42
 21
-53.3259
  0
LINE
  8
0
 10
161.42
 20
-53.3259
 11
162.68
 21
-49.3484
  0
LINE
  8
0
 10
162.68
 20
-49.3484
 11
163.751
 21
-45.6559
  0
LINE
  8
0
 10
163.751
 20
-45.6559
 11
163.765
 21
-45.6414
  0
LINE
  8
0
 10
163.765
 20
-45.6414
 11
163.828
 21
-45.5824
  0
LINE
  8
0
 10
163.828
 20
-45.5824
 11
163.892
 21
-45.525
  0
LINE
  8
0
 10
163.892
 20
-45.525
 11
163.957
 21
-45.4691
  0
LINE
  8
0
 10
163.957
 20
-45.4691
 11
164.023
 21
-45.4149
  0
LINE
  8
0
 10
164.023
 20
-45.4149
 11
164.091
 21
-45.3624
  0
LINE
  8
0
 10
164.091
 20
-45.3624
 11
164.161
 21
-45.3115
  0
LINE
  8
0
 10
164.161
 20
-45.3115
 11
164.231
 21
-45.2623
  0
LINE
  8
0
 10
164.231
 20
-45.2623
 11
164.303
 21
-45.2149
  0
LINE
  8
0
 10
164.303
 20
-45.2149
 11
164.375
 21
-45.1692
  0
LINE
  8
0
 10
164.375
 20
-45.1692
 11
164.449
 21
-45.1253
  0
LINE
  8
0
 10
164.449
 20
-45.1253
 11
164.524
 21
-45.0833
  0
LINE
  8
0
 10
164.524
 20
-45.0833
 11
164.6
 21
-45.0431
  0
LINE
  8
0
 10
164.6
 20
-45.0431
 11
164.677
 21
-45.0048
  0
LINE
  8
0
 10
164.677
 20
-45.0048
 11
164.755
 21
-44.9684
  0
LINE
  8
0
 10
164.755
 20
-44.9684
 11
164.833
 21
-44.9339
  0
LINE
  8
0
 10
164.833
 20
-44.9339
 11
164.913
 21
-44.9014
  0
LINE
  8
0
 10
164.913
 20
-44.9014
 11
164.993
 21
-44.8708
  0
LINE
  8
0
 10
164.993
 20
-44.8708
 11
165.074
 21
-44.8422
  0
LINE
  8
0
 10
165.074
 20
-44.8422
 11
165.156
 21
-44.8156
  0
LINE
  8
0
 10
165.156
 20
-44.8156
 11
165.238
 21
-44.791
  0
LINE
  8
0
 10
165.238
 20
-44.791
 11
165.321
 21
-44.7684
  0
LINE
  8
0
 10
165.321
 20
-44.7684
 11
165.405
 21
-44.7479
  0
LINE
  8
0
 10
165.405
 20
-44.7479
 11
165.488
 21
-44.7294
  0
LINE
  8
0
 10
165.488
 20
-44.7294
 11
165.573
 21
-44.713
  0
LINE
  8
0
 10
165.573
 20
-44.713
 11
165.657
 21
-44.6986
  0
LINE
  8
0
 10
165.657
 20
-44.6986
 11
165.742
 21
-44.6864
  0
LINE
  8
0
 10
165.742
 20
-44.6864
 11
165.828
 21
-44.6762
  0
LINE
  8
0
 10
165.828
 20
-44.6762
 11
165.913
 21
-44.6681
  0
LINE
  8
0
 10
165.913
 20
-44.6681
 11
165.999
 21
-44.6622
  0
LINE
  8
0
 10
165.999
 20
-44.6622
 11
166.085
 21
-44.6583
  0
LINE
  8
0
 10
166.085
 20
-44.6583
 11
166.171
 21
-44.6565
  0
LINE
  8
0
 10
166.171
 20
-44.6565
 11
166.257
 21
-44.6569
  0
LINE
  8
0
 10
166.257
 20
-44.6569
 11
166.342
 21
-44.6594
  0
LINE
  8
0
 10
166.342
 20
-44.6594
 11
166.428
 21
-44.6639
  0
LINE
  8
0
 10
166.428
 20
-44.6639
 11
166.514
 21
-44.6706
  0
LINE
  8
0
 10
166.514
 20
-44.6706
 11
166.599
 21
-44.6794
  0
LINE
  8
0
 10
166.599
 20
-44.6794
 11
166.685
 21
-44.6902
  0
LINE
  8
0
 10
166.685
 20
-44.6902
 11
166.769
 21
-44.7032
  0
LINE
  8
0
 10
166.769
 20
-44.7032
 11
166.854
 21
-44.7182
  0
LINE
  8
0
 10
166.854
 20
-44.7182
 11
166.938
 21
-44.7353
  0
LINE
  8
0
 10
166.938
 20
-44.7353
 11
167.022
 21
-44.7545
  0
LINE
  8
0
 10
167.022
 20
-44.7545
 11
167.105
 21
-44.7757
  0
LINE
  8
0
 10
167.105
 20
-44.7757
 11
167.094
 21
-44.7727
  0
LINE
  8
0
 10
167.094
 20
-44.7727
 11
167.815
 21
-42.0356
  0
LINE
  8
0
 10
167.815
 20
-42.0356
 11
168.796
 21
-37.9045
  0
LINE
  8
0
 10
168.796
 20
-37.9045
 11
169.676
 21
-33.7506
  0
LINE
  8
0
 10
169.676
 20
-33.7506
 11
170.453
 21
-29.5764
  0
LINE
  8
0
 10
170.453
 20
-29.5764
 11
171.128
 21
-25.3844
  0
LINE
  8
0
 10
171.128
 20
-25.3844
 11
171.699
 21
-21.177
  0
LINE
  8
0
 10
171.699
 20
-21.177
 11
172.167
 21
-16.957
  0
LINE
  8
0
 10
172.167
 20
-16.957
 11
172.531
 21
-12.7267
  0
LINE
  8
0
 10
172.531
 20
-12.7267
 11
172.792
 21
-8.48869
  0
LINE
  8
0
 10
172.792
 20
-8.48869
 11
172.948
 21
-4.24562
  0
LINE
  8
0
 10
172.948
 20
-4.24562
 11
173
 21
0
  0
LINE
  8
0
 10
173
 20
0
 11
161.5
 21
0
  0
LINE
  8
0
 10
161.5
 20
0
 11
161.451
 21
-3.96339
  0
LINE
  8
0
 10
161.451
 20
-3.96339
 11
161.305
 21
-7.92442
  0
LINE
  8
0
 10
161.305
 20
-7.92442
 11
161.062
 21
-11.8807
  0
LINE
  8
0
 10
161.062
 20
-11.8807
 11
160.722
 21
-15.8298
  0
LINE
  8
0
 10
160.722
 20
-15.8298
 11
160.285
 21
-19.7693
  0
LINE
  8
0
 10
160.285
 20
-19.7693
 11
159.752
 21
-23.697
  0
LINE
  8
0
 10
159.752
 20
-23.697
 11
159.122
 21
-27.6103
  0
LINE
  8
0
 10
159.122
 20
-27.6103
 11
158.397
 21
-31.5071
  0
LINE
  8
0
 10
158.397
 20
-31.5071
 11
157.576
 21
-35.3848
  0
LINE
  8
0
 10
157.576
 20
-35.3848
 11
156.66
 21
-39.2413
  0
LINE
  8
0
 10
156.66
 20
-39.2413
 11
155.987
 21
-41.7965
  0
LINE
  8
0
 10
155.987
 20
-41.7965
 11
155.997
 21
-41.7993
  0
LINE
  8
0
 10
155.997
 20
-41.7993
 11
156.08
 21
-41.8225
  0
LINE
  8
0
 10
156.08
 20
-41.8225
 11
156.162
 21
-41.8478
  0
LINE
  8
0
 10
156.162
 20
-41.8478
 11
156.243
 21
-41.8751
  0
LINE
  8
0
 10
156.243
 20
-41.8751
 11
156.324
 21
-41.9043
  0
LINE
  8
0
 10
156.324
 20
-41.9043
 11
156.404
 21
-41.9356
  0
LINE
  8
0
 10
156.404
 20
-41.9356
 11
156.483
 21
-41.9688
  0
LINE
  8
0
 10
156.483
 20
-41.9688
 11
156.562
 21
-42.0039
  0
LINE
  8
0
 10
156.562
 20
-42.0039
 11
156.639
 21
-42.041
  0
LINE
  8
0
 10
156.639
 20
-42.041
 11
156.716
 21
-42.0799
  0
LINE
  8
0
 10
156.716
 20
-42.0799
 11
156.791
 21
-42.1207
  0
LINE
  8
0
 10
156.791
 20
-42.1207
 11
156.866
 21
-42.1633
  0
LINE
  8
0
 10
156.866
 20
-42.1633
 11
156.939
 21
-42.2078
  0
LINE
  8
0
 10
156.939
 20
-42.2078
 11
157.012
 21
-42.2541
  0
LINE
  8
0
 10
157.012
 20
-42.2541
 11
157.083
 21
-42.3021
  0
LINE
  8
0
 10
157.083
 20
-42.3021
 11
157.153
 21
-42.3518
  0
LINE
  8
0
 10
157.153
 20
-42.3518
 11
157.222
 21
-42.4033
  0
LINE
  8
0
 10
157.222
 20
-42.4033
 11
157.289
 21
-42.4564
  0
LINE
  8
0
 10
157.289
 20
-42.4564
 11
157.355
 21
-42.5112
  0
LINE
  8
0
 10
157.355
 20
-42.5112
 11
157.42
 21
-42.5675
  0
LINE
  8
0
 10
157.42
 20
-42.5675
 11
157.484
 21
-42.6255
  0
LINE
  8
0
 10
157.484
 20
-42.6255
 11
157.546
 21
-42.685
  0
LINE
  8
0
 10
157.546
 20
-42.685
 11
157.606
 21
-42.746
  0
LINE
  8
0
 10
157.606
 20
-42.746
 11
157.665
 21
-42.8084
  0
LINE
  8
0
 10
157.665
 20
-42.8084
 11
157.723
 21
-42.8723
  0
LINE
  8
0
 10
157.723
 20
-42.8723
 11
157.778
 21
-42.9376
  0
LINE
  8
0
 10
157.778
 20
-42.9376
 11
157.833
 21
-43.0042
  0
LINE
  8
0
 10
157.833
 20
-43.0042
 11
157.885
 21
-43.0721
  0
LINE
  8
0
 10
157.885
 20
-43.0721
 11
157.936
 21
-43.1413
  0
LINE
  8
0
 10
157.936
 20
-43.1413
 11
157.985
 21
-43.2118
  0
LINE
  8
0
 10
157.985
 20
-43.2118
 11
158.033
 21
-43.2834
  0
LINE
  8
0
 10
158.033
 20
-43.2834
 11
158.078
 21
-43.3562
  0
LINE
  8
0
 10
158.078
 20
-43.3562
 11
158.122
 21
-43.43
  0
LINE
  8
0
 10
158.122
 20
-43.43
 11
158.164
 21
-43.5049
  0
LINE
  8
0
 10
158.164
 20
-43.5049
 11
158.204
 21
-43.5808
  0
LINE
  8
0
 10
158.204
 20
-43.5808
 11
158.243
 21
-43.6577
  0
LINE
  8
0
 10
158.243
 20
-43.6577
 11
158.279
 21
-43.7355
  0
LINE
  8
0
 10
158.279
 20
-43.7355
 11
158.314
 21
-43.8142
  0
LINE
  8
0
 10
158.314
 20
-43.8142
 11
158.346
 21
-43.8937
  0
LINE
  8
0
 10
158.346
 20
-43.8937
 11
158.377
 21
-43.974
  0
LINE
  8
0
 10
158.377
 20
-43.974
 11
158.405
 21
-44.055
  0
LINE
  8
0
 10
158.405
 20
-44.055
 11
158.432
 21
-44.1366
  0
LINE
  8
0
 10
158.432
 20
-44.1366
 11
158.457
 21
-44.2189
  0
LINE
  8
0
 10
158.457
 20
-44.2189
 11
158.479
 21
-44.3018
  0
LINE
  8
0
 10
158.479
 20
-44.3018
 11
158.5
 21
-44.3852
  0
LINE
  8
0
 10
158.5
 20
-44.3852
 11
158.518
 21
-44.4691
  0
LINE
  8
0
 10
158.518
 20
-44.4691
 11
158.535
 21
-44.5535
  0
LINE
  8
0
 10
158.535
 20
-44.5535
 11
158.549
 21
-44.6382
  0
LINE
  8
0
 10
158.549
 20
-44.6382
 11
158.561
 21
-44.7232
  0
LINE
  8
0
 10
158.561
 20
-44.7232
 11
158.571
 21
-44.8085
  0
LINE
  8
0
 10
158.571
 20
-44.8085
 11
158.579
 21
-44.894
  0
LINE
  8
0
 10
158.579
 20
-44.894
 11
158.585
 21
-44.9797
  0
LINE
  8
0
 10
158.585
 20
-44.9797
 11
158.589
 21
-45.0655
  0
LINE
  8
0
 10
158.589
 20
-45.0655
 11
158.591
 21
-45.1514
  0
LINE
  8
0
 10
158.591
 20
-45.1514
 11
158.591
 21
-45.2373
  0
LINE
  8
0
 10
158.591
 20
-45.2373
 11
158.588
 21
-45.3231
  0
LINE
  8
0
 10
158.588
 20
-45.3231
 11
158.584
 21
-45.4089
  0
LINE
  8
0
 10
158.584
 20
-45.4089
 11
158.577
 21
-45.4946
  0
LINE
  8
0
 10
158.577
 20
-45.4946
 11
158.569
 21
-45.5738
  0
LINE
  8
0
 10
158.569
 20
-45.5738
 11
157.895
 21
-47.897
  0
LINE
  8
0
 10
157.895
 20
-47.897
 11
156.672
 21
-51.7575
  0
LINE
  8
0
 10
156.672
 20
-51.7575
 11
155.355
 21
-55.5868
  0
LINE
  8
0
 10
155.355
 20
-55.5868
 11
153.944
 21
-59.3827
  0
LINE
  8
0
 10
153.944
 20
-59.3827
 11
152.44
 21
-63.1428
  0
LINE
  8
0
 10
152.44
 20
-63.1428
 11
150.845
 21
-66.8648
  0
LINE
  8
0
 10
150.845
 20
-66.8648
 11
149.158
 21
-70.5466
  0
LINE
  8
0
 10
149.158
 20
-70.5466
 11
147.382
 21
-74.1859
  0
LINE
  8
0
 10
147.382
 20
-74.1859
 11
145.517
 21
-77.7805
  0
LINE
  8
0
 10
145.517
 20
-77.7805
 11
143.564
 21
-81.3282
  0
LINE
  8
0
 10
143.564
 20
-81.3282
 11
141.525
 21
-84.827
  0
LINE
  8
0
 10
141.525
 20
-84.827
 11
139.401
 21
-88.2746
  0
LINE
  8
0
 10
139.401
 20
-88.2746
 11
137.192
 21
-91.6691
  0
LINE
  8
0
 10
137.192
 20
-91.6691
 11
134.901
 21
-95.0083
  0
LINE
  8
0
 10
134.901
 20
-95.0083
 11
132.529
 21
-98.2904
  0
LINE
  8
0
 10
132.529
 20
-98.2904
 11
130.077
 21
-101.513
  0
LINE
  8
0
 10
130.077
 20
-101.513
 11
127.547
 21
-104.675
  0
LINE
  8
0
 10
127.547
 20
-104.675
 11
124.939
 21
-107.774
  0
LINE
  8
0
 10
124.939
 20
-107.774
 11
122.257
 21
-110.807
  0
LINE
  8
0
 10
122.257
 20
-110.807
 11
119.501
 21
-113.774
  0
LINE
  8
0
 10
119.501
 20
-113.774
 11
116.673
 21
-116.673
  0
LINE
  8
0
 10
116.673
 20
-116.673
 11
113.774
 21
-119.501
  0
LINE
  8
0
 10
113.774
 20
-119.501
 11
110.807
 21
-122.257
  0
LINE
  8
0
 10
110.807
 20
-122.257
 11
107.774
 21
-124.939
  0
LINE
  8
0
 10
107.774
 20
-124.939
 11
104.675
 21
-127.547
  0
LINE
  8
0
 10
104.675
 20
-127.547
 11
101.513
 21
-130.077
  0
LINE
  8
0
 10
101.513
 20
-130.077
 11
98.2904
 21
-132.529
  0
LINE
  8
0
 10
98.2904
 20
-132.529
 11
95.0083
 21
-134.901
  0
LINE
  8
0
 10
95.0083
 20
-134.901
 11
91.6691
 21
-137.192
  0
LINE
  8
0
 10
91.6691
 20
-137.192
 11
88.2746
 21
-139.401
  0
LINE
  8
0
 10
88.2746
 20
-139.401
 11
84.827
 21
-141.525
  0
LINE
  8
0
 10
84.827
 20
-141.525
 11
81.3282
 21
-143.564
  0
LINE
  8
0
 10
81.3282
 20
-143.564
 11
77.7805
 21
-145.517
  0
LINE
  8
0
 10
77.7805
 20
-145.517
 11
74.1859
 21
-147.382
  0
LINE
  8
0
 10
74.1859
 20
-147.382
 11
70.5466
 21
-149.158
  0
LINE
  8
0
 10
70.5466
 20
-149.158
 11
66.8648
 21
-150.845
  0
LINE
  8
0
 10
66.8648
 20
-150.845
 11
63.1428
 21
-152.44
  0
LINE
  8
0
 10
63.1428
 20
-152.44
 11
59.3827
 21
-153.944
  0
LINE
  8
0
 10
59.3827
 20
-153.944
 11
55.5868
 21
-155.355
  0
LINE
  8
0
 10
55.5868
 20
-155.355
 11
51.7575
 21
-156.672
  0
LINE
  8
0
 10
51.7575
 20
-156.672
 11
47.897
 21
-157.895
  0
LINE
  8
0
 10
47.897
 20
-157.895
 11
44.0076
 21
-159.023
  0
LINE
  8
0
 10
44.0076
 20
-159.023
 11
40.0917
 21
-160.055
  0
LINE
  8
0
 10
40.0917
 20
-160.055
 11
36.1517
 21
-160.991
  0
LINE
  8
0
 10
36.1517
 20
-160.991
 11
32.1899
 21
-161.83
  0
LINE
  8
0
 10
32.1899
 20
-161.83
 11
28.2087
 21
-162.571
  0
LINE
  8
0
 10
28.2087
 20
-162.571
 11
24.2105
 21
-163.214
  0
LINE
  8
0
 10
24.2105
 20
-163.214
 11
20.1978
 21
-163.759
  0
LINE
  8
0
 10
20.1978
 20
-163.759
 11
16.1728
 21
-164.205
  0
LINE
  8
0
 10
16.1728
 20
-164.205
 11
12.1381
 21
-164.553
  0
LINE
  8
0
 10
12.1381
 20
-164.553
 11
8.09616
 21
-164.801
  0
LINE
  8
0
 10
8.09616
 20
-164.801
 11
4.0493
 21
-164.95
  0
LINE
  8
0
 10
4.0493
 20
-164.95
 11
0
 21
-165
  0
LINE
  8
0
 10
0
 20
-165
 11
-4.0493
 21
-164.95
  0
LINE
  8
0
 10
-4.0493
 20
-164.95
 11
-8.09616
 21
-164.801
  0
LINE
  8
0
 10
-8.09616
 20
-164.801
 11
-12.1381
 21
-164.553
  0
LINE
  8
0
 10
-12.1381
 20
-164.553
 11
-16.1728
 21
-164.205
  0
LINE
  8
0
 10
-16.1728
 20
-164.205
 11
-20.1978
 21
-163.759
  0
LINE
  8
0
 10
-20.1978
 20
-163.759
 11
-24.2105
 21
-163.214
  0
LINE
  8
0
 10
-24.2105
 20
-163.214
 11
-28.2087
 21
-162.571
  0
LINE
  8
0
 10
-28.2087
 20
-162.571
 11
-32.1899
 21
-161.83
  0
LINE
  8
0
 10
-32.1899
 20
-161.83
 11
-36.1517
 21
-160.991
  0
LINE
  8
0
 10
-36.1517
 20
-160.991
 11
-40.0917
 21
-160.055
  0
LINE
  8
0
 10
-40.0917
 20
-160.055
 11
-44.0076
 21
-159.023
  0
LINE
  8
0
 10
-44.0076
 20
-159.023
 11
-47.897
 21
-157.895
  0
LINE
  8
0
 10
-47.897
 20
-157.895
 11
-51.7575
 21
-156.672
  0
LINE
  8
0
 10
-51.7575
 20
-156.672
 11
-55.5868
 21
-155.355
  0
LINE
  8
0
 10
-55.5868
 20
-155.355
 11
-59.3827
 21
-153.944
  0
LINE
  8
0
 10
-59.3827
 20
-153.944
 11
-63.1428
 21
-152.44
  0
LINE
  8
0
 10
-63.1428
 20
-152.44
 11
-66.8648
 21
-150.845
  0
LINE
  8
0
 10
-66.8648
 20
-150.845
 11
-70.5466
 21
-149.158
  0
LINE
  8
0
 10
-70.5466
 20
-149.158
 11
-74.1859
 21
-147.382
  0
LINE
  8
0
 10
-74.1859
 20
-147.382
 11
-77.7805
 21
-145.517
  0
LINE
  8
0
 10
-77.7805
 20
-145.517
 11
-81.3282
 21
-143.564
  0
LINE
  8
0
 10
-81.3282
 20
-143.564
 11
-84.827
 21
-141.525
  0
LINE
  8
0
 10
-84.827
 20
-141.525
 11
-88.2746
 21
-139.401
  0
LINE
  8
0
 10
-88.2746
 20
-139.401
 11
-91.6691
 21
-137.192
  0
LINE
  8
0
 10
-91.6691
 20
-137.192
 11
-95.0083
 21
-134.901
  0
LINE
  8
0
 10
-95.0083
 20
-134.901
 11
-98.2904
 21
-132.529
  0
LINE
  8
0
 10
-98.2904
 20
-132.529
 11
-101.513
 21
-130.077
  0
LINE
  8
0
 10
-101.513
 20
-130.077
 11
-104.675
 21
-127.547
  0
LINE
  8
0
 10
-104.675
 20
-127.547
 11
-107.774
 21
-124.939
  0
LINE
  8
0
 10
-107.774
 20
-124.939
 11
-110.807
 21
-122.257
  0
LINE
  8
0
 10
-110.807
 20
-122.257
 11
-113.774
 21
-119.501
  0
LINE
  8
0
 10
-113.774
 20
-119.501
 11
-116.673
 21
-116.673
  0
LINE
  8
0
 10
-116.673
 20
-116.673
 11
-119.501
 21
-113.774
  0
LINE
  8
0
 10
-119.501
 20
-113.774
 11
-122.257
 21
-110.807
  0
LINE
  8
0
 10
-122.257
 20
-110.807
 11
-124.939
 21
-107.774
  0
LINE
  8
0
 10
-124.939
 20
-107.774
 11
-127.547
 21
-104.675
  0
LINE
  8
0
 10
-127.547
 20
-104.675
 11
-130.077
 21
-101.513
  0
LINE
  8
0
 10
-130.077
 20
-101.513
 11
-132.529
 21
-98.2904
  0
LINE
  8
0
 10
-132.529
 20
-98.2904
 11
-134.901
 21
-95.0083
  0
LINE
  8
0
 10
-134.901
 20
-95.0083
 11
-137.192
 21
-91.6691
  0
LINE
  8
0
 10
-137.192
 20
-91.6691
 11
-139.401
 21
-88.2746
  0
LINE
  8
0
 10
-139.401
 20
-88.2746
 11
-141.525
 21
-84.827
  0
LINE
  8
0
 10
-141.525
 20
-84.827
 11
-143.564
 21
-81.3282
  0
LINE
  8
0
 10
-143.564
 20
-81.3282
 11
-145.517
 21
-77.7805
  0
LINE
  8
0
 10
-145.517
 20
-77.7805
 11
-147.382
 21
-74.1859
  0
LINE
  8
0
 10
-147.382
 20
-74.1859
 11
-149.158
 21
-70.5466
  0
LINE
  8
0
 10
-149.158
 20
-70.5466
 11
-150.845
 21
-66.8648
  0
LINE
  8
0
 10
-150.845
 20
-66.8648
 11
-152.44
 21
-63.1428
  0
LINE
  8
0
 10
-152.44
 20
-63.1428
 11
-153.944
 21
-59.3827
  0
LINE
  8
0
 10
-153.944
 20
-59.3827
 11
-155.355
 21
-55.5868
  0
LINE
  8
0
 10
-155.355
 20
-55.5868
 11
-156.672
 21
-51.7575
  0
LINE
  8
0
 10
-156.672
 20
-51.7575
 11
-157.895
 21
-47.897
  0
LINE
  8
0
 10
-157.895
 20
-47.897
 11
-158.569
 21
-45.5738
  0
LINE
  8
0
 10
-158.569
 20
-45.5738
 11
-158.577
 21
-45.4946
  0
LINE
  8
0
 10
-158.577
 20
-45.4946
 11
-158.584
 21
-45.4089
  0
LINE
  8
0
 10
-158.584
 20
-45.4089
 11
-158.588
 21
-45.3231
  0
LINE
  8
0
 10
-158.588
 20
-45.3231
 11
-158.591
 21
-45.2373
  0
LINE
  8
0
 10
-158.591
 20
-45.2373
 11
-158.591
 21
-45.1514
  0
LINE
  8
0
 10
-158.591
 20
-45.1514
 11
-158.589
 21
-45.0655
  0
LINE
  8
0
 10
-158.589
 20
-45.0655
 11
-158.585
 21
-44.9797
  0
LINE
  8
0
 10
-158.585
 20
-44.9797
 11
-158.579
 21
-44.894
  0
LINE
  8
0
 10
-158.579
 20
-44.894
 11
-158.571
 21
-44.8085
  0
LINE
  8
0
 10
-158.571
 20
-44.8085
 11
-158.561
 21
-44.7232
  0
LINE
  8
0
 10
-158.561
 20
-44.7232
 11
-158.549
 21
-44.6382
  0
LINE
  8
0
 10
-158.549
 20
-44.6382
 11
-158.535
 21
-44.5535
  0
LINE
  8
0
 10
-158.535
 20
-44.5535
 11
-158.518
 21
-44.4691
  0
LINE
  8
0
 10
-158.518
 20
-44.4691
 11
-158.5
 21
-44.3852
  0
LINE
  8
0
 10
-158.5
 20
-44.3852
 11
-158.479
 21
-44.3018
  0
LINE
  8
0
 10
-158.479
 20
-44.3018
 11
-158.457
 21
-44.2189
  0
LINE
  8
0
 10
-158.457
 20
-44.2189
 11
-158.432
 21
-44.1366
  0
LINE
  8
0
 10
-158.432
 20
-44.1366
 11
-158.405
 21
-44.055
  0
LINE
  8
0
 10
-158.405
 20
-44.055
 11
-158.377
 21
-43.974
  0
LINE
  8
0
 10
-158.377
 20
-43.974
 11
-158.346
 21
-43.8937
  0
LINE
  8
0
 10
-158.346
 20
-43.8937
 11
-158.314
 21
-43.8142
  0
LINE
  8
0
 10
-158.314
 20
-43.8142
 11
-158.279
 21
-43.7355
  0
LINE
  8
0
 10
-158.279
 20
-43.7355
 11
-158.243
 21
-43.6577
  0
LINE
  8
0
 10
-158.243
 20
-43.6577
 11
-158.204
 21
-43.5808
  0
LINE
  8
0
 10
-158.204
 20
-43.5808
 11
-158.164
 21
-43.5049
  0
LINE
  8
0
 10
-158.164
 20
-43.5049
 11
-158.122
 21
-43.43
  0
LINE
  8
0
 10
-158.122
 20
-43.43
 11
-158.078
 21
-43.3562
  0
LINE
  8
0
 10
-158.078
 20
-43.3562
 11
-158.033
 21
-43.2834
  0
LINE
  8
0
 10
-158.033
 20
-43.2834
 11
-157.985
 21
-43.2118
  0
LINE
  8
0
 10
-157.985
 20
-43.2118
 11
-157.936
 21
-43.1413
  0
LINE
  8
0
 10
-157.936
 20
-43.1413
 11
-157.885
 21
-43.0721
  0
LINE
  8
0
 10
-157.885
 20
-43.0721
 11
-157.833
 21
-43.0042
  0
LINE
  8
0
 10
-157.833
 20
-43.0042
 11
-157.778
 21
-42.9376
  0
LINE
  8
0
 10
-157.778
 20
-42.9376
 11
-157.723
 21
-42.8723
  0
LINE
  8
0
 10
-157.723
 20
-42.8723
 11
-157.665
 21
-42.8084
  0
LINE
  8
0
 10
-157.665
 20
-42.8084
 11
-157.606
 21
-42.746
  0
LINE
  8
0
 10
-157.606
 20
-42.746
 11
-157.546
 21
-42.685
  0
LINE
  8
0
 10
-157.546
 20
-42.685
 11
-157.484
 21
-42.6255
  0
LINE
  8
0
 10
-157.484
 20
-42.6255
 11
-157.42
 21
-42.5675
  0
LINE
  8
0
 10
-157.42
 20
-42.5675
 11
-157.355
 21
-42.5112
  0
LINE
  8
0
 10
-157.355
 20
-42.5112
 11
-157.289
 21
-42.4564
  0
LINE
  8
0
 10
-157.289
 20
-42.4564
 11
-157.222
 21
-42.4033
  0
LINE
  8
0
 10
-157.222
 20
-42.4033
 11
-157.153
 21
-42.3518
  0
LINE
  8
0
 10
-157.153
 20
-42.3518
 11
-157.083
 21
-42.3021
  0
LINE
  8
0
 10
-157.083
 20
-42.3021
 11
-157.012
 21
-42.2541
  0
LINE
  8
0
 10
-157.012
 20
-42.2541
 11
-156.939
 21
-42.2078
  0
LINE
  8
0
 10
-156.939
 20
-42.2078
 11
-156.866
 21
-42.1633
  0
LINE
  8
0
 10
-156.866
 20
-42.1633
 11
-156.791
 21
-42.1207
  0
LINE
  8
0
 10
-156.791
 20
-42.1207
 11
-156.716
 21
-42.0799
  0
LINE
  8
0
 10
-156.716
 20
-42.0799
 11
-156.639
 21
-42.041
  0
LINE
  8
0
 10
-156.639
 20
-42.041
 11
-156.562
 21
-42.0039
  0
LINE
  8
0
 10
-156.562
 20
-42.0039
 11
-156.483
 21
-41.9688
  0
LINE
  8
0
 10
-156.483
 20
-41.9688
 11
-156.404
 21
-41.9356
  0
LINE
  8
0
 10
-156.404
 20
-41.9356
 11
-156.324
 21
-41.9043
  0
LINE
  8
0
 10
-156.324
 20
-41.9043
 11
-156.243
 21
-41.8751
  0
LINE
  8
0
 10
-156.243
 20
-41.8751
 11
-156.162
 21
-41.8478
  0
LINE
  8
0
 10
-156.162
 20
-41.8478
 11
-156.08
 21
-41.8225
  0
LINE
  8
0
 10
-156.08
 20
-41.8225
 11
-155.997
 21
-41.7993
  0
LINE
  8
0
 10
-155.997
 20
-41.7993
 11
-155.987
 21
-41.7965
  0
LINE
  8
0
 10
167.328
 20
-7.84444
 11
167.279
 21
-7.84212
  0
LINE
  8
0
 10
167.279
 20
-7.84212
 11
167.23
 21
-7.83861
  0
LINE
  8
0
 10
167.23
 20
-7.83861
 11
167.181
 21
-7.83389
  0
LINE
  8
0
 10
167.181
 20
-7.83389
 11
167.133
 21
-7.82797
  0
LINE
  8
0
 10
167.133
 20
-7.82797
 11
167.084
 21
-7.82086
  0
LINE
  8
0
 10
167.084
 20
-7.82086
 11
167.036
 21
-7.81256
  0
LINE
  8
0
 10
167.036
 20
-7.81256
 11
166.987
 21
-7.80309
  0
LINE
  8
0
 10
166.987
 20
-7.80309
 11
166.94
 21
-7.79242
  0
LINE
  8
0
 10
166.94
 20
-7.79242
 11
166.892
 21
-7.78058
  0
LINE
  8
0
 10
166.892
 20
-7.78058
 11
166.845
 21
-7.76758
  0
LINE
  8
0
 10
166.845
 20
-7.76758
 11
166.798
 21
-7.75342
  0
LINE
  8
0
 10
166.798
 20
-7.75342
 11
166.751
 21
-7.73811
  0
LINE
  8
0
 10
166.751
 20
-7.73811
 11
166.705
 21
-7.72166
  0
LINE
  8
0
 10
166.705
 20
-7.72166
 11
166.659
 21
-7.70409
  0
LINE
  8
0
 10
166.659
 20
-7.70409
 11
166.613
 21
-7.68538
  0
LINE
  8
0
 10
166.613
 20
-7.68538
 11
166.569
 21
-7.66557
  0
LINE
  8
0
 10
166.569
 20
-7.66557
 11
166.524
 21
-7.64468
  0
LINE
  8
0
 10
166.524
 20
-7.64468
 11
166.48
 21
-7.6227
  0
LINE
  8
0
 10
166.48
 20
-7.6227
 11
166.437
 21
-7.59964
  0
LINE
  8
0
 10
166.437
 20
-7.59964
 11
166.394
 21
-7.57552
  0
LINE
  8
0
 10
166.394
 20
-7.57552
 11
166.352
 21
-7.55037
  0
LINE
  8
0
 10
166.352
 20
-7.55037
 11
166.311
 21
-7.52419
  0
LINE
  8
0
 10
166.311
 20
-7.52419
 11
166.27
 21
-7.49699
  0
LINE
  8
0
 10
166.27
 20
-7.49699
 11
166.229
 21
-7.46881
  0
LINE
  8
0
 10
166.229
 20
-7.46881
 11
166.19
 21
-7.43964
  0
LINE
  8
0
 10
166.19
 20
-7.43964
 11
166.151
 21
-7.40952
  0
LINE
  8
0
 10
166.151
 20
-7.40952
 11
166.113
 21
-7.37845
  0
LINE
  8
0
 10
166.113
 20
-7.37845
 11
166.076
 21
-7.34645
  0
LINE
  8
0
 10
166.076
 20
-7.34645
 11
166.04
 21
-7.31357
  0
LINE
  8
0
 10
166.04
 20
-7.31357
 11
166.004
 21
-7.27979
  0
LINE
  8
0
 10
166.004
 20
-7.27979
 11
165.969
 21
-7.24515
  0
LINE
  8
0
 10
165.969
 20
-7.24515
 11
165.935
 21
-7.20966
  0
LINE
  8
0
 10
165.935
 20
-7.20966
 11
165.902
 21
-7.17334
  0
LINE
  8
0
 10
165.902
 20
-7.17334
 11
165.87
 21
-7.13625
  0
LINE
  8
0
 10
165.87
 20
-7.13625
 11
165.839
 21
-7.09836
  0
LINE
  8
0
 10
165.839
 20
-7.09836
 11
165.809
 21
-7.05972
  0
LINE
  8
0
 10
165.809
 20
-7.05972
 11
165.779
 21
-7.02034
  0
LINE
  8
0
 10
165.779
 20
-7.02034
 11
165.751
 21
-6.98027
  0
LINE
  8
0
 10
165.751
 20
-6.98027
 11
165.724
 21
-6.9395
  0
LINE
  8
0
 10
165.724
 20
-6.9395
 11
165.697
 21
-6.89809
  0
LINE
  8
0
 10
165.697
 20
-6.89809
 11
165.672
 21
-6.85603
  0
LINE
  8
0
 10
165.672
 20
-6.85603
 11
165.648
 21
-6.81337
  0
LINE
  8
0
 10
165.648
 20
-6.81337
 11
165.624
 21
-6.77013
  0
LINE
  8
0
 10
165.624
 20
-6.77013
 11
165.602
 21
-6.72632
  0
LINE
  8
0
 10
165.602
 20
-6.72632
 11
165.581
 21
-6.68199
  0
LINE
  8
0
 10
165.581
 20
-6.68199
 11
165.561
 21
-6.63715
  0
LINE
  8
0
 10
165.561
 20
-6.63715
 11
165.542
 21
-6.59184
  0
LINE
  8
0
 10
165.542
 20
-6.59184
 11
165.525
 21
-6.54607
  0
LINE
  8
0
 10
165.525
 20
-6.54607
 11
165.508
 21
-6.49989
  0
LINE
  8
0
 10
165.508
 20
-6.49989
 11
165.493
 21
-6.45331
  0
LINE
  8
0
 10
165.493
 20
-6.45331
 11
165.478
 21
-6.40636
  0
LINE
  8
0
 10
165.478
 20
-6.40636
 11
165.465
 21
-6.35909
  0
LINE
  8
0
 10
165.465
 20
-6.35909
 11
165.453
 21
-6.31149
  0
LINE
  8
0
 10
165.453
 20
-6.31149
 11
165.442
 21
-6.26361
  0
LINE
  8
0
 10
165.442
 20
-6.26361
 11
165.432
 21
-6.21548
  0
LINE
  8
0
 10
165.432
 20
-6.21548
 11
165.424
 21
-6.16714
  0
LINE
  8
0
 10
165.424
 20
-6.16714
 11
165.417
 21
-6.11861
  0
LINE
  8
0
 10
165.417
 20
-6.11861
 11
165.411
 21
-6.0699
  0
LINE
  8
0
 10
165.411
 20
-6.0699
 11
165.406
 21
-6.02106
  0
LINE
  8
0
 10
165.406
 20
-6.02106
 11
165.402
 21
-5.97211
  0
LINE
  8
0
 10
165.402
 20
-5.97211
 11
165.399
 21
-5.92308
  0
LINE
  8
0
 10
165.399
 20
-5.92308
 11
165.398
 21
-5.87402
  0
LINE
  8
0
 10
165.398
 20
-5.87402
 11
165.398
 21
-5.82494
  0
LINE
  8
0
 10
165.398
 20
-5.82494
 11
165.399
 21
-5.77586
  0
LINE
  8
0
 10
165.399
 20
-5.77586
 11
165.401
 21
-5.72682
  0
LINE
  8
0
 10
165.401
 20
-5.72682
 11
165.405
 21
-5.67787
  0
LINE
  8
0
 10
165.405
 20
-5.67787
 11
165.41
 21
-5.62901
  0
LINE
  8
0
 10
165.41
 20
-5.62901
 11
165.416
 21
-5.58028
  0
LINE
  8
0
 10
165.416
 20
-5.58028
 11
165.423
 21
-5.53171
  0
LINE
  8
0
 10
165.423
 20
-5.53171
 11
165.431
 21
-5.48334
  0
LINE
  8
0
 10
165.431
 20
-5.48334
 11
165.441
 21
-5.43517
  0
LINE
  8
0
 10
165.441
 20
-5.43517
 11
165.451
 21
-5.38725
  0
LINE
  8
0
 10
165.451
 20
-5.38725
 11
165.463
 21
-5.33961
  0
LINE
  8
0
 10
165.463
 20
-5.33961
 11
165.476
 21
-5.29228
  0
LINE
  8
0
 10
165.476
 20
-5.29228
 11
165.49
 21
-5.24529
  0
LINE
  8
0
 10
165.49
 20
-5.24529
 11
165.506
 21
-5.19865
  0
LINE
  8
0
 10
165.506
 20
-5.19865
 11
165.522
 21
-5.1524
  0
LINE
  8
0
 10
165.522
 20
-5.1524
 11
165.54
 21
-5.10657
  0
LINE
  8
0
 10
165.54
 20
-5.10657
 11
165.558
 21
-5.06119
  0
LINE
  8
0
 10
165.558
 20
-5.06119
 11
165.578
 21
-5.01627
  0
LINE
  8
0
 10
165.578
 20
-5.01627
 11
165.599
 21
-4.97186
  0
LINE
  8
0
 10
165.599
 20
-4.97186
 11
165.621
 21
-4.92798
  0
LINE
  8
0
 10
165.621
 20
-4.92798
 11
165.644
 21
-4.88464
  0
LINE
  8
0
 10
165.644
 20
-4.88464
 11
165.668
 21
-4.84189
  0
LINE
  8
0
 10
165.668
 20
-4.84189
 11
165.693
 21
-4.79973
  0
LINE
  8
0
 10
165.693
 20
-4.79973
 11
165.719
 21
-4.75821
  0
LINE
  8
0
 10
165.719
 20
-4.75821
 11
165.747
 21
-4.71735
  0
LINE
  8
0
 10
165.747
 20
-4.71735
 11
165.775
 21
-4.67715
  0
LINE
  8
0
 10
165.775
 20
-4.67715
 11
165.804
 21
-4.63768
  0
LINE
  8
0
 10
165.804
 20
-4.63768
 11
165.834
 21
-4.59892
  0
LINE
  8
0
 10
165.834
 20
-4.59892
 11
165.865
 21
-4.56091
  0
LINE
  8
0
 10
165.865
 20
-4.56091
 11
165.897
 21
-4.52368
  0
LINE
  8
0
 10
165.897
 20
-4.52368
 11
165.93
 21
-4.48726
  0
LINE
  8
0
 10
165.93
 20
-4.48726
 11
165.964
 21
-4.45164
  0
LINE
  8
0
 10
165.964
 20
-4.45164
 11
165.998
 21
-4.41687
  0
LINE
  8
0
 10
165.998
 20
-4.41687
 11
166.034
 21
-4.38295
  0
LINE
  8
0
 10
166.034
 20
-4.38295
 11
166.07
 21
-4.34991
  0
LINE
  8
0
 10
166.07
 20
-4.34991
 11
166.107
 21
-4.31778
  0
LINE
  8
0
 10
166.107
 20
-4.31778
 11
166.145
 21
-4.28658
  0
LINE
  8
0
 10
166.145
 20
-4.28658
 11
166.184
 21
-4.2563
  0
LINE
  8
0
 10
166.184
 20
-4.2563
 11
166.223
 21
-4.22699
  0
LINE
  8
0
 10
166.223
 20
-4.22699
 11
166.263
 21
-4.19864
  0
LINE
  8
0
 10
166.263
 20
-4.19864
 11
166.304
 21
-4.1713
  0
LINE
  8
0
 10
166.304
 20
-4.1713
 11
166.346
 21
-4.14496
  0
LINE
  8
0
 10
166.346
 20
-4.14496
 11
166.388
 21
-4.11964
  0
LINE
  8
0
 10
166.388
 20
-4.11964
 11
166.43
 21
-4.09537
  0
LINE
  8
0
 10
166.43
 20
-4.09537
 11
166.473
 21
-4.07214
  0
LINE
  8
0
 10
166.473
 20
-4.07214
 11
166.517
 21
-4.04999
  0
LINE
  8
0
 10
166.517
 20
-4.04999
 11
166.562
 21
-4.02892
  0
LINE
  8
0
 10
166.562
 20
-4.02892
 11
166.606
 21
-4.00894
  0
LINE
  8
0
 10
166.606
 20
-4.00894
 11
166.652
 21
-3.99007
  0
LINE
  8
0
 10
166.652
 20
-3.99007
 11
166.698
 21
-3.97232
  0
LINE
  8
0
 10
166.698
 20
-3.97232
 11
166.744
 21
-3.95569
  0
LINE
  8
0
 10
166.744
 20
-3.95569
 11
166.79
 21
-3.9402
  0
LINE
  8
0
 10
166.79
 20
-3.9402
 11
166.837
 21
-3.92586
  0
LINE
  8
0
 10
166.837
 20
-3.92586
 11
166.885
 21
-3.91269
  0
LINE
  8
0
 10
166.885
 20
-3.91269
 11
166.932
 21
-3.90067
  0
LINE
  8
0
 10
166.932
 20
-3.90067
 11
166.98
 21
-3.88982
  0
LINE
  8
0
 10
166.98
 20
-3.88982
 11
167.028
 21
-3.88014
  0
LINE
  8
0
 10
167.028
 20
-3.88014
 11
167.076
 21
-3.87166
  0
LINE
  8
0
 10
167.076
 20
-3.87166
 11
167.125
 21
-3.86436
  0
LINE
  8
0
 10
167.125
 20
-3.86436
 11
167.174
 21
-3.85826
  0
LINE
  8
0
 10
167.174
 20
-3.85826
 11
167.223
 21
-3.85336
  0
LINE
  8
0
 10
167.223
 20
-3.85336
 11
167.272
 21
-3.84966
  0
LINE
  8
0
 10
167.272
 20
-3.84966
 11
167.321
 21
-3.84715
  0
LINE
  8
0
 10
167.321
 20
-3.84715
 11
167.37
 21
-3.84586
  0
LINE
  8
0
 10
167.37
 20
-3.84586
 11
167.419
 21
-3.84576
  0
LINE
  8
0
 10
167.419
 20
-3.84576
 11
167.468
 21
-3.84688
  0
LINE
  8
0
 10
167.468
 20
-3.84688
 11
167.517
 21
-3.8492
  0
LINE
  8
0
 10
167.517
 20
-3.8492
 11
167.566
 21
-3.85271
  0
LINE
  8
0
 10
167.566
 20
-3.85271
 11
167.615
 21
-3.85742
  0
LINE
  8
0
 10
167.615
 20
-3.85742
 11
167.663
 21
-3.86334
  0
LINE
  8
0
 10
167.663
 20
-3.86334
 11
167.712
 21
-3.87045
  0
LINE
  8
0
 10
167.712
 20
-3.87045
 11
167.76
 21
-3.87875
  0
LINE
  8
0
 10
167.76
 20
-3.87875
 11
167.808
 21
-3.88823
  0
LINE
  8
0
 10
167.808
 20
-3.88823
 11
167.856
 21
-3.8989
  0
LINE
  8
0
 10
167.856
 20
-3.8989
 11
167.904
 21
-3.91074
  0
LINE
  8
0
 10
167.904
 20
-3.91074
 11
167.951
 21
-3.92374
  0
LINE
  8
0
 10
167.951
 20
-3.92374
 11
167.998
 21
-3.9379
  0
LINE
  8
0
 10
167.998
 20
-3.9379
 11
168.045
 21
-3.9532
  0
LINE
  8
0
 10
168.045
 20
-3.9532
 11
168.091
 21
-3.96965
  0
LINE
  8
0
 10
168.091
 20
-3.96965
 11
168.137
 21
-3.98723
  0
LINE
  8
0
 10
168.137
 20
-3.98723
 11
168.182
 21
-4.00594
  0
LINE
  8
0
 10
168.182
 20
-4.00594
 11
168.227
 21
-4.02574
  0
LINE
  8
0
 10
168.227
 20
-4.02574
 11
168.272
 21
-4.04663
  0
LINE
  8
0
 10
168.272
 20
-4.04663
 11
168.316
 21
-4.06862
  0
LINE
  8
0
 10
168.316
 20
-4.06862
 11
168.359
 21
-4.09167
  0
LINE
  8
0
 10
168.359
 20
-4.09167
 11
168.402
 21
-4.1158
  0
LINE
  8
0
 10
168.402
 20
-4.1158
 11
168.444
 21
-4.14095
  0
LINE
  8
0
 10
168.444
 20
-4.14095
 11
168.485
 21
-4.16713
  0
LINE
  8
0
 10
168.485
 20
-4.16713
 11
168.526
 21
-4.19432
  0
LINE
  8
0
 10
168.526
 20
-4.19432
 11
168.566
 21
-4.2225
  0
LINE
  8
0
 10
168.566
 20
-4.2225
 11
168.606
 21
-4.25168
  0
LINE
  8
0
 10
168.606
 20
-4.25168
 11
168.645
 21
-4.2818
  0
LINE
  8
0
 10
168.645
 20
-4.2818
 11
168.683
 21
-4.31287
  0
LINE
  8
0
 10
168.683
 20
-4.31287
 11
168.72
 21
-4.34486
  0
LINE
  8
0
 10
168.72
 20
-4.34486
 11
168.756
 21
-4.37775
  0
LINE
  8
0
 10
168.756
 20
-4.37775
 11
168.792
 21
-4.41153
  0
LINE
  8
0
 10
168.792
 20
-4.41153
 11
168.827
 21
-4.44618
  0
LINE
  8
0
 10
168.827
 20
-4.44618
 11
168.861
 21
-4.48166
  0
LINE
  8
0
 10
168.861
 20
-4.48166
 11
168.894
 21
-4.51797
  0
LINE
  8
0
 10
168.894
 20
-4.51797
 11
168.926
 21
-4.55507
  0
LINE
  8
0
 10
168.926
 20
-4.55507
 11
168.957
 21
-4.59296
  0
LINE
  8
0
 10
168.957
 20
-4.59296
 11
168.987
 21
-4.63161
  0
LINE
  8
0
 10
168.987
 20
-4.63161
 11
169.017
 21
-4.67097
  0
LINE
  8
0
 10
169.017
 20
-4.67097
 11
169.045
 21
-4.71104
  0
LINE
  8
0
 10
169.045
 20
-4.71104
 11
169.072
 21
-4.75182
  0
LINE
  8
0
 10
169.072
 20
-4.75182
 11
169.099
 21
-4.79323
  0
LINE
  8
0
 10
169.099
 20
-4.79323
 11
169.124
 21
-4.83528
  0
LINE
  8
0
 10
169.124
 20
-4.83528
 11
169.148
 21
-4.87794
  0
LINE
  8
0
 10
169.148
 20
-4.87794
 11
169.171
 21
-4.92119
  0
LINE
  8
0
 10
169.171
 20
-4.92119
 11
169.194
 21
-4.965
  0
LINE
  8
0
 10
169.194
 20
-4.965
 11
169.215
 21
-5.00932
  0
LINE
  8
0
 10
169.215
 20
-5.00932
 11
169.235
 21
-5.05417
  0
LINE
  8
0
 10
169.235
 20
-5.05417
 11
169.254
 21
-5.09949
  0
LINE
  8
0
 10
169.254
 20
-5.09949
 11
169.271
 21
-5.14525
  0
LINE
  8
0
 10
169.271
 20
-5.14525
 11
169.288
 21
-5.19142
  0
LINE
  8
0
 10
169.288
 20
-5.19142
 11
169.303
 21
-5.23801
  0
LINE
  8
0
 10
169.303
 20
-5.23801
 11
169.318
 21
-5.28496
  0
LINE
  8
0
 10
169.318
 20
-5.28496
 11
169.331
 21
-5.33223
  0
LINE
  8
0
 10
169.331
 20
-5.33223
 11
169.343
 21
-5.37982
  0
LINE
  8
0
 10
169.343
 20
-5.37982
 11
169.354
 21
-5.4277
  0
LINE
  8
0
 10
169.354
 20
-5.4277
 11
169.363
 21
-5.47583
  0
LINE
  8
0
 10
169.363
 20
-5.47583
 11
169.372
 21
-5.52417
  0
LINE
  8
0
 10
169.372
 20
-5.52417
 11
169.379
 21
-5.57271
  0
LINE
  8
0
 10
169.379
 20
-5.57271
 11
169.385
 21
-5.62141
  0
LINE
  8
0
 10
169.385
 20
-5.62141
 11
169.39
 21
-5.67026
  0
LINE
  8
0
 10
169.39
 20
-5.67026
 11
169.394
 21
-5.71921
  0
LINE
  8
0
 10
169.394
 20
-5.71921
 11
169.396
 21
-5.76823
  0
LINE
  8
0
 10
169.396
 20
-5.76823
 11
169.398
 21
-5.81729
  0
LINE
  8
0
 10
169.398
 20
-5.81729
 11
169.398
 21
-5.86638
  0
LINE
  8
0
 10
169.398
 20
-5.86638
 11
169.397
 21
-5.91545
  0
LINE
  8
0
 10
169.397
 20
-5.91545
 11
169.394
 21
-5.96449
  0
LINE
  8
0
 10
169.394
 20
-5.96449
 11
169.391
 21
-6.01344
  0
LINE
  8
0
 10
169.391
 20
-6.01344
 11
169.386
 21
-6.0623
  0
LINE
  8
0
 10
169.386
 20
-6.0623
 11
169.38
 21
-6.11104
  0
LINE
  8
0
 10
169.38
 20
-6.11104
 11
169.373
 21
-6.15961
  0
LINE
  8
0
 10
169.373
 20
-6.15961
 11
169.365
 21
-6.20798
  0
LINE
  8
0
 10
169.365
 20
-6.20798
 11
169.355
 21
-6.25615
  0
LINE
  8
0
 10
169.355
 20
-6.25615
 11
169.345
 21
-6.30406
  0
LINE
  8
0
 10
169.345
 20
-6.30406
 11
169.333
 21
-6.3517
  0
LINE
  8
0
 10
169.333
 20
-6.3517
 11
169.32
 21
-6.39903
  0
LINE
  8
0
 10
169.32
 20
-6.39903
 11
169.306
 21
-6.44603
  0
LINE
  8
0
 10
169.306
 20
-6.44603
 11
169.29
 21
-6.49266
  0
LINE
  8
0
 10
169.29
 20
-6.49266
 11
169.274
 21
-6.53891
  0
LINE
  8
0
 10
169.274
 20
-6.53891
 11
169.256
 21
-6.58475
  0
LINE
  8
0
 10
169.256
 20
-6.58475
 11
169.238
 21
-6.63013
  0
LINE
  8
0
 10
169.238
 20
-6.63013
 11
169.218
 21
-6.67505
  0
LINE
  8
0
 10
169.218
 20
-6.67505
 11
169.197
 21
-6.71945
  0
LINE
  8
0
 10
169.197
 20
-6.71945
 11
169.175
 21
-6.76335
  0
LINE
  8
0
 10
169.175
 20
-6.76335
 11
169.152
 21
-6.80669
  0
LINE
  8
0
 10
169.152
 20
-6.80669
 11
169.128
 21
-6.84944
  0
LINE
  8
0
 10
169.128
 20
-6.84944
 11
169.103
 21
-6.89159
  0
LINE
  8
0
 10
169.103
 20
-6.89159
 11
169.076
 21
-6.93311
  0
LINE
  8
0
 10
169.076
 20
-6.93311
 11
169.049
 21
-6.97397
  0
LINE
  8
0
 10
169.049
 20
-6.97397
 11
169.021
 21
-7.01416
  0
LINE
  8
0
 10
169.021
 20
-7.01416
 11
168.992
 21
-7.05363
  0
LINE
  8
0
 10
168.992
 20
-7.05363
 11
168.962
 21
-7.09239
  0
LINE
  8
0
 10
168.962
 20
-7.09239
 11
168.931
 21
-7.1304
  0
LINE
  8
0
 10
168.931
 20
-7.1304
 11
168.899
 21
-7.16763
  0
LINE
  8
0
 10
168.899
 20
-7.16763
 11
168.866
 21
-7.20406
  0
LINE
  8
0
 10
168.866
 20
-7.20406
 11
168.832
 21
-7.23967
  0
LINE
  8
0
 10
168.832
 20
-7.23967
 11
168.797
 21
-7.27444
  0
LINE
  8
0
 10
168.797
 20
-7.27444
 11
168.762
 21
-7.30836
  0
LINE
  8
0
 10
168.762
 20
-7.30836
 11
168.726
 21
-7.3414
  0
LINE
  8
0
 10
168.726
 20
-7.3414
 11
168.689
 21
-7.37354
  0
LINE
  8
0
 10
168.689
 20
-7.37354
 11
168.651
 21
-7.40474
  0
LINE
  8
0
 10
168.651
 20
-7.40474
 11
168.612
 21
-7.43501
  0
LINE
  8
0
 10
168.612
 20
-7.43501
 11
168.573
 21
-7.46434
  0
LINE
  8
0
 10
168.573
 20
-7.46434
 11
168.533
 21
-7.49268
  0
LINE
  8
0
 10
168.533
 20
-7.49268
 11
168.492
 21
-7.52002
  0
LINE
  8
0
 10
168.492
 20
-7.52002
 11
168.45
 21
-7.54636
  0
LINE
  8
0
 10
168.45
 20
-7.54636
 11
168.408
 21
-7.57169
  0
LINE
  8
0
 10
168.408
 20
-7.57169
 11
168.366
 21
-7.59595
  0
LINE
  8
0
 10
168.366
 20
-7.59595
 11
168.322
 21
-7.61917
  0
LINE
  8
0
 10
168.322
 20
-7.61917
 11
168.279
 21
-7.64133
  0
LINE
  8
0
 10
168.279
 20
-7.64133
 11
168.234
 21
-7.6624
  0
LINE
  8
0
 10
168.234
 20
-7.6624
 11
168.189
 21
-7.68237
  0
LINE
  8
0
 10
168.189
 20
-7.68237
 11
168.144
 21
-7.70125
  0
LINE
  8
0
 10
168.144
 20
-7.70125
 11
168.098
 21
-7.71901
  0
LINE
  8
0
 10
168.098
 20
-7.71901
 11
168.052
 21
-7.73563
  0
LINE
  8
0
 10
168.052
 20
-7.73563
 11
168.006
 21
-7.75111
  0
LINE
  8
0
 10
168.006
 20
-7.75111
 11
167.959
 21
-7.76546
  0
LINE
  8
0
 10
167.959
 20
-7.76546
 11
167.911
 21
-7.77864
  0
LINE
  8
0
 10
167.911
 20
-7.77864
 11
167.864
 21
-7.79065
  0
LINE
  8
0
 10
167.864
 20
-7.79065
 11
167.816
 21
-7.8015
  0
LINE
  8
0
 10
167.816
 20
-7.8015
 11
167.768
 21
-7.81117
  0
LINE
  8
0
 10
167.768
 20
-7.81117
 11
167.719
 21
-7.81966
  0
LINE
  8
0
 10
167.719
 20
-7.81966
 11
167.671
 21
-7.82695
  0
LINE
  8
0
 10
167.671
 20
-7.82695
 11
167.622
 21
-7.83305
  0
LINE
  8
0
 10
167.622
 20
-7.83305
 11
167.573
 21
-7.83795
  0
LINE
  8
0
 10
167.573
 20
-7.83795
 11
167.524
 21
-7.84166
  0
LINE
  8
0
 10
167.524
 20
-7.84166
 11
167.475
 21
-7.84416
  0
LINE
  8
0
 10
167.475
 20
-7.84416
 11
167.426
 21
-7.84546
  0
LINE
  8
0
 10
167.426
 20
-7.84546
 11
167.377
 21
-7.84555
  0
LINE
  8
0
 10
167.377
 20
-7.84555
 11
167.328
 21
-7.84444
  0
LINE
  8
0
 10
-167.426
 20
-7.84546
 11
-167.475
 21
-7.84416
  0
LINE
  8
0
 10
-167.475
 20
-7.84416
 11
-167.524
 21
-7.84166
  0
LINE
  8
0
 10
-167.524
 20
-7.84166
 11
-167.573
 21
-7.83795
  0
LINE
  8
0
 10
-167.573
 20
-7.83795
 11
-167.622
 21
-7.83305
  0
LINE
  8
0
 10
-167.622
 20
-7.83305
 11
-167.671
 21
-7.82695
  0
LINE
  8
0
 10
-167.671
 20
-7.82695
 11
-167.719
 21
-7.81966
  0
LINE
  8
0
 10
-167.719
 20
-7.81966
 11
-167.768
 21
-7.81117
  0
LINE
  8
0
 10
-167.768
 20
-7.81117
 11
-167.816
 21
-7.8015
  0
LINE
  8
0
 10
-167.816
 20
-7.8015
 11
-167.864
 21
-7.79065
  0
LINE
  8
0
 10
-167.864
 20
-7.79065
 11
-167.911
 21
-7.77864
  0
LINE
  8
0
 10
-167.911
 20
-7.77864
 11
-167.959
 21
-7.76546
  0
LINE
  8
0
 10
-167.959
 20
-7.76546
 11
-168.006
 21
-7.75111
  0
LINE
  8
0
 10
-168.006
 20
-7.75111
 11
-168.052
 21
-7.73563
  0
LINE
  8
0
 10
-168.052
 20
-7.73563
 11
-168.098
 21
-7.71901
  0
LINE
  8
0
 10
-168.098
 20
-7.71901
 11
-168.144
 21
-7.70125
  0
LINE
  8
0
 10
-168.144
 20
-7.70125
 11
-168.189
 21
-7.68237
  0
LINE
  8
0
 10
-168.189
 20
-7.68237
 11
-168.234
 21
-7.6624
  0
LINE
  8
0
 10
-168.234
 20
-7.6624
 11
-168.279
 21
-7.64133
  0
LINE
  8
0
 10
-168.279
 20
-7.64133
 11
-168.322
 21
-7.61917
  0
LINE
  8
0
 10
-168.322
 20
-7.61917
 11
-168.366
 21
-7.59595
  0
LINE
  8
0
 10
-168.366
 20
-7.59595
 11
-168.408
 21
-7.57169
  0
LINE
  8
0
 10
-168.408
 20
-7.57169
 11
-168.45
 21
-7.54636
  0
LINE
  8
0
 10
-168.45
 20
-7.54636
 11
-168.492
 21
-7.52002
  0
LINE
  8
0
 10
-168.492
 20
-7.52002
 11
-168.533
 21
-7.49268
  0
LINE
  8
0
 10
-168.533
 20
-7.49268
 11
-168.573
 21
-7.46434
  0
LINE
  8
0
 10
-168.573
 20
-7.46434
 11
-168.612
 21
-7.43501
  0
LINE
  8
0
 10
-168.612
 20
-7.43501
 11
-168.651
 21
-7.40474
  0
LINE
  8
0
 10
-168.651
 20
-7.40474
 11
-168.689
 21
-7.37354
  0
LINE
  8
0
 10
-168.689
 20
-7.37354
 11
-168.726
 21
-7.3414
  0
LINE
  8
0
 10
-168.726
 20
-7.3414
 11
-168.762
 21
-7.30836
  0
LINE
  8
0
 10
-168.762
 20
-7.30836
 11
-168.797
 21
-7.27444
  0
LINE
  8
0
 10
-168.797
 20
-7.27444
 11
-168.832
 21
-7.23967
  0
LINE
  8
0
 10
-168.832
 20
-7.23967
 11
-168.866
 21
-7.20406
  0
LINE
  8
0
 10
-168.866
 20
-7.20406
 11
-168.899
 21
-7.16763
  0
LINE
  8
0
 10
-168.899
 20
-7.16763
 11
-168.931
 21
-7.1304
  0
LINE
  8
0
 10
-168.931
 20
-7.1304
 11
-168.962
 21
-7.09239
  0
LINE
  8
0
 10
-168.962
 20
-7.09239
 11
-168.992
 21
-7.05363
  0
LINE
  8
0
 10
-168.992
 20
-7.05363
 11
-169.021
 21
-7.01416
  0
LINE
  8
0
 10
-169.021
 20
-7.01416
 11
-169.049
 21
-6.97397
  0
LINE
  8
0
 10
-169.049
 20
-6.97397
 11
-169.076
 21
-6.93311
  0
LINE
  8
0
 10
-169.076
 20
-6.93311
 11
-169.103
 21
-6.89159
  0
LINE
  8
0
 10
-169.103
 20
-6.89159
 11
-169.128
 21
-6.84944
  0
LINE
  8
0
 10
-169.128
 20
-6.84944
 11
-169.152
 21
-6.80669
  0
LINE
  8
0
 10
-169.152
 20
-6.80669
 11
-169.175
 21
-6.76335
  0
LINE
  8
0
 10
-169.175
 20
-6.76335
 11
-169.197
 21
-6.71945
  0
LINE
  8
0
 10
-169.197
 20
-6.71945
 11
-169.218
 21
-6.67505
  0
LINE
  8
0
 10
-169.218
 20
-6.67505
 11
-169.238
 21
-6.63013
  0
LINE
  8
0
 10
-169.238
 20
-6.63013
 11
-169.256
 21
-6.58475
  0
LINE
  8
0
 10
-169.256
 20
-6.58475
 11
-169.274
 21
-6.53891
  0
LINE
  8
0
 10
-169.274
 20
-6.53891
 11
-169.29
 21
-6.49266
  0
LINE
  8
0
 10
-169.29
 20
-6.49266
 11
-169.306
 21
-6.44603
  0
LINE
  8
0
 10
-169.306
 20
-6.44603
 11
-169.32
 21
-6.39903
  0
LINE
  8
0
 10
-169.32
 20
-6.39903
 11
-169.333
 21
-6.3517
  0
LINE
  8
0
 10
-169.333
 20
-6.3517
 11
-169.345
 21
-6.30406
  0
LINE
  8
0
 10
-169.345
 20
-6.30406
 11
-169.355
 21
-6.25615
  0
LINE
  8
0
 10
-169.355
 20
-6.25615
 11
-169.365
 21
-6.20798
  0
LINE
  8
0
 10
-169.365
 20
-6.20798
 11
-169.373
 21
-6.15961
  0
LINE
  8
0
 10
-169.373
 20
-6.15961
 11
-169.38
 21
-6.11104
  0
LINE
  8
0
 10
-169.38
 20
-6.11104
 11
-169.386
 21
-6.0623
  0
LINE
  8
0
 10
-169.386
 20
-6.0623
 11
-169.391
 21
-6.01344
  0
LINE
  8
0
 10
-169.391
 20
-6.01344
 11
-169.394
 21
-5.96449
  0
LINE
  8
0
 10
-169.394
 20
-5.96449
 11
-169.397
 21
-5.91545
  0
LINE
  8
0
 10
-169.397
 20
-5.91545
 11
-169.398
 21
-5.86638
  0
LINE
  8
0
 10
-169.398
 20
-5.86638
 11
-169.398
 21
-5.81729
  0
LINE
  8
0
 10
-169.398
 20
-5.81729
 11
-169.396
 21
-5.76823
  0
LINE
  8
0
 10
-169.396
 20
-5.76823
 11
-169.394
 21
-5.71921
  0
LINE
  8
0
 10
-169.394
 20
-5.71921
 11
-169.39
 21
-5.67026
  0
LINE
  8
0
 10
-169.39
 20
-5.67026
 11
-169.385
 21
-5.62141
  0
LINE
  8
0
 10
-169.385
 20
-5.62141
 11
-169.379
 21
-5.57271
  0
LINE
  8
0
 10
-169.379
 20
-5.57271
 11
-169.372
 21
-5.52417
  0
LINE
  8
0
 10
-169.372
 20
-5.52417
 11
-169.363
 21
-5.47583
  0
LINE
  8
0
 10
-169.363
 20
-5.47583
 11
-169.354
 21
-5.4277
  0
LINE
  8
0
 10
-169.354
 20
-5.4277
 11
-169.343
 21
-5.37982
  0
LINE
  8
0
 10
-169.343
 20
-5.37982
 11
-169.331
 21
-5.33223
  0
LINE
  8
0
 10
-169.331
 20
-5.33223
 11
-169.318
 21
-5.28496
  0
LINE
  8
0
 10
-169.318
 20
-5.28496
 11
-169.303
 21
-5.23801
  0
LINE
  8
0
 10
-169.303
 20
-5.23801
 11
-169.288
 21
-5.19142
  0
LINE
  8
0
 10
-169.288
 20
-5.19142
 11
-169.271
 21
-5.14525
  0
LINE
  8
0
 10
-169.271
 20
-5.14525
 11
-169.254
 21
-5.09949
  0
LINE
  8
0
 10
-169.254
 20
-5.09949
 11
-169.235
 21
-5.05417
  0
LINE
  8
0
 10
-169.235
 20
-5.05417
 11
-169.215
 21
-5.00932
  0
LINE
  8
0
 10
-169.215
 20
-5.00932
 11
-169.194
 21
-4.965
  0
LINE
  8
0
 10
-169.194
 20
-4.965
 11
-169.171
 21
-4.92119
  0
LINE
  8
0
 10
-169.171
 20
-4.92119
 11
-169.148
 21
-4.87794
  0
LINE
  8
0
 10
-169.148
 20
-4.87794
 11
-169.124
 21
-4.83528
  0
LINE
  8
0
 10
-169.124
 20
-4.83528
 11
-169.099
 21
-4.79323
  0
LINE
  8
0
 10
-169.099
 20
-4.79323
 11
-169.072
 21
-4.75182
  0
LINE
  8
0
 10
-169.072
 20
-4.75182
 11
-169.045
 21
-4.71104
  0
LINE
  8
0
 10
-169.045
 20
-4.71104
 11
-169.017
 21
-4.67097
  0
LINE
  8
0
 10
-169.017
 20
-4.67097
 11
-168.987
 21
-4.63161
  0
LINE
  8
0
 10
-168.987
 20
-4.63161
 11
-168.957
 21
-4.59296
  0
LINE
  8
0
 10
-168.957
 20
-4.59296
 11
-168.926
 21
-4.55507
  0
LINE
  8
0
 10
-168.926
 20
-4.55507
 11
-168.894
 21
-4.51797
  0
LINE
  8
0
 10
-168.894
 20
-4.51797
 11
-168.861
 21
-4.48166
  0
LINE
  8
0
 10
-168.861
 20
-4.48166
 11
-168.827
 21
-4.44618
  0
LINE
  8
0
 10
-168.827
 20
-4.44618
 11
-168.792
 21
-4.41153
  0
LINE
  8
0
 10
-168.792
 20
-4.41153
 11
-168.756
 21
-4.37775
  0
LINE
  8
0
 10
-168.756
 20
-4.37775
 11
-168.72
 21
-4.34486
  0
LINE
  8
0
 10
-168.72
 20
-4.34486
 11
-168.683
 21
-4.31287
  0
LINE
  8
0
 10
-168.683
 20
-4.31287
 11
-168.645
 21
-4.2818
  0
LINE
  8
0
 10
-168.645
 20
-4.2818
 11
-168.606
 21
-4.25168
  0
LINE
  8
0
 10
-168.606
 20
-4.25168
 11
-168.566
 21
-4.2225
  0
LINE
  8
0
 10
-168.566
 20
-4.2225
 11
-168.526
 21
-4.19432
  0
LINE
  8
0
 10
-168.526
 20
-4.19432
 11
-168.485
 21
-4.16713
  0
LINE
  8
0
 10
-168.485
 20
-4.16713
 11
-168.444
 21
-4.14095
  0
LINE
  8
0
 10
-168.444
 20
-4.14095
 11
-168.402
 21
-4.1158
  0
LINE
  8
0
 10
-168.402
 20
-4.1158
 11
-168.359
 21
-4.09167
  0
LINE
  8
0
 10
-168.359
 20
-4.09167
 11
-168.316
 21
-4.06862
  0
LINE
  8
0
 10
-168.316
 20
-4.06862
 11
-168.272
 21
-4.04663
  0
LINE
  8
0
 10
-168.272
 20
-4.04663
 11
-168.227
 21
-4.02574
  0
LINE
  8
0
 10
-168.227
 20
-4.02574
 11
-168.182
 21
-4.00594
  0
LINE
  8
0
 10
-168.182
 20
-4.00594
 11
-168.137
 21
-3.98723
  0
LINE
  8
0
 10
-168.137
 20
-3.98723
 11
-168.091
 21
-3.96965
  0
LINE
  8
0
 10
-168.091
 20
-3.96965
 11
-168.045
 21
-3.9532
  0
LINE
  8
0
 10
-168.045
 20
-3.9532
 11
-167.998
 21
-3.9379
  0
LINE
  8
0
 10
-167.998
 20
-3.9379
 11
-167.951
 21
-3.92374
  0
LINE
  8
0
 10
-167.951
 20
-3.92374
 11
-167.904
 21
-3.91074
  0
LINE
  8
0
 10
-167.904
 20
-3.91074
 11
-167.856
 21
-3.8989
  0
LINE
  8
0
 10
-167.856
 20
-3.8989
 11
-167.808
 21
-3.88823
  0
LINE
  8
0
 10
-167.808
 20
-3.88823
 11
-167.76
 21
-3.87875
  0
LINE
  8
0
 10
-167.76
 20
-3.87875
 11
-167.712
 21
-3.87045
  0
LINE
  8
0
 10
-167.712
 20
-3.87045
 11
-167.663
 21
-3.86334
  0
LINE
  8
0
 10
-167.663
 20
-3.86334
 11
-167.615
 21
-3.85742
  0
LINE
  8
0
 10
-167.615
 20
-3.85742
 11
-167.566
 21
-3.85271
  0
LINE
  8
0
 10
-167.566
 20
-3.85271
 11
-167.517
 21
-3.8492
  0
LINE
  8
0
 10
-167.517
 20
-3.8492
 11
-167.468
 21
-3.84688
  0
LINE
  8
0
 10
-167.468
 20
-3.84688
 11
-167.419
 21
-3.84576
  0
LINE
  8
0
 10
-167.419
 20
-3.84576
 11
-167.37
 21
-3.84586
  0
LINE
  8
0
 10
-167.37
 20
-3.84586
 11
-167.321
 21
-3.84715
  0
LINE
  8
0
 10
-167.321
 20
-3.84715
 11
-167.272
 21
-3.84966
  0
LINE
  8
0
 10
-167.272
 20
-3.84966
 11
-167.223
 21
-3.85336
  0
LINE
  8
0
 10
-167.223
 20
-3.85336
 11
-167.174
 21
-3.85826
  0
LINE
  8
0
 10
-167.174
 20
-3.85826
 11
-167.125
 21
-3.86436
  0
LINE
  8
0
 10
-167.125
 20
-3.86436
 11
-167.076
 21
-3.87166
  0
LINE
  8
0
 10
-167.076
 20
-3.87166
 11
-167.028
 21
-3.88014
  0
LINE
  8
0
 10
-167.028
 20
-3.88014
 11
-166.98
 21
-3.88982
  0
LINE
  8
0
 10
-166.98
 20
-3.88982
 11
-166.932
 21
-3.90067
  0
LINE
  8
0
 10
-166.932
 20
-3.90067
 11
-166.885
 21
-3.91269
  0
LINE
  8
0
 10
-166.885
 20
-3.91269
 11
-166.837
 21
-3.92586
  0
LINE
  8
0
 10
-166.837
 20
-3.92586
 11
-166.79
 21
-3.9402
  0
LINE
  8
0
 10
-166.79
 20
-3.9402
 11
-166.744
 21
-3.95569
  0
LINE
  8
0
 10
-166.744
 20
-3.95569
 11
-166.698
 21
-3.97232
  0
LINE
  8
0
 10
-166.698
 20
-3.97232
 11
-166.652
 21
-3.99007
  0
LINE
  8
0
 10
-166.652
 20
-3.99007
 11
-166.606
 21
-4.00894
  0
LINE
  8
0
 10
-166.606
 20
-4.00894
 11
-166.562
 21
-4.02892
  0
LINE
  8
0
 10
-166.562
 20
-4.02892
 11
-166.517
 21
-4.04999
  0
LINE
  8
0
 10
-166.517
 20
-4.04999
 11
-166.473
 21
-4.07214
  0
LINE
  8
0
 10
-166.473
 20
-4.07214
 11
-166.43
 21
-4.09537
  0
LINE
  8
0
 10
-166.43
 20
-4.09537
 11
-166.388
 21
-4.11964
  0
LINE
  8
0
 10
-166.388
 20
-4.11964
 11
-166.346
 21
-4.14496
  0
LINE
  8
0
 10
-166.346
 20
-4.14496
 11
-166.304
 21
-4.1713
  0
LINE
  8
0
 10
-166.304
 20
-4.1713
 11
-166.263
 21
-4.19864
  0
LINE
  8
0
 10
-166.263
 20
-4.19864
 11
-166.223
 21
-4.22699
  0
LINE
  8
0
 10
-166.223
 20
-4.22699
 11
-166.184
 21
-4.2563
  0
LINE
  8
0
 10
-166.184
 20
-4.2563
 11
-166.145
 21
-4.28658
  0
LINE
  8
0
 10
-166.145
 20
-4.28658
 11
-166.107
 21
-4.31778
  0
LINE
  8
0
 10
-166.107
 20
-4.31778
 11
-166.07
 21
-4.34991
  0
LINE
  8
0
 10
-166.07
 20
-4.34991
 11
-166.034
 21
-4.38295
  0
LINE
  8
0
 10
-166.034
 20
-4.38295
 11
-165.998
 21
-4.41687
  0
LINE
  8
0
 10
-165.998
 20
-4.41687
 11
-165.964
 21
-4.45164
  0
LINE
  8
0
 10
-165.964
 20
-4.45164
 11
-165.93
 21
-4.48726
  0
LINE
  8
0
 10
-165.93
 20
-4.48726
 11
-165.897
 21
-4.52368
  0
LINE
  8
0
 10
-165.897
 20
-4.52368
 11
-165.865
 21
-4.56091
  0
LINE
  8
0
 10
-165.865
 20
-4.56091
 11
-165.834
 21
-4.59892
  0
LINE
  8
0
 10
-165.834
 20
-4.59892
 11
-165.804
 21
-4.63768
  0
LINE
  8
0
 10
-165.804
 20
-4.63768
 11
-165.775
 21
-4.67715
  0
LINE
  8
0
 10
-165.775
 20
-4.67715
 11
-165.747
 21
-4.71735
  0
LINE
  8
0
 10
-165.747
 20
-4.71735
 11
-165.719
 21
-4.75821
  0
LINE
  8
0
 10
-165.719
 20
-4.75821
 11
-165.693
 21
-4.79973
  0
LINE
  8
0
 10
-165.693
 20
-4.79973
 11
-165.668
 21
-4.84189
  0
LINE
  8
0
 10
-165.668
 20
-4.84189
 11
-165.644
 21
-4.88464
  0
LINE
  8
0
 10
-165.644
 20
-4.88464
 11
-165.621
 21
-4.92798
  0
LINE
  8
0
 10
-165.621
 20
-4.92798
 11
-165.599
 21
-4.97186
  0
LINE
  8
0
 10
-165.599
 20
-4.97186
 11
-165.578
 21
-5.01627
  0
LINE
  8
0
 10
-165.578
 20
-5.01627
 11
-165.558
 21
-5.06119
  0
LINE
  8
0
 10
-165.558
 20
-5.06119
 11
-165.54
 21
-5.10657
  0
LINE
  8
0
 10
-165.54
 20
-5.10657
 11
-165.522
 21
-5.1524
  0
LINE
  8
0
 10
-165.522
 20
-5.1524
 11
-165.506
 21
-5.19865
  0
LINE
  8
0
 10
-165.506
 20
-5.19865
 11
-165.49
 21
-5.24529
  0
LINE
  8
0
 10
-165.49
 20
-5.24529
 11
-165.476
 21
-5.29228
  0
LINE
  8
0
 10
-165.476
 20
-5.29228
 11
-165.463
 21
-5.33961
  0
LINE
  8
0
 10
-165.463
 20
-5.33961
 11
-165.451
 21
-5.38725
  0
LINE
  8
0
 10
-165.451
 20
-5.38725
 11
-165.441
 21
-5.43517
  0
LINE
  8
0
 10
-165.441
 20
-5.43517
 11
-165.431
 21
-5.48334
  0
LINE
  8
0
 10
-165.431
 20
-5.48334
 11
-165.423
 21
-5.53171
  0
LINE
  8
0
 10
-165.423
 20
-5.53171
 11
-165.416
 21
-5.58028
  0
LINE
  8
0
 10
-165.416
 20
-5.58028
 11
-165.41
 21
-5.62901
  0
LINE
  8
0
 10
-165.41
 20
-5.62901
 11
-165.405
 21
-5.67787
  0
LINE
  8
0
 10
-165.405
 20
-5.67787
 11
-165.401
 21
-5.72682
  0
LINE
  8
0
 10
-165.401
 20
-5.72682
 11
-165.399
 21
-5.77586
  0
LINE
  8
0
 10
-165.399
 20
-5.77586
 11
-165.398
 21
-5.82494
  0
LINE
  8
0
 10
-165.398
 20
-5.82494
 11
-165.398
 21
-5.87402
  0
LINE
  8
0
 10
-165.398
 20
-5.87402
 11
-165.399
 21
-5.92308
  0
LINE
  8
0
 10
-165.399
 20
-5.92308
 11
-165.402
 21
-5.97211
  0
LINE
  8
0
 10
-165.402
 20
-5.97211
 11
-165.406
 21
-6.02106
  0
LINE
  8
0
 10
-165.406
 20
-6.02106
 11
-165.411
 21
-6.0699
  0
LINE
  8
0
 10
-165.411
 20
-6.0699
 11
-165.417
 21
-6.11861
  0
LINE
  8
0
 10
-165.417
 20
-6.11861
 11
-165.424
 21
-6.16714
  0
LINE
  8
0
 10
-165.424
 20
-6.16714
 11
-165.432
 21
-6.21548
  0
LINE
  8
0
 10
-165.432
 20
-6.21548
 11
-165.442
 21
-6.26361
  0
LINE
  8
0
 10
-165.442
 20
-6.26361
 11
-165.453
 21
-6.31149
  0
LINE
  8
0
 10
-165.453
 20
-6.31149
 11
-165.465
 21
-6.35909
  0
LINE
  8
0
 10
-165.465
 20
-6.35909
 11
-165.478
 21
-6.40636
  0
LINE
  8
0
 10
-165.478
 20
-6.40636
 11
-165.493
 21
-6.45331
  0
LINE
  8
0
 10
-165.493
 20
-6.45331
 11
-165.508
 21
-6.49989
  0
LINE
  8
0
 10
-165.508
 20
-6.49989
 11
-165.525
 21
-6.54607
  0
LINE
  8
0
 10
-165.525
 20
-6.54607
 11
-165.542
 21
-6.59184
  0
LINE
  8
0
 10
-165.542
 20
-6.59184
 11
-165.561
 21
-6.63715
  0
LINE
  8
0
 10
-165.561
 20
-6.63715
 11
-165.581
 21
-6.68199
  0
LINE
  8
0
 10
-165.581
 20
-6.68199
 11
-165.602
 21
-6.72632
  0
LINE
  8
0
 10
-165.602
 20
-6.72632
 11
-165.624
 21
-6.77013
  0
LINE
  8
0
 10
-165.624
 20
-6.77013
 11
-165.648
 21
-6.81337
  0
LINE
  8
0
 10
-165.648
 20
-6.81337
 11
-165.672
 21
-6.85603
  0
LINE
  8
0
 10
-165.672
 20
-6.85603
 11
-165.697
 21
-6.89809
  0
LINE
  8
0
 10
-165.697
 20
-6.89809
 11
-165.724
 21
-6.9395
  0
LINE
  8
0
 10
-165.724
 20
-6.9395
 11
-165.751
 21
-6.98027
  0
LINE
  8
0
 10
-165.751
 20
-6.98027
 11
-165.779
 21
-7.02034
  0
LINE
  8
0
 10
-165.779
 20
-7.02034
 11
-165.809
 21
-7.05972
  0
LINE
  8
0
 10
-165.809
 20
-7.05972
 11
-165.839
 21
-7.09836
  0
LINE
  8
0
 10
-165.839
 20
-7.09836
 11
-165.87
 21
-7.13625
  0
LINE
  8
0
 10
-165.87
 20
-7.13625
 11
-165.902
 21
-7.17334
  0
LINE
  8
0
 10
-165.902
 20
-7.17334
 11
-165.935
 21
-7.20966
  0
LINE
  8
0
 10
-165.935
 20
-7.20966
 11
-165.969
 21
-7.24515
  0
LINE
  8
0
 10
-165.969
 20
-7.24515
 11
-166.004
 21
-7.27979
  0
LINE
  8
0
 10
-166.004
 20
-7.27979
 11
-166.04
 21
-7.31357
  0
LINE
  8
0
 10
-166.04
 20
-7.31357
 11
-166.076
 21
-7.34645
  0
LINE
  8
0
 10
-166.076
 20
-7.34645
 11
-166.113
 21
-7.37845
  0
LINE
  8
0
 10
-166.113
 20
-7.37845
 11
-166.151
 21
-7.40952
  0
LINE
  8
0
 10
-166.151
 20
-7.40952
 11
-166.19
 21
-7.43964
  0
LINE
  8
0
 10
-166.19
 20
-7.43964
 11
-166.229
 21
-7.46881
  0
LINE
  8
0
 10
-166.229
 20
-7.46881
 11
-166.27
 21
-7.49699
  0
LINE
  8
0
 10
-166.27
 20
-7.49699
 11
-166.311
 21
-7.52419
  0
LINE
  8
0
 10
-166.311
 20
-7.52419
 11
-166.352
 21
-7.55037
  0
LINE
  8
0
 10
-166.352
 20
-7.55037
 11
-166.394
 21
-7.57552
  0
LINE
  8
0
 10
-166.394
 20
-7.57552
 11
-166.437
 21
-7.59964
  0
LINE
  8
0
 10
-166.437
 20
-7.59964
 11
-166.48
 21
-7.6227
  0
LINE
  8
0
 10
-166.48
 20
-7.6227
 11
-166.524
 21
-7.64468
  0
LINE
  8
0
 10
-166.524
 20
-7.64468
 11
-166.569
 21
-7.66557
  0
LINE
  8
0
 10
-166.569
 20
-7.66557
 11
-166.613
 21
-7.68538
  0
LINE
  8
0
 10
-166.613
 20
-7.68538
 11
-166.659
 21
-7.70409
  0
LINE
  8
0
 10
-166.659
 20
-7.70409
 11
-166.705
 21
-7.72166
  0
LINE
  8
0
 10
-166.705
 20
-7.72166
 11
-166.751
 21
-7.73811
  0
LINE
  8
0
 10
-166.751
 20
-7.73811
 11
-166.798
 21
-7.75342
  0
LINE
  8
0
 10
-166.798
 20
-7.75342
 11
-166.845
 21
-7.76758
  0
LINE
  8
0
 10
-166.845
 20
-7.76758
 11
-166.892
 21
-7.78058
  0
LINE
  8
0
 10
-166.892
 20
-7.78058
 11
-166.94
 21
-7.79242
  0
LINE
  8
0
 10
-166.94
 20
-7.79242
 11
-166.987
 21
-7.80309
  0
LINE
  8
0
 10
-166.987
 20
-7.80309
 11
-167.036
 21
-7.81256
  0
LINE
  8
0
 10
-167.036
 20
-7.81256
 11
-167.084
 21
-7.82086
  0
LINE
  8
0
 10
-167.084
 20
-7.82086
 11
-167.133
 21
-7.82797
  0
LINE
  8
0
 10
-167.133
 20
-7.82797
 11
-167.181
 21
-7.83389
  0
LINE
  8
0
 10
-167.181
 20
-7.83389
 11
-167.23
 21
-7.83861
  0
LINE
  8
0
 10
-167.23
 20
-7.83861
 11
-167.279
 21
-7.84212
  0
LINE
  8
0
 10
-167.279
 20
-7.84212
 11
-167.328
 21
-7.84444
  0
LINE
  8
0
 10
-167.328
 20
-7.84444
 11
-167.377
 21
-7.84555
  0
LINE
  8
0
 10
-167.377
 20
-7.84555
 11
-167.426
 21
-7.84546
  0
LINE
  8
0
 10
-166.302
 20
-22.4125
 11
-166.351
 21
-22.4106
  0
LINE
  8
0
 10
-166.351
 20
-22.4106
 11
-166.4
 21
-22.4076
  0
LINE
  8
0
 10
-166.4
 20
-22.4076
 11
-166.449
 21
-22.4034
  0
LINE
  8
0
 10
-166.449
 20
-22.4034
 11
-166.497
 21
-22.3979
  0
LINE
  8
0
 10
-166.497
 20
-22.3979
 11
-166.546
 21
-22.3913
  0
LINE
  8
0
 10
-166.546
 20
-22.3913
 11
-166.594
 21
-22.3835
  0
LINE
  8
0
 10
-166.594
 20
-22.3835
 11
-166.643
 21
-22.3745
  0
LINE
  8
0
 10
-166.643
 20
-22.3745
 11
-166.691
 21
-22.3643
  0
LINE
  8
0
 10
-166.691
 20
-22.3643
 11
-166.738
 21
-22.3529
  0
LINE
  8
0
 10
-166.738
 20
-22.3529
 11
-166.786
 21
-22.3404
  0
LINE
  8
0
 10
-166.786
 20
-22.3404
 11
-166.833
 21
-22.3267
  0
LINE
  8
0
 10
-166.833
 20
-22.3267
 11
-166.88
 21
-22.3118
  0
LINE
  8
0
 10
-166.88
 20
-22.3118
 11
-166.926
 21
-22.2958
  0
LINE
  8
0
 10
-166.926
 20
-22.2958
 11
-166.972
 21
-22.2787
  0
LINE
  8
0
 10
-166.972
 20
-22.2787
 11
-167.018
 21
-22.2605
  0
LINE
  8
0
 10
-167.018
 20
-22.2605
 11
-167.063
 21
-22.2411
  0
LINE
  8
0
 10
-167.063
 20
-22.2411
 11
-167.108
 21
-22.2206
  0
LINE
  8
0
 10
-167.108
 20
-22.2206
 11
-167.152
 21
-22.1991
  0
LINE
  8
0
 10
-167.152
 20
-22.1991
 11
-167.195
 21
-22.1764
  0
LINE
  8
0
 10
-167.195
 20
-22.1764
 11
-167.238
 21
-22.1527
  0
LINE
  8
0
 10
-167.238
 20
-22.1527
 11
-167.281
 21
-22.128
  0
LINE
  8
0
 10
-167.281
 20
-22.128
 11
-167.322
 21
-22.1022
  0
LINE
  8
0
 10
-167.322
 20
-22.1022
 11
-167.364
 21
-22.0754
  0
LINE
  8
0
 10
-167.364
 20
-22.0754
 11
-167.404
 21
-22.0477
  0
LINE
  8
0
 10
-167.404
 20
-22.0477
 11
-167.444
 21
-22.0189
  0
LINE
  8
0
 10
-167.444
 20
-22.0189
 11
-167.483
 21
-21.9891
  0
LINE
  8
0
 10
-167.483
 20
-21.9891
 11
-167.521
 21
-21.9584
  0
LINE
  8
0
 10
-167.521
 20
-21.9584
 11
-167.559
 21
-21.9268
  0
LINE
  8
0
 10
-167.559
 20
-21.9268
 11
-167.595
 21
-21.8943
  0
LINE
  8
0
 10
-167.595
 20
-21.8943
 11
-167.631
 21
-21.8609
  0
LINE
  8
0
 10
-167.631
 20
-21.8609
 11
-167.666
 21
-21.8266
  0
LINE
  8
0
 10
-167.666
 20
-21.8266
 11
-167.701
 21
-21.7914
  0
LINE
  8
0
 10
-167.701
 20
-21.7914
 11
-167.734
 21
-21.7554
  0
LINE
  8
0
 10
-167.734
 20
-21.7554
 11
-167.767
 21
-21.7186
  0
LINE
  8
0
 10
-167.767
 20
-21.7186
 11
-167.798
 21
-21.681
  0
LINE
  8
0
 10
-167.798
 20
-21.681
 11
-167.829
 21
-21.6427
  0
LINE
  8
0
 10
-167.829
 20
-21.6427
 11
-167.859
 21
-21.6036
  0
LINE
  8
0
 10
-167.859
 20
-21.6036
 11
-167.887
 21
-21.5638
  0
LINE
  8
0
 10
-167.887
 20
-21.5638
 11
-167.915
 21
-21.5233
  0
LINE
  8
0
 10
-167.915
 20
-21.5233
 11
-167.942
 21
-21.4822
  0
LINE
  8
0
 10
-167.942
 20
-21.4822
 11
-167.967
 21
-21.4404
  0
LINE
  8
0
 10
-167.967
 20
-21.4404
 11
-167.992
 21
-21.3979
  0
LINE
  8
0
 10
-167.992
 20
-21.3979
 11
-168.016
 21
-21.3549
  0
LINE
  8
0
 10
-168.016
 20
-21.3549
 11
-168.038
 21
-21.3114
  0
LINE
  8
0
 10
-168.038
 20
-21.3114
 11
-168.06
 21
-21.2672
  0
LINE
  8
0
 10
-168.06
 20
-21.2672
 11
-168.08
 21
-21.2226
  0
LINE
  8
0
 10
-168.08
 20
-21.2226
 11
-168.1
 21
-21.1775
  0
LINE
  8
0
 10
-168.1
 20
-21.1775
 11
-168.118
 21
-21.1319
  0
LINE
  8
0
 10
-168.118
 20
-21.1319
 11
-168.135
 21
-21.0859
  0
LINE
  8
0
 10
-168.135
 20
-21.0859
 11
-168.151
 21
-21.0394
  0
LINE
  8
0
 10
-168.151
 20
-21.0394
 11
-168.166
 21
-20.9926
  0
LINE
  8
0
 10
-168.166
 20
-20.9926
 11
-168.179
 21
-20.9455
  0
LINE
  8
0
 10
-168.179
 20
-20.9455
 11
-168.192
 21
-20.898
  0
LINE
  8
0
 10
-168.192
 20
-20.898
 11
-168.203
 21
-20.8503
  0
LINE
  8
0
 10
-168.203
 20
-20.8503
 11
-168.213
 21
-20.8022
  0
LINE
  8
0
 10
-168.213
 20
-20.8022
 11
-168.222
 21
-20.754
  0
LINE
  8
0
 10
-168.222
 20
-20.754
 11
-168.23
 21
-20.7055
  0
LINE
  8
0
 10
-168.23
 20
-20.7055
 11
-168.237
 21
-20.6568
  0
LINE
  8
0
 10
-168.237
 20
-20.6568
 11
-168.242
 21
-20.6081
  0
LINE
  8
0
 10
-168.242
 20
-20.6081
 11
-168.246
 21
-20.5591
  0
LINE
  8
0
 10
-168.246
 20
-20.5591
 11
-168.249
 21
-20.5101
  0
LINE
  8
0
 10
-168.249
 20
-20.5101
 11
-168.251
 21
-20.4611
  0
LINE
  8
0
 10
-168.251
 20
-20.4611
 11
-168.251
 21
-20.412
  0
LINE
  8
0
 10
-168.251
 20
-20.412
 11
-168.251
 21
-20.3629
  0
LINE
  8
0
 10
-168.251
 20
-20.3629
 11
-168.249
 21
-20.3139
  0
LINE
  8
0
 10
-168.249
 20
-20.3139
 11
-168.246
 21
-20.2649
  0
LINE
  8
0
 10
-168.246
 20
-20.2649
 11
-168.242
 21
-20.216
  0
LINE
  8
0
 10
-168.242
 20
-20.216
 11
-168.236
 21
-20.1672
  0
LINE
  8
0
 10
-168.236
 20
-20.1672
 11
-168.23
 21
-20.1186
  0
LINE
  8
0
 10
-168.23
 20
-20.1186
 11
-168.222
 21
-20.0701
  0
LINE
  8
0
 10
-168.222
 20
-20.0701
 11
-168.213
 21
-20.0219
  0
LINE
  8
0
 10
-168.213
 20
-20.0219
 11
-168.203
 21
-19.9738
  0
LINE
  8
0
 10
-168.203
 20
-19.9738
 11
-168.191
 21
-19.9261
  0
LINE
  8
0
 10
-168.191
 20
-19.9261
 11
-168.179
 21
-19.8786
  0
LINE
  8
0
 10
-168.179
 20
-19.8786
 11
-168.165
 21
-19.8315
  0
LINE
  8
0
 10
-168.165
 20
-19.8315
 11
-168.15
 21
-19.7847
  0
LINE
  8
0
 10
-168.15
 20
-19.7847
 11
-168.134
 21
-19.7383
  0
LINE
  8
0
 10
-168.134
 20
-19.7383
 11
-168.117
 21
-19.6923
  0
LINE
  8
0
 10
-168.117
 20
-19.6923
 11
-168.099
 21
-19.6467
  0
LINE
  8
0
 10
-168.099
 20
-19.6467
 11
-168.079
 21
-19.6016
  0
LINE
  8
0
 10
-168.079
 20
-19.6016
 11
-168.059
 21
-19.557
  0
LINE
  8
0
 10
-168.059
 20
-19.557
 11
-168.037
 21
-19.5129
  0
LINE
  8
0
 10
-168.037
 20
-19.5129
 11
-168.015
 21
-19.4694
  0
LINE
  8
0
 10
-168.015
 20
-19.4694
 11
-167.991
 21
-19.4264
  0
LINE
  8
0
 10
-167.991
 20
-19.4264
 11
-167.966
 21
-19.384
  0
LINE
  8
0
 10
-167.966
 20
-19.384
 11
-167.941
 21
-19.3422
  0
LINE
  8
0
 10
-167.941
 20
-19.3422
 11
-167.914
 21
-19.3011
  0
LINE
  8
0
 10
-167.914
 20
-19.3011
 11
-167.886
 21
-19.2606
  0
LINE
  8
0
 10
-167.886
 20
-19.2606
 11
-167.857
 21
-19.2208
  0
LINE
  8
0
 10
-167.857
 20
-19.2208
 11
-167.827
 21
-19.1818
  0
LINE
  8
0
 10
-167.827
 20
-19.1818
 11
-167.797
 21
-19.1435
  0
LINE
  8
0
 10
-167.797
 20
-19.1435
 11
-167.765
 21
-19.1059
  0
LINE
  8
0
 10
-167.765
 20
-19.1059
 11
-167.733
 21
-19.0692
  0
LINE
  8
0
 10
-167.733
 20
-19.0692
 11
-167.699
 21
-19.0332
  0
LINE
  8
0
 10
-167.699
 20
-19.0332
 11
-167.665
 21
-18.9981
  0
LINE
  8
0
 10
-167.665
 20
-18.9981
 11
-167.63
 21
-18.9639
  0
LINE
  8
0
 10
-167.63
 20
-18.9639
 11
-167.594
 21
-18.9305
  0
LINE
  8
0
 10
-167.594
 20
-18.9305
 11
-167.557
 21
-18.898
  0
LINE
  8
0
 10
-167.557
 20
-18.898
 11
-167.519
 21
-18.8664
  0
LINE
  8
0
 10
-167.519
 20
-18.8664
 11
-167.481
 21
-18.8357
  0
LINE
  8
0
 10
-167.481
 20
-18.8357
 11
-167.442
 21
-18.806
  0
LINE
  8
0
 10
-167.442
 20
-18.806
 11
-167.402
 21
-18.7773
  0
LINE
  8
0
 10
-167.402
 20
-18.7773
 11
-167.362
 21
-18.7496
  0
LINE
  8
0
 10
-167.362
 20
-18.7496
 11
-167.321
 21
-18.7228
  0
LINE
  8
0
 10
-167.321
 20
-18.7228
 11
-167.279
 21
-18.6971
  0
LINE
  8
0
 10
-167.279
 20
-18.6971
 11
-167.236
 21
-18.6724
  0
LINE
  8
0
 10
-167.236
 20
-18.6724
 11
-167.193
 21
-18.6488
  0
LINE
  8
0
 10
-167.193
 20
-18.6488
 11
-167.15
 21
-18.6262
  0
LINE
  8
0
 10
-167.15
 20
-18.6262
 11
-167.106
 21
-18.6047
  0
LINE
  8
0
 10
-167.106
 20
-18.6047
 11
-167.061
 21
-18.5842
  0
LINE
  8
0
 10
-167.061
 20
-18.5842
 11
-167.016
 21
-18.5649
  0
LINE
  8
0
 10
-167.016
 20
-18.5649
 11
-166.97
 21
-18.5467
  0
LINE
  8
0
 10
-166.97
 20
-18.5467
 11
-166.924
 21
-18.5296
  0
LINE
  8
0
 10
-166.924
 20
-18.5296
 11
-166.878
 21
-18.5137
  0
LINE
  8
0
 10
-166.878
 20
-18.5137
 11
-166.831
 21
-18.4989
  0
LINE
  8
0
 10
-166.831
 20
-18.4989
 11
-166.784
 21
-18.4853
  0
LINE
  8
0
 10
-166.784
 20
-18.4853
 11
-166.736
 21
-18.4728
  0
LINE
  8
0
 10
-166.736
 20
-18.4728
 11
-166.689
 21
-18.4615
  0
LINE
  8
0
 10
-166.689
 20
-18.4615
 11
-166.641
 21
-18.4513
  0
LINE
  8
0
 10
-166.641
 20
-18.4513
 11
-166.592
 21
-18.4424
  0
LINE
  8
0
 10
-166.592
 20
-18.4424
 11
-166.544
 21
-18.4346
  0
LINE
  8
0
 10
-166.544
 20
-18.4346
 11
-166.495
 21
-18.428
  0
LINE
  8
0
 10
-166.495
 20
-18.428
 11
-166.446
 21
-18.4226
  0
LINE
  8
0
 10
-166.446
 20
-18.4226
 11
-166.398
 21
-18.4184
  0
LINE
  8
0
 10
-166.398
 20
-18.4184
 11
-166.349
 21
-18.4155
  0
LINE
  8
0
 10
-166.349
 20
-18.4155
 11
-166.299
 21
-18.4137
  0
LINE
  8
0
 10
-166.299
 20
-18.4137
 11
-166.25
 21
-18.4131
  0
LINE
  8
0
 10
-166.25
 20
-18.4131
 11
-166.201
 21
-18.4137
  0
LINE
  8
0
 10
-166.201
 20
-18.4137
 11
-166.152
 21
-18.4156
  0
LINE
  8
0
 10
-166.152
 20
-18.4156
 11
-166.103
 21
-18.4186
  0
LINE
  8
0
 10
-166.103
 20
-18.4186
 11
-166.054
 21
-18.4229
  0
LINE
  8
0
 10
-166.054
 20
-18.4229
 11
-166.006
 21
-18.4283
  0
LINE
  8
0
 10
-166.006
 20
-18.4283
 11
-165.957
 21
-18.4349
  0
LINE
  8
0
 10
-165.957
 20
-18.4349
 11
-165.908
 21
-18.4427
  0
LINE
  8
0
 10
-165.908
 20
-18.4427
 11
-165.86
 21
-18.4518
  0
LINE
  8
0
 10
-165.86
 20
-18.4518
 11
-165.812
 21
-18.4619
  0
LINE
  8
0
 10
-165.812
 20
-18.4619
 11
-165.764
 21
-18.4733
  0
LINE
  8
0
 10
-165.764
 20
-18.4733
 11
-165.717
 21
-18.4858
  0
LINE
  8
0
 10
-165.717
 20
-18.4858
 11
-165.67
 21
-18.4995
  0
LINE
  8
0
 10
-165.67
 20
-18.4995
 11
-165.623
 21
-18.5144
  0
LINE
  8
0
 10
-165.623
 20
-18.5144
 11
-165.577
 21
-18.5304
  0
LINE
  8
0
 10
-165.577
 20
-18.5304
 11
-165.531
 21
-18.5475
  0
LINE
  8
0
 10
-165.531
 20
-18.5475
 11
-165.485
 21
-18.5658
  0
LINE
  8
0
 10
-165.485
 20
-18.5658
 11
-165.44
 21
-18.5851
  0
LINE
  8
0
 10
-165.44
 20
-18.5851
 11
-165.395
 21
-18.6056
  0
LINE
  8
0
 10
-165.395
 20
-18.6056
 11
-165.351
 21
-18.6272
  0
LINE
  8
0
 10
-165.351
 20
-18.6272
 11
-165.308
 21
-18.6498
  0
LINE
  8
0
 10
-165.308
 20
-18.6498
 11
-165.265
 21
-18.6735
  0
LINE
  8
0
 10
-165.265
 20
-18.6735
 11
-165.222
 21
-18.6982
  0
LINE
  8
0
 10
-165.222
 20
-18.6982
 11
-165.181
 21
-18.724
  0
LINE
  8
0
 10
-165.181
 20
-18.724
 11
-165.139
 21
-18.7508
  0
LINE
  8
0
 10
-165.139
 20
-18.7508
 11
-165.099
 21
-18.7786
  0
LINE
  8
0
 10
-165.099
 20
-18.7786
 11
-165.059
 21
-18.8073
  0
LINE
  8
0
 10
-165.059
 20
-18.8073
 11
-165.02
 21
-18.8371
  0
LINE
  8
0
 10
-165.02
 20
-18.8371
 11
-164.982
 21
-18.8678
  0
LINE
  8
0
 10
-164.982
 20
-18.8678
 11
-164.944
 21
-18.8994
  0
LINE
  8
0
 10
-164.944
 20
-18.8994
 11
-164.908
 21
-18.9319
  0
LINE
  8
0
 10
-164.908
 20
-18.9319
 11
-164.872
 21
-18.9654
  0
LINE
  8
0
 10
-164.872
 20
-18.9654
 11
-164.837
 21
-18.9997
  0
LINE
  8
0
 10
-164.837
 20
-18.9997
 11
-164.802
 21
-19.0348
  0
LINE
  8
0
 10
-164.802
 20
-19.0348
 11
-164.769
 21
-19.0708
  0
LINE
  8
0
 10
-164.769
 20
-19.0708
 11
-164.736
 21
-19.1076
  0
LINE
  8
0
 10
-164.736
 20
-19.1076
 11
-164.705
 21
-19.1452
  0
LINE
  8
0
 10
-164.705
 20
-19.1452
 11
-164.674
 21
-19.1835
  0
LINE
  8
0
 10
-164.674
 20
-19.1835
 11
-164.644
 21
-19.2226
  0
LINE
  8
0
 10
-164.644
 20
-19.2226
 11
-164.616
 21
-19.2624
  0
LINE
  8
0
 10
-164.616
 20
-19.2624
 11
-164.588
 21
-19.3029
  0
LINE
  8
0
 10
-164.588
 20
-19.3029
 11
-164.561
 21
-19.344
  0
LINE
  8
0
 10
-164.561
 20
-19.344
 11
-164.535
 21
-19.3858
  0
LINE
  8
0
 10
-164.535
 20
-19.3858
 11
-164.511
 21
-19.4283
  0
LINE
  8
0
 10
-164.511
 20
-19.4283
 11
-164.487
 21
-19.4713
  0
LINE
  8
0
 10
-164.487
 20
-19.4713
 11
-164.465
 21
-19.5149
  0
LINE
  8
0
 10
-164.465
 20
-19.5149
 11
-164.443
 21
-19.559
  0
LINE
  8
0
 10
-164.443
 20
-19.559
 11
-164.423
 21
-19.6036
  0
LINE
  8
0
 10
-164.423
 20
-19.6036
 11
-164.403
 21
-19.6487
  0
LINE
  8
0
 10
-164.403
 20
-19.6487
 11
-164.385
 21
-19.6943
  0
LINE
  8
0
 10
-164.385
 20
-19.6943
 11
-164.368
 21
-19.7404
  0
LINE
  8
0
 10
-164.368
 20
-19.7404
 11
-164.352
 21
-19.7868
  0
LINE
  8
0
 10
-164.352
 20
-19.7868
 11
-164.337
 21
-19.8336
  0
LINE
  8
0
 10
-164.337
 20
-19.8336
 11
-164.324
 21
-19.8807
  0
LINE
  8
0
 10
-164.324
 20
-19.8807
 11
-164.311
 21
-19.9282
  0
LINE
  8
0
 10
-164.311
 20
-19.9282
 11
-164.3
 21
-19.976
  0
LINE
  8
0
 10
-164.3
 20
-19.976
 11
-164.29
 21
-20.024
  0
LINE
  8
0
 10
-164.29
 20
-20.024
 11
-164.281
 21
-20.0723
  0
LINE
  8
0
 10
-164.281
 20
-20.0723
 11
-164.273
 21
-20.1207
  0
LINE
  8
0
 10
-164.273
 20
-20.1207
 11
-164.266
 21
-20.1694
  0
LINE
  8
0
 10
-164.266
 20
-20.1694
 11
-164.261
 21
-20.2182
  0
LINE
  8
0
 10
-164.261
 20
-20.2182
 11
-164.257
 21
-20.2671
  0
LINE
  8
0
 10
-164.257
 20
-20.2671
 11
-164.254
 21
-20.3161
  0
LINE
  8
0
 10
-164.254
 20
-20.3161
 11
-164.252
 21
-20.3651
  0
LINE
  8
0
 10
-164.252
 20
-20.3651
 11
-164.251
 21
-20.4142
  0
LINE
  8
0
 10
-164.251
 20
-20.4142
 11
-164.252
 21
-20.4633
  0
LINE
  8
0
 10
-164.252
 20
-20.4633
 11
-164.254
 21
-20.5123
  0
LINE
  8
0
 10
-164.254
 20
-20.5123
 11
-164.257
 21
-20.5613
  0
LINE
  8
0
 10
-164.257
 20
-20.5613
 11
-164.261
 21
-20.6102
  0
LINE
  8
0
 10
-164.261
 20
-20.6102
 11
-164.267
 21
-20.659
  0
LINE
  8
0
 10
-164.267
 20
-20.659
 11
-164.273
 21
-20.7076
  0
LINE
  8
0
 10
-164.273
 20
-20.7076
 11
-164.281
 21
-20.7561
  0
LINE
  8
0
 10
-164.281
 20
-20.7561
 11
-164.29
 21
-20.8044
  0
LINE
  8
0
 10
-164.29
 20
-20.8044
 11
-164.3
 21
-20.8524
  0
LINE
  8
0
 10
-164.3
 20
-20.8524
 11
-164.312
 21
-20.9001
  0
LINE
  8
0
 10
-164.312
 20
-20.9001
 11
-164.324
 21
-20.9476
  0
LINE
  8
0
 10
-164.324
 20
-20.9476
 11
-164.338
 21
-20.9947
  0
LINE
  8
0
 10
-164.338
 20
-20.9947
 11
-164.353
 21
-21.0415
  0
LINE
  8
0
 10
-164.353
 20
-21.0415
 11
-164.369
 21
-21.0879
  0
LINE
  8
0
 10
-164.369
 20
-21.0879
 11
-164.386
 21
-21.1339
  0
LINE
  8
0
 10
-164.386
 20
-21.1339
 11
-164.404
 21
-21.1795
  0
LINE
  8
0
 10
-164.404
 20
-21.1795
 11
-164.424
 21
-21.2246
  0
LINE
  8
0
 10
-164.424
 20
-21.2246
 11
-164.444
 21
-21.2692
  0
LINE
  8
0
 10
-164.444
 20
-21.2692
 11
-164.466
 21
-21.3133
  0
LINE
  8
0
 10
-164.466
 20
-21.3133
 11
-164.488
 21
-21.3569
  0
LINE
  8
0
 10
-164.488
 20
-21.3569
 11
-164.512
 21
-21.3999
  0
LINE
  8
0
 10
-164.512
 20
-21.3999
 11
-164.537
 21
-21.4422
  0
LINE
  8
0
 10
-164.537
 20
-21.4422
 11
-164.562
 21
-21.484
  0
LINE
  8
0
 10
-164.562
 20
-21.484
 11
-164.589
 21
-21.5252
  0
LINE
  8
0
 10
-164.589
 20
-21.5252
 11
-164.617
 21
-21.5656
  0
LINE
  8
0
 10
-164.617
 20
-21.5656
 11
-164.646
 21
-21.6054
  0
LINE
  8
0
 10
-164.646
 20
-21.6054
 11
-164.675
 21
-21.6444
  0
LINE
  8
0
 10
-164.675
 20
-21.6444
 11
-164.706
 21
-21.6827
  0
LINE
  8
0
 10
-164.706
 20
-21.6827
 11
-164.738
 21
-21.7203
  0
LINE
  8
0
 10
-164.738
 20
-21.7203
 11
-164.77
 21
-21.757
  0
LINE
  8
0
 10
-164.77
 20
-21.757
 11
-164.804
 21
-21.793
  0
LINE
  8
0
 10
-164.804
 20
-21.793
 11
-164.838
 21
-21.8281
  0
LINE
  8
0
 10
-164.838
 20
-21.8281
 11
-164.873
 21
-21.8624
  0
LINE
  8
0
 10
-164.873
 20
-21.8624
 11
-164.909
 21
-21.8957
  0
LINE
  8
0
 10
-164.909
 20
-21.8957
 11
-164.946
 21
-21.9282
  0
LINE
  8
0
 10
-164.946
 20
-21.9282
 11
-164.984
 21
-21.9598
  0
LINE
  8
0
 10
-164.984
 20
-21.9598
 11
-165.022
 21
-21.9905
  0
LINE
  8
0
 10
-165.022
 20
-21.9905
 11
-165.061
 21
-22.0202
  0
LINE
  8
0
 10
-165.061
 20
-22.0202
 11
-165.101
 21
-22.0489
  0
LINE
  8
0
 10
-165.101
 20
-22.0489
 11
-165.141
 21
-22.0767
  0
LINE
  8
0
 10
-165.141
 20
-22.0767
 11
-165.182
 21
-22.1034
  0
LINE
  8
0
 10
-165.182
 20
-22.1034
 11
-165.224
 21
-22.1291
  0
LINE
  8
0
 10
-165.224
 20
-22.1291
 11
-165.267
 21
-22.1538
  0
LINE
  8
0
 10
-165.267
 20
-22.1538
 11
-165.31
 21
-22.1775
  0
LINE
  8
0
 10
-165.31
 20
-22.1775
 11
-165.353
 21
-22.2
  0
LINE
  8
0
 10
-165.353
 20
-22.2
 11
-165.397
 21
-22.2216
  0
LINE
  8
0
 10
-165.397
 20
-22.2216
 11
-165.442
 21
-22.242
  0
LINE
  8
0
 10
-165.442
 20
-22.242
 11
-165.487
 21
-22.2613
  0
LINE
  8
0
 10
-165.487
 20
-22.2613
 11
-165.533
 21
-22.2795
  0
LINE
  8
0
 10
-165.533
 20
-22.2795
 11
-165.579
 21
-22.2966
  0
LINE
  8
0
 10
-165.579
 20
-22.2966
 11
-165.625
 21
-22.3125
  0
LINE
  8
0
 10
-165.625
 20
-22.3125
 11
-165.672
 21
-22.3273
  0
LINE
  8
0
 10
-165.672
 20
-22.3273
 11
-165.719
 21
-22.341
  0
LINE
  8
0
 10
-165.719
 20
-22.341
 11
-165.767
 21
-22.3534
  0
LINE
  8
0
 10
-165.767
 20
-22.3534
 11
-165.814
 21
-22.3647
  0
LINE
  8
0
 10
-165.814
 20
-22.3647
 11
-165.862
 21
-22.3749
  0
LINE
  8
0
 10
-165.862
 20
-22.3749
 11
-165.911
 21
-22.3839
  0
LINE
  8
0
 10
-165.911
 20
-22.3839
 11
-165.959
 21
-22.3916
  0
LINE
  8
0
 10
-165.959
 20
-22.3916
 11
-166.008
 21
-22.3982
  0
LINE
  8
0
 10
-166.008
 20
-22.3982
 11
-166.057
 21
-22.4036
  0
LINE
  8
0
 10
-166.057
 20
-22.4036
 11
-166.105
 21
-22.4078
  0
LINE
  8
0
 10
-166.105
 20
-22.4078
 11
-166.154
 21
-22.4108
  0
LINE
  8
0
 10
-166.154
 20
-22.4108
 11
-166.203
 21
-22.4125
  0
LINE
  8
0
 10
-166.203
 20
-22.4125
 11
-166.253
 21
-22.4131
  0
LINE
  8
0
 10
-166.253
 20
-22.4131
 11
-166.302
 21
-22.4125
  0
LINE
  8
0
 10
166.203
 20
-22.4125
 11
166.154
 21
-22.4108
  0
LINE
  8
0
 10
166.154
 20
-22.4108
 11
166.105
 21
-22.4078
  0
LINE
  8
0
 10
166.105
 20
-22.4078
 11
166.057
 21
-22.4036
  0
LINE
  8
0
 10
166.057
 20
-22.4036
 11
166.008
 21
-22.3982
  0
LINE
  8
0
 10
166.008
 20
-22.3982
 11
165.959
 21
-22.3916
  0
LINE
  8
0
 10
165.959
 20
-22.3916
 11
165.911
 21
-22.3839
  0
LINE
  8
0
 10
165.911
 20
-22.3839
 11
165.862
 21
-22.3749
  0
LINE
  8
0
 10
165.862
 20
-22.3749
 11
165.814
 21
-22.3647
  0
LINE
  8
0
 10
165.814
 20
-22.3647
 11
165.767
 21
-22.3534
  0
LINE
  8
0
 10
165.767
 20
-22.3534
 11
165.719
 21
-22.341
  0
LINE
  8
0
 10
165.719
 20
-22.341
 11
165.672
 21
-22.3273
  0
LINE
  8
0
 10
165.672
 20
-22.3273
 11
165.625
 21
-22.3125
  0
LINE
  8
0
 10
165.625
 20
-22.3125
 11
165.579
 21
-22.2966
  0
LINE
  8
0
 10
165.579
 20
-22.2966
 11
165.533
 21
-22.2795
  0
LINE
  8
0
 10
165.533
 20
-22.2795
 11
165.487
 21
-22.2613
  0
LINE
  8
0
 10
165.487
 20
-22.2613
 11
165.442
 21
-22.242
  0
LINE
  8
0
 10
165.442
 20
-22.242
 11
165.397
 21
-22.2216
  0
LINE
  8
0
 10
165.397
 20
-22.2216
 11
165.353
 21
-22.2
  0
LINE
  8
0
 10
165.353
 20
-22.2
 11
165.31
 21
-22.1775
  0
LINE
  8
0
 10
165.31
 20
-22.1775
 11
165.267
 21
-22.1538
  0
LINE
  8
0
 10
165.267
 20
-22.1538
 11
165.224
 21
-22.1291
  0
LINE
  8
0
 10
165.224
 20
-22.1291
 11
165.182
 21
-22.1034
  0
LINE
  8
0
 10
165.182
 20
-22.1034
 11
165.141
 21
-22.0767
  0
LINE
  8
0
 10
165.141
 20
-22.0767
 11
165.101
 21
-22.0489
  0
LINE
  8
0
 10
165.101
 20
-22.0489
 11
165.061
 21
-22.0202
  0
LINE
  8
0
 10
165.061
 20
-22.0202
 11
165.022
 21
-21.9905
  0
LINE
  8
0
 10
165.022
 20
-21.9905
 11
164.984
 21
-21.9598
  0
LINE
  8
0
 10
164.984
 20
-21.9598
 11
164.946
 21
-21.9282
  0
LINE
  8
0
 10
164.946
 20
-21.9282
 11
164.909
 21
-21.8957
  0
LINE
  8
0
 10
164.909
 20
-21.8957
 11
164.873
 21
-21.8624
  0
LINE
  8
0
 10
164.873
 20
-21.8624
 11
164.838
 21
-21.8281
  0
LINE
  8
0
 10
164.838
 20
-21.8281
 11
164.804
 21
-21.793
  0
LINE
  8
0
 10
164.804
 20
-21.793
 11
164.77
 21
-21.757
  0
LINE
  8
0
 10
164.77
 20
-21.757
 11
164.738
 21
-21.7203
  0
LINE
  8
0
 10
164.738
 20
-21.7203
 11
164.706
 21
-21.6827
  0
LINE
  8
0
 10
164.706
 20
-21.6827
 11
164.675
 21
-21.6444
  0
LINE
  8
0
 10
164.675
 20
-21.6444
 11
164.646
 21
-21.6054
  0
LINE
  8
0
 10
164.646
 20
-21.6054
 11
164.617
 21
-21.5656
  0
LINE
  8
0
 10
164.617
 20
-21.5656
 11
164.589
 21
-21.5252
  0
LINE
  8
0
 10
164.589
 20
-21.5252
 11
164.562
 21
-21.484
  0
LINE
  8
0
 10
164.562
 20
-21.484
 11
164.537
 21
-21.4422
  0
LINE
  8
0
 10
164.537
 20
-21.4422
 11
164.512
 21
-21.3999
  0
LINE
  8
0
 10
164.512
 20
-21.3999
 11
164.488
 21
-21.3569
  0
LINE
  8
0
 10
164.488
 20
-21.3569
 11
164.466
 21
-21.3133
  0
LINE
  8
0
 10
164.466
 20
-21.3133
 11
164.444
 21
-21.2692
  0
LINE
  8
0
 10
164.444
 20
-21.2692
 11
164.424
 21
-21.2246
  0
LINE
  8
0
 10
164.424
 20
-21.2246
 11
164.404
 21
-21.1795
  0
LINE
  8
0
 10
164.404
 20
-21.1795
 11
164.386
 21
-21.1339
  0
LINE
  8
0
 10
164.386
 20
-21.1339
 11
164.369
 21
-21.0879
  0
LINE
  8
0
 10
164.369
 20
-21.0879
 11
164.353
 21
-21.0415
  0
LINE
  8
0
 10
164.353
 20
-21.0415
 11
164.338
 21
-20.9947
  0
LINE
  8
0
 10
164.338
 20
-20.9947
 11
164.324
 21
-20.9476
  0
LINE
  8
0
 10
164.324
 20
-20.9476
 11
164.312
 21
-20.9001
  0
LINE
  8
0
 10
164.312
 20
-20.9001
 11
164.3
 21
-20.8524
  0
LINE
  8
0
 10
164.3
 20
-20.8524
 11
164.29
 21
-20.8044
  0
LINE
  8
0
 10
164.29
 20
-20.8044
 11
164.281
 21
-20.7561
  0
LINE
  8
0
 10
164.281
 20
-20.7561
 11
164.273
 21
-20.7076
  0
LINE
  8
0
 10
164.273
 20
-20.7076
 11
164.267
 21
-20.659
  0
LINE
  8
0
 10
164.267
 20
-20.659
 11
164.261
 21
-20.6102
  0
LINE
  8
0
 10
164.261
 20
-20.6102
 11
164.257
 21
-20.5613
  0
LINE
  8
0
 10
164.257
 20
-20.5613
 11
164.254
 21
-20.5123
  0
LINE
  8
0
 10
164.254
 20
-20.5123
 11
164.252
 21
-20.4633
  0
LINE
  8
0
 10
164.252
 20
-20.4633
 11
164.251
 21
-20.4142
  0
LINE
  8
0
 10
164.251
 20
-20.4142
 11
164.252
 21
-20.3651
  0
LINE
  8
0
 10
164.252
 20
-20.3651
 11
164.254
 21
-20.3161
  0
LINE
  8
0
 10
164.254
 20
-20.3161
 11
164.257
 21
-20.2671
  0
LINE
  8
0
 10
164.257
 20
-20.2671
 11
164.261
 21
-20.2182
  0
LINE
  8
0
 10
164.261
 20
-20.2182
 11
164.266
 21
-20.1694
  0
LINE
  8
0
 10
164.266
 20
-20.1694
 11
164.273
 21
-20.1207
  0
LINE
  8
0
 10
164.273
 20
-20.1207
 11
164.281
 21
-20.0723
  0
LINE
  8
0
 10
164.281
 20
-20.0723
 11
164.29
 21
-20.024
  0
LINE
  8
0
 10
164.29
 20
-20.024
 11
164.3
 21
-19.976
  0
LINE
  8
0
 10
164.3
 20
-19.976
 11
164.311
 21
-19.9282
  0
LINE
  8
0
 10
164.311
 20
-19.9282
 11
164.324
 21
-19.8807
  0
LINE
  8
0
 10
164.324
 20
-19.8807
 11
164.337
 21
-19.8336
  0
LINE
  8
0
 10
164.337
 20
-19.8336
 11
164.352
 21
-19.7868
  0
LINE
  8
0
 10
164.352
 20
-19.7868
 11
164.368
 21
-19.7404
  0
LINE
  8
0
 10
164.368
 20
-19.7404
 11
164.385
 21
-19.6943
  0
LINE
  8
0
 10
164.385
 20
-19.6943
 11
164.403
 21
-19.6487
  0
LINE
  8
0
 10
164.403
 20
-19.6487
 11
164.423
 21
-19.6036
  0
LINE
  8
0
 10
164.423
 20
-19.6036
 11
164.443
 21
-19.559
  0
LINE
  8
0
 10
164.443
 20
-19.559
 11
164.465
 21
-19.5149
  0
LINE
  8
0
 10
164.465
 20
-19.5149
 11
164.487
 21
-19.4713
  0
LINE
  8
0
 10
164.487
 20
-19.4713
 11
164.511
 21
-19.4283
  0
LINE
  8
0
 10
164.511
 20
-19.4283
 11
164.535
 21
-19.3858
  0
LINE
  8
0
 10
164.535
 20
-19.3858
 11
164.561
 21
-19.344
  0
LINE
  8
0
 10
164.561
 20
-19.344
 11
164.588
 21
-19.3029
  0
LINE
  8
0
 10
164.588
 20
-19.3029
 11
164.616
 21
-19.2624
  0
LINE
  8
0
 10
164.616
 20
-19.2624
 11
164.644
 21
-19.2226
  0
LINE
  8
0
 10
164.644
 20
-19.2226
 11
164.674
 21
-19.1835
  0
LINE
  8
0
 10
164.674
 20
-19.1835
 11
164.705
 21
-19.1452
  0
LINE
  8
0
 10
164.705
 20
-19.1452
 11
164.736
 21
-19.1076
  0
LINE
  8
0
 10
164.736
 20
-19.1076
 11
164.769
 21
-19.0708
  0
LINE
  8
0
 10
164.769
 20
-19.0708
 11
164.802
 21
-19.0348
  0
LINE
  8
0
 10
164.802
 20
-19.0348
 11
164.837
 21
-18.9997
  0
LINE
  8
0
 10
164.837
 20
-18.9997
 11
164.872
 21
-18.9654
  0
LINE
  8
0
 10
164.872
 20
-18.9654
 11
164.908
 21
-18.9319
  0
LINE
  8
0
 10
164.908
 20
-18.9319
 11
164.944
 21
-18.8994
  0
LINE
  8
0
 10
164.944
 20
-18.8994
 11
164.982
 21
-18.8678
  0
LINE
  8
0
 10
164.982
 20
-18.8678
 11
165.02
 21
-18.8371
  0
LINE
  8
0
 10
165.02
 20
-18.8371
 11
165.059
 21
-18.8073
  0
LINE
  8
0
 10
165.059
 20
-18.8073
 11
165.099
 21
-18.7786
  0
LINE
  8
0
 10
165.099
 20
-18.7786
 11
165.139
 21
-18.7508
  0
LINE
  8
0
 10
165.139
 20
-18.7508
 11
165.181
 21
-18.724
  0
LINE
  8
0
 10
165.181
 20
-18.724
 11
165.222
 21
-18.6982
  0
LINE
  8
0
 10
165.222
 20
-18.6982
 11
165.265
 21
-18.6735
  0
LINE
  8
0
 10
165.265
 20
-18.6735
 11
165.308
 21
-18.6498
  0
LINE
  8
0
 10
165.308
 20
-18.6498
 11
165.351
 21
-18.6272
  0
LINE
  8
0
 10
165.351
 20
-18.6272
 11
165.395
 21
-18.6056
  0
LINE
  8
0
 10
165.395
 20
-18.6056
 11
165.44
 21
-18.5851
  0
LINE
  8
0
 10
165.44
 20
-18.5851
 11
165.485
 21
-18.5658
  0
LINE
  8
0
 10
165.485
 20
-18.5658
 11
165.531
 21
-18.5475
  0
LINE
  8
0
 10
165.531
 20
-18.5475
 11
165.577
 21
-18.5304
  0
LINE
  8
0
 10
165.577
 20
-18.5304
 11
165.623
 21
-18.5144
  0
LINE
  8
0
 10
165.623
 20
-18.5144
 11
165.67
 21
-18.4995
  0
LINE
  8
0
 10
165.67
 20
-18.4995
 11
165.717
 21
-18.4858
  0
LINE
  8
0
 10
165.717
 20
-18.4858
 11
165.764
 21
-18.4733
  0
LINE
  8
0
 10
165.764
 20
-18.4733
 11
165.812
 21
-18.4619
  0
LINE
  8
0
 10
165.812
 20
-18.4619
 11
165.86
 21
-18.4518
  0
LINE
  8
0
 10
165.86
 20
-18.4518
 11
165.908
 21
-18.4427
  0
LINE
  8
0
 10
165.908
 20
-18.4427
 11
165.957
 21
-18.4349
  0
LINE
  8
0
 10
165.957
 20
-18.4349
 11
166.006
 21
-18.4283
  0
LINE
  8
0
 10
166.006
 20
-18.4283
 11
166.054
 21
-18.4229
  0
LINE
  8
0
 10
166.054
 20
-18.4229
 11
166.103
 21
-18.4186
  0
LINE
  8
0
 10
166.103
 20
-18.4186
 11
166.152
 21
-18.4156
  0
LINE
  8
0
 10
166.152
 20
-18.4156
 11
166.201
 21
-18.4137
  0
LINE
  8
0
 10
166.201
 20
-18.4137
 11
166.25
 21
-18.4131
  0
LINE
  8
0
 10
166.25
 20
-18.4131
 11
166.299
 21
-18.4137
  0
LINE
  8
0
 10
166.299
 20
-18.4137
 11
166.349
 21
-18.4155
  0
LINE
  8
0
 10
166.349
 20
-18.4155
 11
166.398
 21
-18.4184
  0
LINE
  8
0
 10
166.398
 20
-18.4184
 11
166.446
 21
-18.4226
  0
LINE
  8
0
 10
166.446
 20
-18.4226
 11
166.495
 21
-18.428
  0
LINE
  8
0
 10
166.495
 20
-18.428
 11
166.544
 21
-18.4346
  0
LINE
  8
0
 10
166.544
 20
-18.4346
 11
166.592
 21
-18.4424
  0
LINE
  8
0
 10
166.592
 20
-18.4424
 11
166.641
 21
-18.4513
  0
LINE
  8
0
 10
166.641
 20
-18.4513
 11
166.689
 21
-18.4615
  0
LINE
  8
0
 10
166.689
 20
-18.4615
 11
166.736
 21
-18.4728
  0
LINE
  8
0
 10
166.736
 20
-18.4728
 11
166.784
 21
-18.4853
  0
LINE
  8
0
 10
166.784
 20
-18.4853
 11
166.831
 21
-18.4989
  0
LINE
  8
0
 10
166.831
 20
-18.4989
 11
166.878
 21
-18.5137
  0
LINE
  8
0
 10
166.878
 20
-18.5137
 11
166.924
 21
-18.5296
  0
LINE
  8
0
 10
166.924
 20
-18.5296
 11
166.97
 21
-18.5467
  0
LINE
  8
0
 10
166.97
 20
-18.5467
 11
167.016
 21
-18.5649
  0
LINE
  8
0
 10
167.016
 20
-18.5649
 11
167.061
 21
-18.5842
  0
LINE
  8
0
 10
167.061
 20
-18.5842
 11
167.106
 21
-18.6047
  0
LINE
  8
0
 10
167.106
 20
-18.6047
 11
167.15
 21
-18.6262
  0
LINE
  8
0
 10
167.15
 20
-18.6262
 11
167.193
 21
-18.6488
  0
LINE
  8
0
 10
167.193
 20
-18.6488
 11
167.236
 21
-18.6724
  0
LINE
  8
0
 10
167.236
 20
-18.6724
 11
167.279
 21
-18.6971
  0
LINE
  8
0
 10
167.279
 20
-18.6971
 11
167.321
 21
-18.7228
  0
LINE
  8
0
 10
167.321
 20
-18.7228
 11
167.362
 21
-18.7496
  0
LINE
  8
0
 10
167.362
 20
-18.7496
 11
167.402
 21
-18.7773
  0
LINE
  8
0
 10
167.402
 20
-18.7773
 11
167.442
 21
-18.806
  0
LINE
  8
0
 10
167.442
 20
-18.806
 11
167.481
 21
-18.8357
  0
LINE
  8
0
 10
167.481
 20
-18.8357
 11
167.519
 21
-18.8664
  0
LINE
  8
0
 10
167.519
 20
-18.8664
 11
167.557
 21
-18.898
  0
LINE
  8
0
 10
167.557
 20
-18.898
 11
167.594
 21
-18.9305
  0
LINE
  8
0
 10
167.594
 20
-18.9305
 11
167.63
 21
-18.9639
  0
LINE
  8
0
 10
167.63
 20
-18.9639
 11
167.665
 21
-18.9981
  0
LINE
  8
0
 10
167.665
 20
-18.9981
 11
167.699
 21
-19.0332
  0
LINE
  8
0
 10
167.699
 20
-19.0332
 11
167.733
 21
-19.0692
  0
LINE
  8
0
 10
167.733
 20
-19.0692
 11
167.765
 21
-19.1059
  0
LINE
  8
0
 10
167.765
 20
-19.1059
 11
167.797
 21
-19.1435
  0
LINE
  8
0
 10
167.797
 20
-19.1435
 11
167.827
 21
-19.1818
  0
LINE
  8
0
 10
167.827
 20
-19.1818
 11
167.857
 21
-19.2208
  0
LINE
  8
0
 10
167.857
 20
-19.2208
 11
167.886
 21
-19.2606
  0
LINE
  8
0
 10
167.886
 20
-19.2606
 11
167.914
 21
-19.3011
  0
LINE
  8
0
 10
167.914
 20
-19.3011
 11
167.941
 21
-19.3422
  0
LINE
  8
0
 10
167.941
 20
-19.3422
 11
167.966
 21
-19.384
  0
LINE
  8
0
 10
167.966
 20
-19.384
 11
167.991
 21
-19.4264
  0
LINE
  8
0
 10
167.991
 20
-19.4264
 11
168.015
 21
-19.4694
  0
LINE
  8
0
 10
168.015
 20
-19.4694
 11
168.037
 21
-19.5129
  0
LINE
  8
0
 10
168.037
 20
-19.5129
 11
168.059
 21
-19.557
  0
LINE
  8
0
 10
168.059
 20
-19.557
 11
168.079
 21
-19.6016
  0
LINE
  8
0
 10
168.079
 20
-19.6016
 11
168.099
 21
-19.6467
  0
LINE
  8
0
 10
168.099
 20
-19.6467
 11
168.117
 21
-19.6923
  0
LINE
  8
0
 10
168.117
 20
-19.6923
 11
168.134
 21
-19.7383
  0
LINE
  8
0
 10
168.134
 20
-19.7383
 11
168.15
 21
-19.7847
  0
LINE
  8
0
 10
168.15
 20
-19.7847
 11
168.165
 21
-19.8315
  0
LINE
  8
0
 10
168.165
 20
-19.8315
 11
168.179
 21
-19.8786
  0
LINE
  8
0
 10
168.179
 20
-19.8786
 11
168.191
 21
-19.9261
  0
LINE
  8
0
 10
168.191
 20
-19.9261
 11
168.203
 21
-19.9738
  0
LINE
  8
0
 10
168.203
 20
-19.9738
 11
168.213
 21
-20.0219
  0
LINE
  8
0
 10
168.213
 20
-20.0219
 11
168.222
 21
-20.0701
  0
LINE
  8
0
 10
168.222
 20
-20.0701
 11
168.23
 21
-20.1186
  0
LINE
  8
0
 10
168.23
 20
-20.1186
 11
168.236
 21
-20.1672
  0
LINE
  8
0
 10
168.236
 20
-20.1672
 11
168.242
 21
-20.216
  0
LINE
  8
0
 10
168.242
 20
-20.216
 11
168.246
 21
-20.2649
  0
LINE
  8
0
 10
168.246
 20
-20.2649
 11
168.249
 21
-20.3139
  0
LINE
  8
0
 10
168.249
 20
-20.3139
 11
168.251
 21
-20.3629
  0
LINE
  8
0
 10
168.251
 20
-20.3629
 11
168.251
 21
-20.412
  0
LINE
  8
0
 10
168.251
 20
-20.412
 11
168.251
 21
-20.4611
  0
LINE
  8
0
 10
168.251
 20
-20.4611
 11
168.249
 21
-20.5101
  0
LINE
  8
0
 10
168.249
 20
-20.5101
 11
168.246
 21
-20.5591
  0
LINE
  8
0
 10
168.246
 20
-20.5591
 11
168.242
 21
-20.6081
  0
LINE
  8
0
 10
168.242
 20
-20.6081
 11
168.237
 21
-20.6568
  0
LINE
  8
0
 10
168.237
 20
-20.6568
 11
168.23
 21
-20.7055
  0
LINE
  8
0
 10
168.23
 20
-20.7055
 11
168.222
 21
-20.754
  0
LINE
  8
0
 10
168.222
 20
-20.754
 11
168.213
 21
-20.8022
  0
LINE
  8
0
 10
168.213
 20
-20.8022
 11
168.203
 21
-20.8503
  0
LINE
  8
0
 10
168.203
 20
-20.8503
 11
168.192
 21
-20.898
  0
LINE
  8
0
 10
168.192
 20
-20.898
 11
168.179
 21
-20.9455
  0
LINE
  8
0
 10
168.179
 20
-20.9455
 11
168.166
 21
-20.9926
  0
LINE
  8
0
 10
168.166
 20
-20.9926
 11
168.151
 21
-21.0394
  0
LINE
  8
0
 10
168.151
 20
-21.0394
 11
168.135
 21
-21.0859
  0
LINE
  8
0
 10
168.135
 20
-21.0859
 11
168.118
 21
-21.1319
  0
LINE
  8
0
 10
168.118
 20
-21.1319
 11
168.1
 21
-21.1775
  0
LINE
  8
0
 10
168.1
 20
-21.1775
 11
168.08
 21
-21.2226
  0
LINE
  8
0
 10
168.08
 20
-21.2226
 11
168.06
 21
-21.2672
  0
LINE
  8
0
 10
168.06
 20
-21.2672
 11
168.038
 21
-21.3114
  0
LINE
  8
0
 10
168.038
 20
-21.3114
 11
168.016
 21
-21.3549
  0
LINE
  8
0
 10
168.016
 20
-21.3549
 11
167.992
 21
-21.3979
  0
LINE
  8
0
 10
167.992
 20
-21.3979
 11
167.967
 21
-21.4404
  0
LINE
  8
0
 10
167.967
 20
-21.4404
 11
167.942
 21
-21.4822
  0
LINE
  8
0
 10
167.942
 20
-21.4822
 11
167.915
 21
-21.5233
  0
LINE
  8
0
 10
167.915
 20
-21.5233
 11
167.887
 21
-21.5638
  0
LINE
  8
0
 10
167.887
 20
-21.5638
 11
167.859
 21
-21.6036
  0
LINE
  8
0
 10
167.859
 20
-21.6036
 11
167.829
 21
-21.6427
  0
LINE
  8
0
 10
167.829
 20
-21.6427
 11
167.798
 21
-21.681
  0
LINE
  8
0
 10
167.798
 20
-21.681
 11
167.767
 21
-21.7186
  0
LINE
  8
0
 10
167.767
 20
-21.7186
 11
167.734
 21
-21.7554
  0
LINE
  8
0
 10
167.734
 20
-21.7554
 11
167.701
 21
-21.7914
  0
LINE
  8
0
 10
167.701
 20
-21.7914
 11
167.666
 21
-21.8266
  0
LINE
  8
0
 10
167.666
 20
-21.8266
 11
167.631
 21
-21.8609
  0
LINE
  8
0
 10
167.631
 20
-21.8609
 11
167.595
 21
-21.8943
  0
LINE
  8
0
 10
167.595
 20
-21.8943
 11
167.559
 21
-21.9268
  0
LINE
  8
0
 10
167.559
 20
-21.9268
 11
167.521
 21
-21.9584
  0
LINE
  8
0
 10
167.521
 20
-21.9584
 11
167.483
 21
-21.9891
  0
LINE
  8
0
 10
167.483
 20
-21.9891
 11
167.444
 21
-22.0189
  0
LINE
  8
0
 10
167.444
 20
-22.0189
 11
167.404
 21
-22.0477
  0
LINE
  8
0
 10
167.404
 20
-22.0477
 11
167.364
 21
-22.0754
  0
LINE
  8
0
 10
167.364
 20
-22.0754
 11
167.322
 21
-22.1022
  0
LINE
  8
0
 10
167.322
 20
-22.1022
 11
167.281
 21
-22.128
  0
LINE
  8
0
 10
167.281
 20
-22.128
 11
167.238
 21
-22.1527
  0
LINE
  8
0
 10
167.238
 20
-22.1527
 11
167.195
 21
-22.1764
  0
LINE
  8
0
 10
167.195
 20
-22.1764
 11
167.152
 21
-22.1991
  0
LINE
  8
0
 10
167.152
 20
-22.1991
 11
167.108
 21
-22.2206
  0
LINE
  8
0
 10
167.108
 20
-22.2206
 11
167.063
 21
-22.2411
  0
LINE
  8
0
 10
167.063
 20
-22.2411
 11
167.018
 21
-22.2605
  0
LINE
  8
0
 10
167.018
 20
-22.2605
 11
166.972
 21
-22.2787
  0
LINE
  8
0
 10
166.972
 20
-22.2787
 11
166.926
 21
-22.2958
  0
LINE
  8
0
 10
166.926
 20
-22.2958
 11
166.88
 21
-22.3118
  0
LINE
  8
0
 10
166.88
 20
-22.3118
 11
166.833
 21
-22.3267
  0
LINE
  8
0
 10
166.833
 20
-22.3267
 11
166.786
 21
-22.3404
  0
LINE
  8
0
 10
166.786
 20
-22.3404
 11
166.738
 21
-22.3529
  0
LINE
  8
0
 10
166.738
 20
-22.3529
 11
166.691
 21
-22.3643
  0
LINE
  8
0
 10
166.691
 20
-22.3643
 11
166.643
 21
-22.3745
  0
LINE
  8
0
 10
166.643
 20
-22.3745
 11
166.594
 21
-22.3835
  0
LINE
  8
0
 10
166.594
 20
-22.3835
 11
166.546
 21
-22.3913
  0
LINE
  8
0
 10
166.546
 20
-22.3913
 11
166.497
 21
-22.3979
  0
LINE
  8
0
 10
166.497
 20
-22.3979
 11
166.449
 21
-22.4034
  0
LINE
  8
0
 10
166.449
 20
-22.4034
 11
166.4
 21
-22.4076
  0
LINE
  8
0
 10
166.4
 20
-22.4076
 11
166.351
 21
-22.4106
  0
LINE
  8
0
 10
166.351
 20
-22.4106
 11
166.302
 21
-22.4125
  0
LINE
  8
0
 10
166.302
 20
-22.4125
 11
166.253
 21
-22.4131
  0
LINE
  8
0
 10
166.253
 20
-22.4131
 11
166.203
 21
-22.4125
  0
ENDSEC
  0
SECTION
  2
OBJECTS
  0
DICTIONARY
  0
ENDSEC
  0
EOF
