<?xml version="1.0" standalone="no"?>
<!DOCTYPE svg PUBLIC "-//W3C//DTD SVG 1.1//EN" "http://www.w3.org/Graphics/SVG/1.1/DTD/svg11.dtd">
<svg width="346mm" height="170mm" viewBox="-173 0 346 170" xmlns="http://www.w3.org/2000/svg" version="1.1">
<title>OpenSCAD Model</title>
<path d="
M -155.987,41.7965 L -156.66,39.2413 L -157.576,35.3848 L -158.397,31.5071 L -159.122,27.6103 L -159.752,23.697
 L -160.285,19.7693 L -160.722,15.8298 L -161.062,11.8807 L -161.305,7.92442 L -161.451,3.96339 L -161.5,-0
 L -173,-0 L -172.948,4.24562 L -172.792,8.48869 L -172.531,12.7267 L -172.167,16.957 L -171.699,21.177
 L -171.128,25.3844 L -170.453,29.5764 L -169.676,33.7506 L -168.796,37.9045 L -167.815,42.0356 L -167.094,44.7727
 L -167.105,44.7757 L -167.022,44.7545 L -166.938,44.7353 L -166.854,44.7182 L -166.769,44.7032 L -166.685,44.6902
 L -166.599,44.6794 L -166.514,44.6706 L -166.428,44.6639 L -166.342,44.6594 L -166.257,44.6569 L -166.171,44.6565
 L -166.085,44.6583 L -165.999,44.6622 L -165.913,44.6681 L -165.828,44.6762 L -165.742,44.6864 L -165.657,44.6986
 L -165.573,44.713 L -165.488,44.7294 L -165.405,44.7479 L -165.321,44.7684 L -165.238,44.791 L -165.156,44.8156
 L -165.074,44.8422 L -164.993,44.8708 L -164.913,44.9014 L -164.833,44.9339 L -164.755,44.9684 L -164.677,45.0048
 L -164.6,45.0431 L -164.524,45.0833 L -164.449,45.1253 L -164.375,45.1692 L -164.303,45.2149 L -164.231,45.2623
 L -164.161,45.3115 L -164.091,45.3624 L -164.023,45.4149 L -163.957,45.4691 L -163.892,45.525 L -163.828,45.5824
 L -163.765,45.6414 L -163.751,45.6559 L -162.68,49.3484 L -161.42,53.3259 L -160.062,57.2713 L -158.609,61.1821
 L -157.06,65.0562 L -155.416,68.891 L -153.678,72.6844 L -151.848,76.4339 L -149.927,80.1374 L -147.915,83.7927
 L -145.814,87.3975 L -143.625,90.9496 L -141.35,94.4469 L -138.989,97.8874 L -136.545,101.269 L -134.019,104.589
 L -131.412,107.847 L -128.726,111.039 L -125.962,114.165 L -123.122,117.222 L -120.208,120.208 L -117.222,123.122
 L -114.165,125.962 L -111.039,128.726 L -107.847,131.412 L -104.589,134.019 L -101.269,136.545 L -97.8874,138.989
 L -94.4469,141.35 L -90.9496,143.625 L -87.3975,145.814 L -83.7927,147.915 L -80.1374,149.927 L -76.4339,151.848
 L -72.6844,153.678 L -68.891,155.416 L -65.0562,157.06 L -61.1821,158.609 L -57.2713,160.062 L -53.3259,161.42
 L -49.3484,162.68 L -45.3412,163.842 L -41.3066,164.905 L -37.2472,165.869 L -33.1653,166.733 L -29.0635,167.497
 L -24.9442,168.16 L -20.8098,168.722 L -16.6629,169.181 L -12.506,169.539 L -8.34149,169.795 L -4.172,169.949
 L 0,170 L 4.172,169.949 L 8.34149,169.795 L 12.506,169.539 L 16.6629,169.181 L 20.8098,168.722
 L 24.9442,168.16 L 29.0635,167.497 L 33.1653,166.733 L 37.2472,165.869 L 41.3066,164.905 L 45.3412,163.842
 L 49.3484,162.68 L 53.3259,161.42 L 57.2713,160.062 L 61.1821,158.609 L 65.0562,157.06 L 68.891,155.416
 L 72.6844,153.678 L 76.4339,151.848 L 80.1374,149.927 L 83.7927,147.915 L 87.3975,145.814 L 90.9496,143.625
 L 94.4469,141.35 L 97.8874,138.989 L 101.269,136.545 L 104.589,134.019 L 107.847,131.412 L 111.039,128.726
 L 114.165,125.962 L 117.222,123.122 L 120.208,120.208 L 123.122,117.222 L 125.962,114.165 L 128.726,111.039
 L 131.412,107.847 L 134.019,104.589 L 136.545,101.269 L 138.989,97.8874 L 141.35,94.4469 L 143.625,90.9496
 L 145.814,87.3975 L 147.915,83.7927 L 149.927,80.1374 L 151.848,76.4339 L 153.678,72.6844 L 155.416,68.891
 L 157.06,65.0562 L 158.609,61.1821 L 160.062,57.2713 L 161.42,53.3259 L 162.68,49.3484 L 163.751,45.6559
 L 163.765,45.6414 L 163.828,45.5824 L 163.892,45.525 L 163.957,45.4691 L 164.023,45.4149 L 164.091,45.3624
 L 164.161,45.3115 L 164.231,45.2623 L 164.303,45.2149 L 164.375,45.1692 L 164.449,45.1253 L 164.524,45.0833
 L 164.6,45.0431 L 164.677,45.0048 L 164.755,44.9684 L 164.833,44.9339 L 164.913,44.9014 L 164.993,44.8708
 L 165.074,44.8422 L 165.156,44.8156 L 165.238,44.791 L 165.321,44.7684 L 165.405,44.7479 L 165.488,44.7294
 L 165.573,44.713 L 165.657,44.6986 L 165.742,44.6864 L 165.828,44.6762 L 165.913,44.6681 L 165.999,44.6622
 L 166.085,44.6583 L 166.171,44.6565 L 166.257,44.6569 L 166.342,44.6594 L 166.428,44.6639 L 166.514,44.6706
 L 166.599,44.6794 L 166.685,44.6902 L 166.769,44.7032 L 166.854,44.7182 L 166.938,44.7353 L 167.022,44.7545
 L 167.105,44.7757 L 167.094,44.7727 L 167.815,42.0356 L 168.796,37.9045 L 169.676,33.7506 L 170.453,29.5764
 L 171.128,25.3844 L 171.699,21.177 L 172.167,16.957 L 172.531,12.7267 L 172.792,8.48869 L 172.948,4.24562
 L 173,-0 L 161.5,-0 L 161.451,3.96339 L 161.305,7.92442 L 161.062,11.8807 L 160.722,15.8298
 L 160.285,19.7693 L 159.752,23.697 L 159.122,27.6103 L 158.397,31.5071 L 157.576,35.3848 L 156.66,39.2413
 L 155.987,41.7965 L 155.997,41.7993 L 156.08,41.8225 L 156.162,41.8478 L 156.243,41.8751 L 156.324,41.9043
 L 156.404,41.9356 L 156.483,41.9688 L 156.562,42.0039 L 156.639,42.041 L 156.716,42.0799 L 156.791,42.1207
 L 156.866,42.1633 L 156.939,42.2078 L 157.012,42.2541 L 157.083,42.3021 L 157.153,42.3518 L 157.222,42.4033
 L 157.289,42.4564 L 157.355,42.5112 L 157.42,42.5675 L 157.484,42.6255 L 157.546,42.685 L 157.606,42.746
 L 157.665,42.8084 L 157.723,42.8723 L 157.778,42.9376 L 157.833,43.0042 L 157.885,43.0721 L 157.936,43.1413
 L 157.985,43.2118 L 158.033,43.2834 L 158.078,43.3562 L 158.122,43.43 L 158.164,43.5049 L 158.204,43.5808
 L 158.243,43.6577 L 158.279,43.7355 L 158.314,43.8142 L 158.346,43.8937 L 158.377,43.974 L 158.405,44.055
 L 158.432,44.1366 L 158.457,44.2189 L 158.479,44.3018 L 158.5,44.3852 L 158.518,44.4691 L 158.535,44.5535
 L 158.549,44.6382 L 158.561,44.7232 L 158.571,44.8085 L 158.579,44.894 L 158.585,44.9797 L 158.589,45.0655
 L 158.591,45.1514 L 158.591,45.2373 L 158.588,45.3231 L 158.584,45.4089 L 158.577,45.4946 L 158.569,45.5738
 L 157.895,47.897 L 156.672,51.7575 L 155.355,55.5868 L 153.944,59.3827 L 152.44,63.1428 L 150.845,66.8648
 L 149.158,70.5466 L 147.382,74.1859 L 145.517,77.7805 L 143.564,81.3282 L 141.525,84.827 L 139.401,88.2746
 L 137.192,91.6691 L 134.901,95.0083 L 132.529,98.2904 L 130.077,101.513 L 127.547,104.675 L 124.939,107.774
 L 122.257,110.807 L 119.501,113.774 L 116.673,116.673 L 113.774,119.501 L 110.807,122.257 L 107.774,124.939
 L 104.675,127.547 L 101.513,130.077 L 98.2904,132.529 L 95.0083,134.901 L 91.6691,137.192 L 88.2746,139.401
 L 84.827,141.525 L 81.3282,143.564 L 77.7805,145.517 L 74.1859,147.382 L 70.5466,149.158 L 66.8648,150.845
 L 63.1428,152.44 L 59.3827,153.944 L 55.5868,155.355 L 51.7575,156.672 L 47.897,157.895 L 44.0076,159.023
 L 40.0917,160.055 L 36.1517,160.991 L 32.1899,161.83 L 28.2087,162.571 L 24.2105,163.214 L 20.1978,163.759
 L 16.1728,164.205 L 12.1381,164.553 L 8.09616,164.801 L 4.0493,164.95 L 0,165 L -4.0493,164.95
 L -8.09616,164.801 L -12.1381,164.553 L -16.1728,164.205 L -20.1978,163.759 L -24.2105,163.214 L -28.2087,162.571
 L -32.1899,161.83 L -36.1517,160.991 L -40.0917,160.055 L -44.0076,159.023 L -47.897,157.895 L -51.7575,156.672
 L -55.5868,155.355 L -59.3827,153.944 L -63.1428,152.44 L -66.8648,150.845 L -70.5466,149.158 L -74.1859,147.382
 L -77.7805,145.517 L -81.3282,143.564 L -84.827,141.525 L -88.2746,139.401 L -91.6691,137.192 L -95.0083,134.901
 L -98.2904,132.529 L -101.513,130.077 L -104.675,127.547 L -107.774,124.939 L -110.807,122.257 L -113.774,119.501
 L -116.673,116.673 L -119.501,113.774 L -122.257,110.807 L -124.939,107.774 L -127.547,104.675 L -130.077,101.513
 L -132.529,98.2904 L -134.901,95.0083 L -137.192,91.6691 L -139.401,88.2746 L -141.525,84.827 L -143.564,81.3282
 L -145.517,77.7805 L -147.382,74.1859 L -149.158,70.5466 L -150.845,66.8648 L -152.44,63.1428 L -153.944,59.3827
 L -155.355,55.5868 L -156.672,51.7575 L -157.895,47.897 L -158.569,45.5738 L -158.577,45.4946 L -158.584,45.4089
 L -158.588,45.3231 L -158.591,45.2373 L -158.591,45.1514 L -158.589,45.0655 L -158.585,44.9797 L -158.579,44.894
 L -158.571,44.8085 L -158.561,44.7232 L -158.549,44.6382 L -158.535,44.5535 L -158.518,44.4691 L -158.5,44.3852
 L -158.479,44.3018 L -158.457,44.2189 L -158.432,44.1366 L -158.405,44.055 L -158.377,43.974 L -158.346,43.8937
 L -158.314,43.8142 L -158.279,43.7355 L -158.243,43.6577 L -158.204,43.5808 L -158.164,43.5049 L -158.122,43.43
 L -158.078,43.3562 L -158.033,43.2834 L -157.985,43.2118 L -157.936,43.1413 L -157.885,43.0721 L -157.833,43.0042
 L -157.778,42.9376 L -157.723,42.8723 L -157.665,42.8084 L -157.606,42.746 L -157.546,42.685 L -157.484,42.6255
 L -157.42,42.5675 L -157.355,42.5112 L -157.289,42.4564 L -157.222,42.4033 L -157.153,42.3518 L -157.083,42.3021
 L -157.012,42.2541 L -156.939,42.2078 L -156.866,42.1633 L -156.791,42.1207 L -156.716,42.0799 L -156.639,42.041
 L -156.562,42.0039 L -156.483,41.9688 L -156.404,41.9356 L -156.324,41.9043 L -156.243,41.8751 L -156.162,41.8478
 L -156.08,41.8225 L -155.997,41.7993 z
M 167.328,7.84444 L 167.279,7.84212 L 167.23,7.83861 L 167.181,7.83389 L 167.133,7.82797 L 167.084,7.82086
 L 167.036,7.81256 L 166.987,7.80309 L 166.94,7.79242 L 166.892,7.78058 L 166.845,7.76758 L 166.798,7.75342
 L 166.751,7.73811 L 166.705,7.72166 L 166.659,7.70409 L 166.613,7.68538 L 166.569,7.66557 L 166.524,7.64468
 L 166.48,7.6227 L 166.437,7.59964 L 166.394,7.57552 L 166.352,7.55037 L 166.311,7.52419 L 166.27,7.49699
 L 166.229,7.46881 L 166.19,7.43964 L 166.151,7.40952 L 166.113,7.37845 L 166.076,7.34645 L 166.04,7.31357
 L 166.004,7.27979 L 165.969,7.24515 L 165.935,7.20966 L 165.902,7.17334 L 165.87,7.13625 L 165.839,7.09836
 L 165.809,7.05972 L 165.779,7.02034 L 165.751,6.98027 L 165.724,6.9395 L 165.697,6.89809 L 165.672,6.85603
 L 165.648,6.81337 L 165.624,6.77013 L 165.602,6.72632 L 165.581,6.68199 L 165.561,6.63715 L 165.542,6.59184
 L 165.525,6.54607 L 165.508,6.49989 L 165.493,6.45331 L 165.478,6.40636 L 165.465,6.35909 L 165.453,6.31149
 L 165.442,6.26361 L 165.432,6.21548 L 165.424,6.16714 L 165.417,6.11861 L 165.411,6.0699 L 165.406,6.02106
 L 165.402,5.97211 L 165.399,5.92308 L 165.398,5.87402 L 165.398,5.82494 L 165.399,5.77586 L 165.401,5.72682
 L 165.405,5.67787 L 165.41,5.62901 L 165.416,5.58028 L 165.423,5.53171 L 165.431,5.48334 L 165.441,5.43517
 L 165.451,5.38725 L 165.463,5.33961 L 165.476,5.29228 L 165.49,5.24529 L 165.506,5.19865 L 165.522,5.1524
 L 165.54,5.10657 L 165.558,5.06119 L 165.578,5.01627 L 165.599,4.97186 L 165.621,4.92798 L 165.644,4.88464
 L 165.668,4.84189 L 165.693,4.79973 L 165.719,4.75821 L 165.747,4.71735 L 165.775,4.67715 L 165.804,4.63768
 L 165.834,4.59892 L 165.865,4.56091 L 165.897,4.52368 L 165.93,4.48726 L 165.964,4.45164 L 165.998,4.41687
 L 166.034,4.38295 L 166.07,4.34991 L 166.107,4.31778 L 166.145,4.28658 L 166.184,4.2563 L 166.223,4.22699
 L 166.263,4.19864 L 166.304,4.1713 L 166.346,4.14496 L 166.388,4.11964 L 166.43,4.09537 L 166.473,4.07214
 L 166.517,4.04999 L 166.562,4.02892 L 166.606,4.00894 L 166.652,3.99007 L 166.698,3.97232 L 166.744,3.95569
 L 166.79,3.9402 L 166.837,3.92586 L 166.885,3.91269 L 166.932,3.90067 L 166.98,3.88982 L 167.028,3.88014
 L 167.076,3.87166 L 167.125,3.86436 L 167.174,3.85826 L 167.223,3.85336 L 167.272,3.84966 L 167.321,3.84715
 L 167.37,3.84586 L 167.419,3.84576 L 167.468,3.84688 L 167.517,3.8492 L 167.566,3.85271 L 167.615,3.85742
 L 167.663,3.86334 L 167.712,3.87045 L 167.76,3.87875 L 167.808,3.88823 L 167.856,3.8989 L 167.904,3.91074
 L 167.951,3.92374 L 167.998,3.9379 L 168.045,3.9532 L 168.091,3.96965 L 168.137,3.98723 L 168.182,4.00594
 L 168.227,4.02574 L 168.272,4.04663 L 168.316,4.06862 L 168.359,4.09167 L 168.402,4.1158 L 168.444,4.14095
 L 168.485,4.16713 L 168.526,4.19432 L 168.566,4.2225 L 168.606,4.25168 L 168.645,4.2818 L 168.683,4.31287
 L 168.72,4.34486 L 168.756,4.37775 L 168.792,4.41153 L 168.827,4.44618 L 168.861,4.48166 L 168.894,4.51797
 L 168.926,4.55507 L 168.957,4.59296 L 168.987,4.63161 L 169.017,4.67097 L 169.045,4.71104 L 169.072,4.75182
 L 169.099,4.79323 L 169.124,4.83528 L 169.148,4.87794 L 169.171,4.92119 L 169.194,4.965 L 169.215,5.00932
 L 169.235,5.05417 L 169.254,5.09949 L 169.271,5.14525 L 169.288,5.19142 L 169.303,5.23801 L 169.318,5.28496
 L 169.331,5.33223 L 169.343,5.37982 L 169.354,5.4277 L 169.363,5.47583 L 169.372,5.52417 L 169.379,5.57271
 L 169.385,5.62141 L 169.39,5.67026 L 169.394,5.71921 L 169.396,5.76823 L 169.398,5.81729 L 169.398,5.86638
 L 169.397,5.91545 L 169.394,5.96449 L 169.391,6.01344 L 169.386,6.0623 L 169.38,6.11104 L 169.373,6.15961
 L 169.365,6.20798 L 169.355,6.25615 L 169.345,6.30406 L 169.333,6.3517 L 169.32,6.39903 L 169.306,6.44603
 L 169.29,6.49266 L 169.274,6.53891 L 169.256,6.58475 L 169.238,6.63013 L 169.218,6.67505 L 169.197,6.71945
 L 169.175,6.76335 L 169.152,6.80669 L 169.128,6.84944 L 169.103,6.89159 L 169.076,6.93311 L 169.049,6.97397
 L 169.021,7.01416 L 168.992,7.05363 L 168.962,7.09239 L 168.931,7.1304 L 168.899,7.16763 L 168.866,7.20406
 L 168.832,7.23967 L 168.797,7.27444 L 168.762,7.30836 L 168.726,7.3414 L 168.689,7.37354 L 168.651,7.40474
 L 168.612,7.43501 L 168.573,7.46434 L 168.533,7.49268 L 168.492,7.52002 L 168.45,7.54636 L 168.408,7.57169
 L 168.366,7.59595 L 168.322,7.61917 L 168.279,7.64133 L 168.234,7.6624 L 168.189,7.68237 L 168.144,7.70125
 L 168.098,7.71901 L 168.052,7.73563 L 168.006,7.75111 L 167.959,7.76546 L 167.911,7.77864 L 167.864,7.79065
 L 167.816,7.8015 L 167.768,7.81117 L 167.719,7.81966 L 167.671,7.82695 L 167.622,7.83305 L 167.573,7.83795
 L 167.524,7.84166 L 167.475,7.84416 L 167.426,7.84546 L 167.377,7.84555 z
M -167.426,7.84546 L -167.475,7.84416 L -167.524,7.84166 L -167.573,7.83795 L -167.622,7.83305 L -167.671,7.82695
 L -167.719,7.81966 L -167.768,7.81117 L -167.816,7.8015 L -167.864,7.79065 L -167.911,7.77864 L -167.959,7.76546
 L -168.006,7.75111 L -168.052,7.73563 L -168.098,7.71901 L -168.144,7.70125 L -168.189,7.68237 L -168.234,7.6624
 L -168.279,7.64133 L -168.322,7.61917 L -168.366,7.59595 L -168.408,7.57169 L -168.45,7.54636 L -168.492,7.52002
 L -168.533,7.49268 L -168.573,7.46434 L -168.612,7.43501 L -168.651,7.40474 L -168.689,7.37354 L -168.726,7.3414
 L -168.762,7.30836 L -168.797,7.27444 L -168.832,7.23967 L -168.866,7.20406 L -168.899,7.16763 L -168.931,7.1304
 L -168.962,7.09239 L -168.992,7.05363 L -169.021,7.01416 L -169.049,6.97397 L -169.076,6.93311 L -169.103,6.89159
 L -169.128,6.84944 L -169.152,6.80669 L -169.175,6.76335 L -169.197,6.71945 L -169.218,6.67505 L -169.238,6.63013
 L -169.256,6.58475 L -169.274,6.53891 L -169.29,6.49266 L -169.306,6.44603 L -169.32,6.39903 L -169.333,6.3517
 L -169.345,6.30406 L -169.355,6.25615 L -169.365,6.20798 L -169.373,6.15961 L -169.38,6.11104 L -169.386,6.0623
 L -169.391,6.01344 L -169.394,5.96449 L -169.397,5.91545 L -169.398,5.86638 L -169.398,5.81729 L -169.396,5.76823
 L -169.394,5.71921 L -169.39,5.67026 L -169.385,5.62141 L -169.379,5.57271 L -169.372,5.52417 L -169.363,5.47583
 L -169.354,5.4277 L -169.343,5.37982 L -169.331,5.33223 L -169.318,5.28496 L -169.303,5.23801 L -169.288,5.19142
 L -169.271,5.14525 L -169.254,5.09949 L -169.235,5.05417 L -169.215,5.00932 L -169.194,4.965 L -169.171,4.92119
 L -169.148,4.87794 L -169.124,4.83528 L -169.099,4.79323 L -169.072,4.75182 L -169.045,4.71104 L -169.017,4.67097
 L -168.987,4.63161 L -168.957,4.59296 L -168.926,4.55507 L -168.894,4.51797 L -168.861,4.48166 L -168.827,4.44618
 L -168.792,4.41153 L -168.756,4.37775 L -168.72,4.34486 L -168.683,4.31287 L -168.645,4.2818 L -168.606,4.25168
 L -168.566,4.2225 L -168.526,4.19432 L -168.485,4.16713 L -168.444,4.14095 L -168.402,4.1158 L -168.359,4.09167
 L -168.316,4.06862 L -168.272,4.04663 L -168.227,4.02574 L -168.182,4.00594 L -168.137,3.98723 L -168.091,3.96965
 L -168.045,3.9532 L -167.998,3.9379 L -167.951,3.92374 L -167.904,3.91074 L -167.856,3.8989 L -167.808,3.88823
 L -167.76,3.87875 L -167.712,3.87045 L -167.663,3.86334 L -167.615,3.85742 L -167.566,3.85271 L -167.517,3.8492
 L -167.468,3.84688 L -167.419,3.84576 L -167.37,3.84586 L -167.321,3.84715 L -167.272,3.84966 L -167.223,3.85336
 L -167.174,3.85826 L -167.125,3.86436 L -167.076,3.87166 L -167.028,3.88014 L -166.98,3.88982 L -166.932,3.90067
 L -166.885,3.91269 L -166.837,3.92586 L -166.79,3.9402 L -166.744,3.95569 L -166.698,3.97232 L -166.652,3.99007
 L -166.606,4.00894 L -166.562,4.02892 L -166.517,4.04999 L -166.473,4.07214 L -166.43,4.09537 L -166.388,4.11964
 L -166.346,4.14496 L -166.304,4.1713 L -166.263,4.19864 L -166.223,4.22699 L -166.184,4.2563 L -166.145,4.28658
 L -166.107,4.31778 L -166.07,4.34991 L -166.034,4.38295 L -165.998,4.41687 L -165.964,4.45164 L -165.93,4.48726
 L -165.897,4.52368 L -165.865,4.56091 L -165.834,4.59892 L -165.804,4.63768 L -165.775,4.67715 L -165.747,4.71735
 L -165.719,4.75821 L -165.693,4.79973 L -165.668,4.84189 L -165.644,4.88464 L -165.621,4.92798 L -165.599,4.97186
 L -165.578,5.01627 L -165.558,5.06119 L -165.54,5.10657 L -165.522,5.1524 L -165.506,5.19865 L -165.49,5.24529
 L -165.476,5.29228 L -165.463,5.33961 L -165.451,5.38725 L -165.441,5.43517 L -165.431,5.48334 L -165.423,5.53171
 L -165.416,5.58028 L -165.41,5.62901 L -165.405,5.67787 L -165.401,5.72682 L -165.399,5.77586 L -165.398,5.82494
 L -165.398,5.87402 L -165.399,5.92308 L -165.402,5.97211 L -165.406,6.02106 L -165.411,6.0699 L -165.417,6.11861
 L -165.424,6.16714 L -165.432,6.21548 L -165.442,6.26361 L -165.453,6.31149 L -165.465,6.35909 L -165.478,6.40636
 L -165.493,6.45331 L -165.508,6.49989 L -165.525,6.54607 L -165.542,6.59184 L -165.561,6.63715 L -165.581,6.68199
 L -165.602,6.72632 L -165.624,6.77013 L -165.648,6.81337 L -165.672,6.85603 L -165.697,6.89809 L -165.724,6.9395
 L -165.751,6.98027 L -165.779,7.02034 L -165.809,7.05972 L -165.839,7.09836 L -165.87,7.13625 L -165.902,7.17334
 L -165.935,7.20966 L -165.969,7.24515 L -166.004,7.27979 L -166.04,7.31357 L -166.076,7.34645 L -166.113,7.37845
 L -166.151,7.40952 L -166.19,7.43964 L -166.229,7.46881 L -166.27,7.49699 L -166.311,7.52419 L -166.352,7.55037
 L -166.394,7.57552 L -166.437,7.59964 L -166.48,7.6227 L -166.524,7.64468 L -166.569,7.66557 L -166.613,7.68538
 L -166.659,7.70409 L -166.705,7.72166 L -166.751,7.73811 L -166.798,7.75342 L -166.845,7.76758 L -166.892,7.78058
 L -166.94,7.79242 L -166.987,7.80309 L -167.036,7.81256 L -167.084,7.82086 L -167.133,7.82797 L -167.181,7.83389
 L -167.23,7.83861 L -167.279,7.84212 L -167.328,7.84444 L -167.377,7.84555 z
M -166.302,22.4125 L -166.351,22.4106 L -166.4,22.4076 L -166.449,22.4034 L -166.497,22.3979 L -166.546,22.3913
 L -166.594,22.3835 L -166.643,22.3745 L -166.691,22.3643 L -166.738,22.3529 L -166.786,22.3404 L -166.833,22.3267
 L -166.88,22.3118 L -166.926,22.2958 L -166.972,22.2787 L -167.018,22.2605 L -167.063,22.2411 L -167.108,22.2206
 L -167.152,22.1991 L -167.195,22.1764 L -167.238,22.1527 L -167.281,22.128 L -167.322,22.1022 L -167.364,22.0754
 L -167.404,22.0477 L -167.444,22.0189 L -167.483,21.9891 L -167.521,21.9584 L -167.559,21.9268 L -167.595,21.8943
 L -167.631,21.8609 L -167.666,21.8266 L -167.701,21.7914 L -167.734,21.7554 L -167.767,21.7186 L -167.798,21.681
 L -167.829,21.6427 L -167.859,21.6036 L -167.887,21.5638 L -167.915,21.5233 L -167.942,21.4822 L -167.967,21.4404
 L -167.992,21.3979 L -168.016,21.3549 L -168.038,21.3114 L -168.06,21.2672 L -168.08,21.2226 L -168.1,21.1775
 L -168.118,21.1319 L -168.135,21.0859 L -168.151,21.0394 L -168.166,20.9926 L -168.179,20.9455 L -168.192,20.898
 L -168.203,20.8503 L -168.213,20.8022 L -168.222,20.754 L -168.23,20.7055 L -168.237,20.6568 L -168.242,20.6081
 L -168.246,20.5591 L -168.249,20.5101 L -168.251,20.4611 L -168.251,20.412 L -168.251,20.3629 L -168.249,20.3139
 L -168.246,20.2649 L -168.242,20.216 L -168.236,20.1672 L -168.23,20.1186 L -168.222,20.0701 L -168.213,20.0219
 L -168.203,19.9738 L -168.191,19.9261 L -168.179,19.8786 L -168.165,19.8315 L -168.15,19.7847 L -168.134,19.7383
 L -168.117,19.6923 L -168.099,19.6467 L -168.079,19.6016 L -168.059,19.557 L -168.037,19.5129 L -168.015,19.4694
 L -167.991,19.4264 L -167.966,19.384 L -167.941,19.3422 L -167.914,19.3011 L -167.886,19.2606 L -167.857,19.2208
 L -167.827,19.1818 L -167.797,19.1435 L -167.765,19.1059 L -167.733,19.0692 L -167.699,19.0332 L -167.665,18.9981
 L -167.63,18.9639 L -167.594,18.9305 L -167.557,18.898 L -167.519,18.8664 L -167.481,18.8357 L -167.442,18.806
 L -167.402,18.7773 L -167.362,18.7496 L -167.321,18.7228 L -167.279,18.6971 L -167.236,18.6724 L -167.193,18.6488
 L -167.15,18.6262 L -167.106,18.6047 L -167.061,18.5842 L -167.016,18.5649 L -166.97,18.5467 L -166.924,18.5296
 L -166.878,18.5137 L -166.831,18.4989 L -166.784,18.4853 L -166.736,18.4728 L -166.689,18.4615 L -166.641,18.4513
 L -166.592,18.4424 L -166.544,18.4346 L -166.495,18.428 L -166.446,18.4226 L -166.398,18.4184 L -166.349,18.4155
 L -166.299,18.4137 L -166.25,18.4131 L -166.201,18.4137 L -166.152,18.4156 L -166.103,18.4186 L -166.054,18.4229
 L -166.006,18.4283 L -165.957,18.4349 L -165.908,18.4427 L -165.86,18.4518 L -165.812,18.4619 L -165.764,18.4733
 L -165.717,18.4858 L -165.67,18.4995 L -165.623,18.5144 L -165.577,18.5304 L -165.531,18.5475 L -165.485,18.5658
 L -165.44,18.5851 L -165.395,18.6056 L -165.351,18.6272 L -165.308,18.6498 L -165.265,18.6735 L -165.222,18.6982
 L -165.181,18.724 L -165.139,18.7508 L -165.099,18.7786 L -165.059,18.8073 L -165.02,18.8371 L -164.982,18.8678
 L -164.944,18.8994 L -164.908,18.9319 L -164.872,18.9654 L -164.837,18.9997 L -164.802,19.0348 L -164.769,19.0708
 L -164.736,19.1076 L -164.705,19.1452 L -164.674,19.1835 L -164.644,19.2226 L -164.616,19.2624 L -164.588,19.3029
 L -164.561,19.344 L -164.535,19.3858 L -164.511,19.4283 L -164.487,19.4713 L -164.465,19.5149 L -164.443,19.559
 L -164.423,19.6036 L -164.403,19.6487 L -164.385,19.6943 L -164.368,19.7404 L -164.352,19.7868 L -164.337,19.8336
 L -164.324,19.8807 L -164.311,19.9282 L -164.3,19.976 L -164.29,20.024 L -164.281,20.0723 L -164.273,20.1207
 L -164.266,20.1694 L -164.261,20.2182 L -164.257,20.2671 L -164.254,20.3161 L -164.252,20.3651 L -164.251,20.4142
 L -164.252,20.4633 L -164.254,20.5123 L -164.257,20.5613 L -164.261,20.6102 L -164.267,20.659 L -164.273,20.7076
 L -164.281,20.7561 L -164.29,20.8044 L -164.3,20.8524 L -164.312,20.9001 L -164.324,20.9476 L -164.338,20.9947
 L -164.353,21.0415 L -164.369,21.0879 L -164.386,21.1339 L -164.404,21.1795 L -164.424,21.2246 L -164.444,21.2692
 L -164.466,21.3133 L -164.488,21.3569 L -164.512,21.3999 L -164.537,21.4422 L -164.562,21.484 L -164.589,21.5252
 L -164.617,21.5656 L -164.646,21.6054 L -164.675,21.6444 L -164.706,21.6827 L -164.738,21.7203 L -164.77,21.757
 L -164.804,21.793 L -164.838,21.8281 L -164.873,21.8624 L -164.909,21.8957 L -164.946,21.9282 L -164.984,21.9598
 L -165.022,21.9905 L -165.061,22.0202 L -165.101,22.0489 L -165.141,22.0767 L -165.182,22.1034 L -165.224,22.1291
 L -165.267,22.1538 L -165.31,22.1775 L -165.353,22.2 L -165.397,22.2216 L -165.442,22.242 L -165.487,22.2613
 L -165.533,22.2795 L -165.579,22.2966 L -165.625,22.3125 L -165.672,22.3273 L -165.719,22.341 L -165.767,22.3534
 L -165.814,22.3647 L -165.862,22.3749 L -165.911,22.3839 L -165.959,22.3916 L -166.008,22.3982 L -166.057,22.4036
 L -166.105,22.4078 L -166.154,22.4108 L -166.203,22.4125 L -166.253,22.4131 z
M 166.203,22.4125 L 166.154,22.4108 L 166.105,22.4078 L 166.057,22.4036 L 166.008,22.3982 L 165.959,22.3916
 L 165.911,22.3839 L 165.862,22.3749 L 165.814,22.3647 L 165.767,22.3534 L 165.719,22.341 L 165.672,22.3273
 L 165.625,22.3125 L 165.579,22.2966 L 165.533,22.2795 L 165.487,22.2613 L 165.442,22.242 L 165.397,22.2216
 L 165.353,22.2 L 165.31,22.1775 L 165.267,22.1538 L 165.224,22.1291 L 165.182,22.1034 L 165.141,22.0767
 L 165.101,22.0489 L 165.061,22.0202 L 165.022,21.9905 L 164.984,21.9598 L 164.946,21.9282 L 164.909,21.8957
 L 164.873,21.8624 L 164.838,21.8281 L 164.804,21.793 L 164.77,21.757 L 164.738,21.7203 L 164.706,21.6827
 L 164.675,21.6444 L 164.646,21.6054 L 164.617,21.5656 L 164.589,21.5252 L 164.562,21.484 L 164.537,21.4422
 L 164.512,21.3999 L 164.488,21.3569 L 164.466,21.3133 L 164.444,21.2692 L 164.424,21.2246 L 164.404,21.1795
 L 164.386,21.1339 L 164.369,21.0879 L 164.353,21.0415 L 164.338,20.9947 L 164.324,20.9476 L 164.312,20.9001
 L 164.3,20.8524 L 164.29,20.8044 L 164.281,20.7561 L 164.273,20.7076 L 164.267,20.659 L 164.261,20.6102
 L 164.257,20.5613 L 164.254,20.5123 L 164.252,20.4633 L 164.251,20.4142 L 164.252,20.3651 L 164.254,20.3161
 L 164.257,20.2671 L 164.261,20.2182 L 164.266,20.1694 L 164.273,20.1207 L 164.281,20.0723 L 164.29,20.024
 L 164.3,19.976 L 164.311,19.9282 L 164.324,19.8807 L 164.337,19.8336 L 164.352,19.7868 L 164.368,19.7404
 L 164.385,19.6943 L 164.403,19.6487 L 164.423,19.6036 L 164.443,19.559 L 164.465,19.5149 L 164.487,19.4713
 L 164.511,19.4283 L 164.535,19.3858 L 164.561,19.344 L 164.588,19.3029 L 164.616,19.2624 L 164.644,19.2226
 L 164.674,19.1835 L 164.705,19.1452 L 164.736,19.1076 L 164.769,19.0708 L 164.802,19.0348 L 164.837,18.9997
 L 164.872,18.9654 L 164.908,18.9319 L 164.944,18.8994 L 164.982,18.8678 L 165.02,18.8371 L 165.059,18.8073
 L 165.099,18.7786 L 165.139,18.7508 L 165.181,18.724 L 165.222,18.6982 L 165.265,18.6735 L 165.308,18.6498
 L 165.351,18.6272 L 165.395,18.6056 L 165.44,18.5851 L 165.485,18.5658 L 165.531,18.5475 L 165.577,18.5304
 L 165.623,18.5144 L 165.67,18.4995 L 165.717,18.4858 L 165.764,18.4733 L 165.812,18.4619 L 165.86,18.4518
 L 165.908,18.4427 L 165.957,18.4349 L 166.006,18.4283 L 166.054,18.4229 L 166.103,18.4186 L 166.152,18.4156
 L 166.201,18.4137 L 166.25,18.4131 L 166.299,18.4137 L 166.349,18.4155 L 166.398,18.4184 L 166.446,18.4226
 L 166.495,18.428 L 166.544,18.4346 L 166.592,18.4424 L 166.641,18.4513 L 166.689,18.4615 L 166.736,18.4728
 L 166.784,18.4853 L 166.831,18.4989 L 166.878,18.5137 L 166.924,18.5296 L 166.97,18.5467 L 167.016,18.5649
 L 167.061,18.5842 L 167.106,18.6047 L 167.15,18.6262 L 167.193,18.6488 L 167.236,18.6724 L 167.279,18.6971
 L 167.321,18.7228 L 167.362,18.7496 L 167.402,18.7773 L 167.442,18.806 L 167.481,18.8357 L 167.519,18.8664
 L 167.557,18.898 L 167.594,18.9305 L 167.63,18.9639 L 167.665,18.9981 L 167.699,19.0332 L 167.733,19.0692
 L 167.765,19.1059 L 167.797,19.1435 L 167.827,19.1818 L 167.857,19.2208 L 167.886,19.2606 L 167.914,19.3011
 L 167.941,19.3422 L 167.966,19.384 L 167.991,19.4264 L 168.015,19.4694 L 168.037,19.5129 L 168.059,19.557
 L 168.079,19.6016 L 168.099,19.6467 L 168.117,19.6923 L 168.134,19.7383 L 168.15,19.7847 L 168.165,19.8315
 L 168.179,19.8786 L 168.191,19.9261 L 168.203,19.9738 L 168.213,20.0219 L 168.222,20.0701 L 168.23,20.1186
 L 168.236,20.1672 L 168.242,20.216 L 168.246,20.2649 L 168.249,20.3139 L 168.251,20.3629 L 168.251,20.412
 L 168.251,20.4611 L 168.249,20.5101 L 168.246,20.5591 L 168.242,20.6081 L 168.237,20.6568 L 168.23,20.7055
 L 168.222,20.754 L 168.213,20.8022 L 168.203,20.8503 L 168.192,20.898 L 168.179,20.9455 L 168.166,20.9926
 L 168.151,21.0394 L 168.135,21.0859 L 168.118,21.1319 L 168.1,21.1775 L 168.08,21.2226 L 168.06,21.2672
 L 168.038,21.3114 L 168.016,21.3549 L 167.992,21.3979 L 167.967,21.4404 L 167.942,21.4822 L 167.915,21.5233
 L 167.887,21.5638 L 167.859,21.6036 L 167.829,21.6427 L 167.798,21.681 L 167.767,21.7186 L 167.734,21.7554
 L 167.701,21.7914 L 167.666,21.8266 L 167.631,21.8609 L 167.595,21.8943 L 167.559,21.9268 L 167.521,21.9584
 L 167.483,21.9891 L 167.444,22.0189 L 167.404,22.0477 L 167.364,22.0754 L 167.322,22.1022 L 167.281,22.128
 L 167.238,22.1527 L 167.195,22.1764 L 167.152,22.1991 L 167.108,22.2206 L 167.063,22.2411 L 167.018,22.2605
 L 166.972,22.2787 L 166.926,22.2958 L 166.88,22.3118 L 166.833,22.3267 L 166.786,22.3404 L 166.738,22.3529
 L 166.691,22.3643 L 166.643,22.3745 L 166.594,22.3835 L 166.546,22.3913 L 166.497,22.3979 L 166.449,22.4034
 L 166.4,22.4076 L 166.351,22.4106 L 166.302,22.4125 L 166.253,22.4131 z
" stroke="black" fill="lightgray" stroke-width="0.5"/>
</svg>
